<svg width="31" height="27" viewBox="0 0 31 27" fill="none" xmlns="http://www.w3.org/2000/svg">
<path d="M30.4406 14.8244L18.8331 26.4423C18.4601 26.8141 17.994 27 17.5278 27C17.0617 27 16.5955 26.8141 16.2226 26.4423C15.4767 25.6988 15.4767 24.537 16.2226 23.7935L24.6602 15.3821H1.86466C0.839098 15.3821 0 14.5456 0 13.5232C0 12.5009 0.839098 11.6644 1.86466 11.6644H24.6602L16.1759 3.20654C15.4301 2.46299 15.4301 1.3012 16.1759 0.557659C16.9218 -0.185886 18.0872 -0.185886 18.8331 0.557659L30.4406 12.1756C31.1865 12.9191 31.1865 14.1274 30.4406 14.8244Z" fill="#4000AF"/>
</svg>
