<svg width="31" height="27" viewBox="0 0 31 27" fill="none" xmlns="http://www.w3.org/2000/svg">
<path d="M0.559398 12.1756L12.1669 0.557658C12.5399 0.185885 13.006 3.34265e-07 13.4722 3.75018e-07C13.9383 4.15772e-07 14.4045 0.185885 14.7774 0.557658C15.5233 1.3012 15.5233 2.463 14.7774 3.20654L6.33985 11.6179L29.1353 11.6179C30.1609 11.6179 31 12.4544 31 13.4768C31 14.4991 30.1609 15.3356 29.1353 15.3356L6.33985 15.3356L14.8241 23.7935C15.5699 24.537 15.5699 25.6988 14.8241 26.4423C14.0782 27.1859 12.9128 27.1859 12.1669 26.4423L0.559398 14.8244C-0.186467 14.0809 -0.186467 12.8726 0.559398 12.1756Z" fill="#DADADA"/>
</svg>
