<svg width="326" height="703" viewBox="0 0 326 703" fill="none" xmlns="http://www.w3.org/2000/svg">
<g filter="url(#filter0_d)">
<path d="M155.552 221.361C155.412 221.153 155.282 220.958 155.142 220.75C149.554 212.414 143.476 204.608 137.002 197.289L116.907 208.766C112.015 203.508 106.887 198.588 101.529 193.985L111.829 173.146C103.962 166.72 95.694 160.925 87.1268 155.734L71.3137 172.638C65.0318 169.056 58.5888 165.804 51.9849 162.942L55.6737 140.01C46.3419 136.258 36.7851 133.16 27.073 130.73L16.9449 151.555C9.82608 149.964 2.63905 148.781 -4.61162 147.983L-7.83289 124.972C-17.7762 124.147 -27.7821 124.008 -37.7766 124.546L-41.3126 147.436C-48.6191 148.025 -55.9057 149.003 -63.1491 150.436L-73.0096 129.398C-82.6606 131.559 -92.2259 134.387 -101.636 137.896L-98.2714 160.852C-105.047 163.582 -111.724 166.729 -118.28 170.298L-133.87 153.101C-138.116 155.585 -142.339 158.195 -146.514 160.994C-150.69 163.793 -154.708 166.708 -158.628 169.739L-148.643 190.693C-154.42 195.392 -159.868 200.373 -164.967 205.603L-184.924 193.771C-191.754 201.129 -198.004 208.903 -203.659 217.023L-187.931 234.127C-191.998 240.297 -195.68 246.652 -199.001 253.187L-221.532 247.772C-225.84 256.822 -229.513 266.131 -232.513 275.633L-212.45 287.354C-214.476 294.35 -216.102 301.462 -217.335 308.651L-240.446 310.109C-241.902 320.026 -242.657 330.057 -242.727 340.091L-220.098 345.381C-219.969 352.563 -219.422 359.768 -218.481 366.93L-240.124 375.137C-238.577 385.034 -236.344 394.874 -233.402 404.601L-210.212 402.99C-207.989 409.695 -205.363 416.312 -202.381 422.83L-220.631 437.058C-216.344 445.823 -211.417 454.402 -205.829 462.738C-205.689 462.946 -205.559 463.14 -205.406 463.339L-183.739 454.957C-179.633 460.722 -175.25 466.181 -170.645 471.37L-183.884 490.374C-176.857 497.886 -169.383 504.837 -161.535 511.174L-143.308 496.761C-137.789 500.975 -132.072 504.854 -126.193 508.404L-133.254 530.475C-124.344 535.578 -115.103 540.035 -105.627 543.791L-92.4537 524.63C-86.0739 526.978 -79.5562 528.992 -72.97 530.658L-73.2147 553.839C-63.2065 556.11 -53.0244 557.682 -42.7705 558.52L-35.8353 536.352C-29.1282 536.728 -22.3898 536.762 -15.6525 536.434L-9.04139 558.683C1.17488 557.936 11.3749 556.475 21.4938 554.262L21.5807 531.027C28.0358 529.438 34.4388 527.501 40.7665 525.213L53.6245 544.543C63.1221 540.834 72.4507 536.453 81.5451 531.303L74.7858 509.072C77.6257 507.37 80.433 505.588 83.2214 503.719C86.0099 501.85 88.724 499.93 91.3777 497.949L109.374 512.647C117.57 506.186 125.189 499.225 132.228 491.849L119.245 472.602C123.766 467.618 127.99 462.431 131.911 457.063L153.438 465.809C159.338 457.303 164.555 448.409 169.128 439.243L151.057 424.675C153.92 418.568 156.449 412.321 158.648 405.974L181.789 407.98C184.895 398.185 187.319 388.184 189.01 378.049L167.474 369.469C168.435 362.744 169.034 355.959 169.299 349.156L192.029 344.249C192.144 334.043 191.541 323.815 190.205 313.635L167.106 311.782C166.046 304.982 164.63 298.219 162.838 291.527L183.108 280.133C180.241 270.456 176.651 260.902 172.357 251.557L149.758 256.599C146.706 250.368 143.322 244.24 139.549 238.251L155.552 221.361ZM64.3006 475.465C-9.58614 524.997 -109.706 505.164 -159.31 431.17C-208.915 357.175 -189.233 257.05 -115.332 207.508C-41.4453 157.976 58.6647 177.795 108.269 251.79C157.874 325.785 138.187 425.933 64.3006 475.465Z" fill="white"/>
</g>
<defs>
<filter id="filter0_d" x="-377" y="0" width="702.959" height="702.959" filterUnits="userSpaceOnUse" color-interpolation-filters="sRGB">
<feFlood flood-opacity="0" result="BackgroundImageFix"/>
<feColorMatrix in="SourceAlpha" type="matrix" values="0 0 0 0 0 0 0 0 0 0 0 0 0 0 0 0 0 0 127 0"/>
<feOffset dy="10"/>
<feGaussianBlur stdDeviation="25"/>
<feColorMatrix type="matrix" values="0 0 0 0 0.433333 0 0 0 0 0.433333 0 0 0 0 0.433333 0 0 0 0.1 0"/>
<feBlend mode="normal" in2="BackgroundImageFix" result="effect1_dropShadow"/>
<feBlend mode="normal" in="SourceGraphic" in2="effect1_dropShadow" result="shape"/>
</filter>
</defs>
</svg>
