<svg width="212" height="407" viewBox="0 0 212 407" fill="none" xmlns="http://www.w3.org/2000/svg">
<g filter="url(#filter0_d)">
<path d="M284.484 118.086L262.501 99.3328L246.249 113.562C238.033 109.046 229.298 105.961 220.409 104.213L217.272 83.0007L188.543 82.7112L185.278 104.384C176.438 106.196 167.871 109.342 159.882 113.832L143.685 99.2961L121.661 117.611L133.299 136.826C127.693 144.07 123.37 151.947 120.312 160.146L98.1875 159.347L93.1613 187.699L114.783 195.199C115.152 204.001 116.824 212.73 119.746 221.119L102.051 235.082L116.381 260.199L137.945 251.913C140.602 254.851 143.425 257.656 146.525 260.298C150.198 263.442 154.047 266.209 158.037 268.643L153.474 291.035L180.464 301.171L191.546 280.861C200.2 282.16 208.973 282.167 217.588 280.916L228.411 301.025L255.43 291.441L250.917 268.943C258.286 264.457 265.082 258.797 271.078 252.007L291.794 260.396L306.193 235.567L288.745 221.437C291.627 212.816 293.144 203.854 293.338 194.87L313.958 188.147L309.002 159.711L287.148 160.052C283.849 151.613 279.22 143.588 273.343 136.293L284.484 118.086ZM254.02 234.844C230.793 262.365 189.58 265.552 161.951 241.99C134.321 218.428 130.774 177.032 154.001 149.511C177.228 121.99 218.441 118.803 246.061 142.35C273.686 165.938 277.247 207.324 254.02 234.844Z" fill="white"/>
</g>
<defs>
<filter id="filter0_d" x="0.426025" y="-0.000244141" width="405.23" height="406.067" filterUnits="userSpaceOnUse" color-interpolation-filters="sRGB">
<feFlood flood-opacity="0" result="BackgroundImageFix"/>
<feColorMatrix in="SourceAlpha" type="matrix" values="0 0 0 0 0 0 0 0 0 0 0 0 0 0 0 0 0 0 127 0"/>
<feOffset dy="10"/>
<feGaussianBlur stdDeviation="25"/>
<feColorMatrix type="matrix" values="0 0 0 0 0.433333 0 0 0 0 0.433333 0 0 0 0 0.433333 0 0 0 0.1 0"/>
<feBlend mode="normal" in2="BackgroundImageFix" result="effect1_dropShadow"/>
<feBlend mode="normal" in="SourceGraphic" in2="effect1_dropShadow" result="shape"/>
</filter>
</defs>
</svg>
