<svg width="255" height="474" viewBox="0 0 255 474" fill="none" xmlns="http://www.w3.org/2000/svg">
<g filter="url(#filter0_d)">
<path d="M349.047 152.393C348.961 152.264 348.88 152.143 348.793 152.014C345.33 146.848 341.564 142.011 337.551 137.475L325.098 144.588C322.066 141.329 318.889 138.28 315.568 135.428L321.951 122.513C317.076 118.531 311.952 114.94 306.643 111.723L296.843 122.198C292.95 119.979 288.957 117.963 284.865 116.189L287.151 101.978C281.367 99.6528 275.445 97.7329 269.426 96.2271L263.15 109.133C258.738 108.147 254.284 107.414 249.791 106.919L247.794 92.6587C241.632 92.1474 235.431 92.0614 229.238 92.395L227.046 106.58C222.518 106.945 218.003 107.551 213.514 108.439L207.403 95.4018C201.422 96.7407 195.494 98.4933 189.663 100.668L191.748 114.894C187.549 116.586 183.411 118.536 179.348 120.748L169.687 110.091C167.055 111.631 164.438 113.248 161.851 114.982C159.263 116.717 156.773 118.524 154.344 120.402L160.532 133.387C156.951 136.299 153.575 139.386 150.415 142.628L138.047 135.295C133.814 139.855 129.941 144.672 126.437 149.705L136.184 160.304C133.663 164.128 131.381 168.066 129.324 172.116L115.361 168.76C112.691 174.369 110.415 180.138 108.556 186.026L120.989 193.29C119.734 197.626 118.726 202.033 117.962 206.489L103.639 207.392C102.737 213.538 102.269 219.754 102.226 225.973L116.249 229.251C116.329 233.702 116.668 238.167 117.252 242.605L103.839 247.691C104.798 253.824 106.182 259.922 108.005 265.951L122.376 264.952C123.753 269.108 125.381 273.208 127.229 277.248L115.919 286.065C118.576 291.497 121.629 296.813 125.092 301.979C125.179 302.108 125.259 302.229 125.355 302.352L138.781 297.157C141.326 300.73 144.043 304.113 146.896 307.329L138.692 319.106C143.046 323.761 147.679 328.069 152.542 331.996L163.837 323.064C167.258 325.675 170.801 328.08 174.444 330.28L170.068 343.958C175.59 347.12 181.317 349.882 187.189 352.21L195.353 340.335C199.307 341.79 203.346 343.038 207.427 344.071L207.276 358.436C213.478 359.844 219.788 360.818 226.143 361.337L230.441 347.599C234.597 347.833 238.773 347.853 242.948 347.65L247.045 361.439C253.377 360.975 259.698 360.07 265.969 358.699L266.022 344.299C270.023 343.314 273.991 342.114 277.912 340.696L285.881 352.675C291.767 350.377 297.548 347.662 303.184 344.47L298.995 330.693C300.755 329.638 302.494 328.535 304.222 327.376C305.951 326.218 307.633 325.028 309.277 323.8L320.43 332.909C325.509 328.905 330.231 324.591 334.593 320.02L326.547 308.092C329.349 305.004 331.966 301.789 334.397 298.462L347.737 303.883C351.394 298.611 354.627 293.099 357.46 287.419L346.262 278.391C348.036 274.606 349.603 270.735 350.966 266.801L365.307 268.044C367.232 261.975 368.734 255.776 369.782 249.496L356.436 244.179C357.031 240.011 357.402 235.806 357.567 231.59L371.652 228.549C371.724 222.224 371.35 215.886 370.523 209.577L356.208 208.429C355.551 204.215 354.673 200.024 353.562 195.876L366.124 188.815C364.347 182.818 362.122 176.897 359.461 171.106L345.456 174.231C343.565 170.369 341.468 166.571 339.13 162.86L349.047 152.393ZM292.497 309.866C246.708 340.563 184.662 328.272 153.921 282.416C123.18 236.56 135.377 174.51 181.175 143.808C226.964 113.112 289.004 125.394 319.745 171.25C350.486 217.107 338.286 279.17 292.497 309.866Z" fill="white"/>
</g>
<defs>
<filter id="filter0_d" x="0" y="0" width="473.666" height="473.666" filterUnits="userSpaceOnUse" color-interpolation-filters="sRGB">
<feFlood flood-opacity="0" result="BackgroundImageFix"/>
<feColorMatrix in="SourceAlpha" type="matrix" values="0 0 0 0 0 0 0 0 0 0 0 0 0 0 0 0 0 0 127 0"/>
<feOffset dy="10"/>
<feGaussianBlur stdDeviation="25"/>
<feColorMatrix type="matrix" values="0 0 0 0 0.433333 0 0 0 0 0.433333 0 0 0 0 0.433333 0 0 0 0.1 0"/>
<feBlend mode="normal" in2="BackgroundImageFix" result="effect1_dropShadow"/>
<feBlend mode="normal" in="SourceGraphic" in2="effect1_dropShadow" result="shape"/>
</filter>
</defs>
</svg>
