<svg width="245" height="407" viewBox="0 0 245 407" fill="none" xmlns="http://www.w3.org/2000/svg">
<g filter="url(#filter0_d)">
<path d="M284.058 118.086L262.075 99.333L245.823 113.562C237.607 109.046 228.872 105.961 219.983 104.214L216.846 83.0009L188.117 82.7115L184.852 104.384C176.012 106.197 167.445 109.342 159.456 113.832L143.259 99.2963L121.235 117.611L132.873 136.827C127.267 144.07 122.944 151.948 119.886 160.146L97.7615 159.347L92.7353 187.699L114.357 195.199C114.726 204.001 116.398 212.73 119.32 221.119L101.625 235.082L115.955 260.2L137.519 251.913C140.176 254.852 142.999 257.657 146.099 260.298C149.772 263.442 153.621 266.21 157.611 268.644L153.048 291.035L180.038 301.171L191.12 280.861C199.774 282.16 208.547 282.168 217.162 280.916L227.985 301.025L255.004 291.441L250.491 268.943C257.86 264.458 264.656 258.798 270.652 252.007L291.368 260.396L305.767 235.568L288.319 221.437C291.201 212.816 292.718 203.854 292.912 194.87L313.532 188.148L308.576 159.712L286.722 160.052C283.423 151.613 278.794 143.589 272.917 136.293L284.058 118.086ZM253.594 234.845C230.367 262.366 189.154 265.553 161.525 241.99C133.895 218.428 130.348 177.032 153.575 149.511C176.802 121.99 218.015 118.803 245.635 142.351C273.26 165.938 276.821 207.324 253.594 234.845Z" fill="white"/>
</g>
<defs>
<filter id="filter0_d" x="0" y="6.10352e-05" width="405.23" height="406.067" filterUnits="userSpaceOnUse" color-interpolation-filters="sRGB">
<feFlood flood-opacity="0" result="BackgroundImageFix"/>
<feColorMatrix in="SourceAlpha" type="matrix" values="0 0 0 0 0 0 0 0 0 0 0 0 0 0 0 0 0 0 127 0"/>
<feOffset dy="10"/>
<feGaussianBlur stdDeviation="25"/>
<feColorMatrix type="matrix" values="0 0 0 0 0.433333 0 0 0 0 0.433333 0 0 0 0 0.433333 0 0 0 0.1 0"/>
<feBlend mode="normal" in2="BackgroundImageFix" result="effect1_dropShadow"/>
<feBlend mode="normal" in="SourceGraphic" in2="effect1_dropShadow" result="shape"/>
</filter>
</defs>
</svg>
