<svg width="458" height="718" viewBox="0 0 458 718" fill="none" xmlns="http://www.w3.org/2000/svg">
<g filter="url(#filter0_d)">
<path d="M136.104 534.391C136.204 534.764 136.297 535.112 136.397 535.485C140.393 550.399 145.365 564.785 151.157 578.658L186.118 571.928C190.63 582.015 195.653 591.725 201.168 601.09L175.819 626.318C184.082 639.582 193.242 652.127 203.138 663.941L234.561 647.183C241.929 655.519 249.695 663.455 257.889 670.903L241.126 702.462C252.851 712.561 265.227 721.819 278.162 730.182L303.255 704.89C312.83 710.743 322.708 716.035 332.869 720.798L326.129 755.906C340.197 762.047 354.698 767.219 369.518 771.4L386.038 739.827C396.969 742.599 408.065 744.794 419.324 746.306L423.232 781.837C438.358 783.486 453.691 784.119 469.136 783.684L475.64 748.586C486.862 747.977 498.148 746.711 509.467 744.771L523.625 777.555C531.042 776.047 538.487 774.346 545.957 772.344C553.428 770.342 560.727 768.093 567.94 765.628L563.809 730.156C574.556 726.184 584.963 721.638 594.987 716.554L618.168 743.697C631.769 736.377 644.731 728.161 656.999 719.146L642.593 686.428C651.581 679.464 660.099 672.04 668.18 664.174L698.298 683.251C709.067 672.213 719.039 660.483 728.127 648.137L704.736 621.104C711.161 611.923 717.063 602.376 722.429 592.519L756.806 601.877C763.851 588.16 769.934 573.929 775.019 559.353L744.698 540.41C748.077 529.887 750.859 519.124 753.047 508.228L788.639 507.03C791.302 491.85 792.938 476.413 793.487 460.787L758.92 451.614C759.014 440.746 758.477 429.807 757.372 418.834L791.015 407.182C789.126 392.29 786.214 377.352 782.218 362.438C782.118 362.065 782.024 361.717 781.9 361.351L746.187 362.794C743.072 352.36 739.401 342.234 735.274 332.391L763.992 311.295C757.492 296.866 750.061 283.032 741.781 269.905L708.082 281.839C702.138 272.962 695.74 264.472 688.944 256.383L710.189 227.752C699.75 215.897 688.508 204.816 676.577 194.639L647.876 215.996C639.753 209.408 631.263 203.238 622.5 197.54L634.371 163.909C620.927 155.629 606.881 148.283 592.367 141.969L571.256 170.803C561.677 166.923 551.882 163.526 541.909 160.657L543.335 124.976C528.088 120.989 512.509 118.05 496.676 116.245L485.007 150.036C474.819 149.143 464.533 148.781 454.183 148.971L445.062 114.437C429.39 115.119 413.631 116.865 397.83 119.846L396.629 155.574C391.648 156.642 386.676 157.841 381.687 159.178C376.698 160.515 371.792 161.963 366.944 163.528L348.041 133.187C332.897 138.524 318.345 144.874 304.431 152.119L313.775 186.593C304.716 191.604 295.989 197.06 287.612 202.927L260.612 179.498C247.796 188.953 235.781 199.313 224.569 210.389L243.645 240.577C236.443 248.048 229.658 255.887 223.302 264.037L190.603 249.621C181.215 262.34 172.718 275.7 165.221 289.617L192.317 312.807C187.578 322.123 183.335 331.705 179.569 341.479L144.035 337.333C138.798 352.137 134.595 367.33 131.482 382.816L164.196 396.989C162.362 407.417 161.066 417.968 160.351 428.603L125.174 435.125C124.543 450.639 125.024 466.335 126.635 482.075L162.046 485.96C163.393 496.548 165.277 507.153 167.797 517.747L136.104 534.391ZM395.202 209.718C527.394 174.297 663.327 252.91 698.799 385.296C734.272 517.681 655.876 653.697 523.659 689.124C391.467 724.545 255.541 645.957 220.068 513.571C184.596 381.186 263.01 245.139 395.202 209.718Z" fill="white"/>
</g>
<defs>
<filter id="filter0_d" x="0" y="0" width="918.868" height="918.868" filterUnits="userSpaceOnUse" color-interpolation-filters="sRGB">
<feFlood flood-opacity="0" result="BackgroundImageFix"/>
<feColorMatrix in="SourceAlpha" type="matrix" values="0 0 0 0 0 0 0 0 0 0 0 0 0 0 0 0 0 0 127 0"/>
<feOffset dy="10"/>
<feGaussianBlur stdDeviation="25"/>
<feColorMatrix type="matrix" values="0 0 0 0 0.433333 0 0 0 0 0.433333 0 0 0 0 0.433333 0 0 0 0.1 0"/>
<feBlend mode="normal" in2="BackgroundImageFix" result="effect1_dropShadow"/>
<feBlend mode="normal" in="SourceGraphic" in2="effect1_dropShadow" result="shape"/>
</filter>
</defs>
</svg>
