<svg width="214" height="407" viewBox="0 0 214 407" fill="none" xmlns="http://www.w3.org/2000/svg">
<g filter="url(#filter0_d)">
<path d="M92.0581 118.086L70.0748 99.333L53.8229 113.562C45.6075 109.046 36.872 105.961 27.9826 104.214L24.8458 83.0009L-3.88296 82.7115L-7.14816 104.384C-15.9877 106.197 -24.5553 109.342 -32.5437 113.832L-48.741 99.2963L-70.7649 117.611L-59.1267 136.827C-64.7328 144.07 -69.0563 151.948 -72.1144 160.146L-94.2385 159.347L-99.2647 187.699L-77.6432 195.199C-77.2739 204.001 -75.6024 212.73 -72.6799 221.119L-90.3752 235.082L-76.0452 260.2L-54.4805 251.913C-51.8244 254.852 -49.0008 257.657 -45.9009 260.298C-42.2278 263.442 -38.3791 266.21 -34.389 268.644L-38.9519 291.035L-11.9618 301.171L-0.879882 280.861C7.77357 282.16 16.5467 282.168 25.1623 280.916L35.9845 301.025L63.004 291.441L58.4909 268.943C65.8601 264.458 72.6564 258.798 78.652 252.007L99.3683 260.396L113.767 235.568L96.3193 221.437C99.201 212.816 100.718 203.854 100.912 194.87L121.532 188.148L116.576 159.712L94.7221 160.052C91.4228 151.613 86.7939 143.589 80.9168 136.293L92.0581 118.086ZM61.5941 234.845C38.367 262.366 -2.84553 265.553 -30.4753 241.99C-58.1052 218.428 -61.6518 177.032 -38.4247 149.511C-15.1976 121.99 26.0149 118.803 53.6347 142.351C81.2597 165.938 84.8212 207.324 61.5941 234.845Z" fill="white"/>
</g>
<defs>
<filter id="filter0_d" x="-192" y="5.34058e-05" width="405.23" height="406.067" filterUnits="userSpaceOnUse" color-interpolation-filters="sRGB">
<feFlood flood-opacity="0" result="BackgroundImageFix"/>
<feColorMatrix in="SourceAlpha" type="matrix" values="0 0 0 0 0 0 0 0 0 0 0 0 0 0 0 0 0 0 127 0"/>
<feOffset dy="10"/>
<feGaussianBlur stdDeviation="25"/>
<feColorMatrix type="matrix" values="0 0 0 0 0.433333 0 0 0 0 0.433333 0 0 0 0 0.433333 0 0 0 0.1 0"/>
<feBlend mode="normal" in2="BackgroundImageFix" result="effect1_dropShadow"/>
<feBlend mode="normal" in="SourceGraphic" in2="effect1_dropShadow" result="shape"/>
</filter>
</defs>
</svg>
