<svg width="664" height="1049" viewBox="0 0 664 1049" fill="none" xmlns="http://www.w3.org/2000/svg">
<g filter="url(#filter0_d)">
<path d="M808.88 325.215C808.66 324.887 808.455 324.582 808.235 324.254C799.447 311.145 789.889 298.868 779.707 287.358L748.106 305.408C740.412 297.138 732.348 289.402 723.921 282.162L740.118 249.39C727.747 239.284 714.745 230.172 701.272 222.008L676.403 248.591C666.524 242.959 656.392 237.844 646.006 233.343L651.807 197.279C637.132 191.378 622.102 186.506 606.829 182.685L590.901 215.435C579.705 212.933 568.403 211.073 557 209.819L551.934 173.63C536.297 172.332 520.561 172.114 504.844 172.96L499.283 208.958C487.792 209.884 476.333 211.422 464.942 213.675L449.435 180.591C434.257 183.988 419.215 188.436 404.416 193.955L409.707 230.056C399.051 234.349 388.551 239.299 378.242 244.911L353.724 217.867C347.046 221.774 340.406 225.877 333.839 230.28C327.272 234.682 320.953 239.266 314.788 244.032L330.492 276.985C321.406 284.375 312.838 292.208 304.819 300.434L273.434 281.826C262.693 293.397 252.864 305.622 243.97 318.393L268.706 345.291C262.309 354.995 256.518 364.989 251.297 375.266L215.864 366.75C209.088 380.983 203.312 395.622 198.594 410.565L230.146 428.998C226.96 440.001 224.402 451.185 222.463 462.491L186.118 464.784C183.829 480.379 182.641 496.154 182.532 511.935L218.117 520.254C218.322 531.549 219.182 542.879 220.661 554.143L186.624 567.049C189.058 582.613 192.57 598.088 197.196 613.385L233.665 610.851C237.161 621.397 241.291 631.802 245.981 642.053L217.28 664.429C224.022 678.213 231.77 691.704 240.558 704.813C240.778 705.141 240.983 705.447 241.224 705.76L275.297 692.577C281.755 701.643 288.648 710.228 295.889 718.388L275.069 748.275C286.12 760.089 297.875 771.02 310.217 780.987L338.88 758.319C347.56 764.946 356.551 771.047 365.796 776.63L354.692 811.34C368.704 819.364 383.238 826.374 398.139 832.281L418.856 802.147C428.889 805.84 439.14 809.007 449.497 811.628L449.112 848.082C464.852 851.655 480.864 854.125 496.99 855.444L507.897 820.581C518.445 821.174 529.042 821.227 539.637 820.711L550.034 855.701C566.1 854.526 582.141 852.228 598.054 848.748L598.191 812.207C608.343 809.708 618.412 806.663 628.364 803.064L648.585 833.463C663.521 827.63 678.191 820.741 692.494 812.641L681.864 777.681C686.33 775.003 690.745 772.202 695.13 769.262C699.515 766.322 703.783 763.303 707.957 760.188L736.258 783.302C749.147 773.142 761.13 762.195 772.199 750.594L751.782 720.327C758.892 712.489 765.534 704.331 771.702 695.889L805.556 709.644C814.834 696.267 823.039 682.28 830.229 667.864L801.811 644.955C806.313 635.35 810.29 625.527 813.749 615.545L850.141 618.699C855.025 603.296 858.837 587.567 861.497 571.628L827.629 558.136C829.14 547.56 830.082 536.889 830.499 526.191L866.244 518.474C866.425 502.423 865.477 486.338 863.377 470.329L827.051 467.415C825.383 456.72 823.155 446.085 820.337 435.561L852.216 417.642C847.706 402.424 842.06 387.399 835.307 372.703L799.767 380.631C794.969 370.832 789.646 361.195 783.713 351.777L808.88 325.215ZM665.374 724.829C549.177 802.725 391.726 771.535 313.715 655.168C235.705 538.801 266.658 381.34 382.877 303.43C499.074 225.533 656.511 256.702 734.521 373.069C812.531 489.436 781.571 646.933 665.374 724.829Z" fill="white"/>
</g>
<defs>
<filter id="filter0_d" x="0" y="0" width="1048.24" height="1048.24" filterUnits="userSpaceOnUse" color-interpolation-filters="sRGB">
<feFlood flood-opacity="0" result="BackgroundImageFix"/>
<feColorMatrix in="SourceAlpha" type="matrix" values="0 0 0 0 0 0 0 0 0 0 0 0 0 0 0 0 0 0 127 0"/>
<feOffset dy="10"/>
<feGaussianBlur stdDeviation="25"/>
<feColorMatrix type="matrix" values="0 0 0 0 0.433333 0 0 0 0 0.433333 0 0 0 0 0.433333 0 0 0 0.1 0"/>
<feBlend mode="normal" in2="BackgroundImageFix" result="effect1_dropShadow"/>
<feBlend mode="normal" in="SourceGraphic" in2="effect1_dropShadow" result="shape"/>
</filter>
</defs>
</svg>
