<svg width="239" height="407" viewBox="0 0 239 407" fill="none" xmlns="http://www.w3.org/2000/svg">
<g filter="url(#filter0_d)">
<path d="M117.818 118.085L95.8351 99.3323L79.5832 113.561C71.3677 109.045 62.6323 105.96 53.7428 104.213L50.6061 83.0002L21.8773 82.7108L18.6121 104.383C9.77255 106.196 1.20496 109.342 -6.78347 113.831L-22.9808 99.2956L-45.0047 117.61L-33.3665 136.826C-38.9726 144.069 -43.2961 151.947 -46.3541 160.145L-68.4783 159.346L-73.5044 187.698L-51.8829 195.199C-51.5137 204 -49.8421 212.73 -46.9196 221.119L-64.615 235.081L-50.2849 260.199L-28.7203 251.912C-26.0642 254.851 -23.2405 257.656 -20.1407 260.297C-16.4676 263.442 -12.6188 266.209 -8.62873 268.643L-13.1917 291.034L13.7985 301.17L24.8804 280.86C33.5338 282.16 42.307 282.167 50.9226 280.916L61.7448 301.025L88.7642 291.441L84.2511 268.943C91.6204 264.457 98.4166 258.797 104.412 252.006L125.129 260.395L139.527 235.567L122.08 221.437C124.961 212.815 126.478 203.853 126.673 194.869L147.292 188.147L142.336 159.711L120.482 160.051C117.183 151.612 112.554 143.588 106.677 136.292L117.818 118.085ZM87.3543 234.844C64.1272 262.365 22.9147 265.552 -4.71509 241.989C-32.3449 218.427 -35.8916 177.031 -12.6645 149.51C10.5627 121.989 51.7751 118.803 79.3949 142.35C107.02 165.937 110.581 207.323 87.3543 234.844Z" fill="white"/>
</g>
<defs>
<filter id="filter0_d" x="-166.24" y="-0.000488281" width="405.23" height="406.067" filterUnits="userSpaceOnUse" color-interpolation-filters="sRGB">
<feFlood flood-opacity="0" result="BackgroundImageFix"/>
<feColorMatrix in="SourceAlpha" type="matrix" values="0 0 0 0 0 0 0 0 0 0 0 0 0 0 0 0 0 0 127 0"/>
<feOffset dy="10"/>
<feGaussianBlur stdDeviation="25"/>
<feColorMatrix type="matrix" values="0 0 0 0 0.433333 0 0 0 0 0.433333 0 0 0 0 0.433333 0 0 0 0.1 0"/>
<feBlend mode="normal" in2="BackgroundImageFix" result="effect1_dropShadow"/>
<feBlend mode="normal" in="SourceGraphic" in2="effect1_dropShadow" result="shape"/>
</filter>
</defs>
</svg>
