<svg width="283" height="586" viewBox="0 0 283 586" fill="none" xmlns="http://www.w3.org/2000/svg">
<g filter="url(#filter0_d)">
<path d="M111.491 343.825C111.562 344.034 111.629 344.23 111.7 344.439C114.554 352.804 117.945 360.831 121.785 368.533L141.495 363.349C144.459 368.938 147.7 374.292 151.209 379.429L137.696 394.81C142.924 402.07 148.637 408.884 154.742 415.253L172.048 404.477C176.575 408.956 181.315 413.191 186.281 417.132L177.915 435.8C184.999 441.119 192.423 445.933 200.131 450.214L213.494 434.806C219.188 437.783 225.032 440.427 231.019 442.758L228.514 463.069C236.784 466.038 245.265 468.437 253.89 470.257L262.116 451.59C268.466 452.755 274.888 453.583 281.377 454.016L284.97 474.161C293.672 474.523 302.455 474.297 311.26 473.457L313.63 453.161C320.017 452.383 326.415 451.228 332.805 449.686L342.148 467.869C346.326 466.724 350.513 465.466 354.704 464.037C358.894 462.607 362.977 461.043 367.003 459.359L363.284 439.257C369.27 436.576 375.04 433.58 380.571 430.293L394.851 444.908C402.339 440.206 409.428 435.017 416.09 429.398L406.608 411.262C411.475 406.94 416.056 402.373 420.37 397.571L438.304 407.313C444.032 400.596 449.278 393.514 453.996 386.115L439.6 371.57C442.918 366.08 445.923 360.401 448.611 354.565L468.604 358.593C472.103 350.489 475.032 342.127 477.379 333.607L459.334 323.949C460.861 317.809 462.038 311.555 462.87 305.247L483.154 303.2C484.093 294.427 484.436 285.547 484.151 276.601L464.056 272.686C463.693 266.475 462.967 260.247 461.916 254.022L480.685 246.078C479.036 237.644 476.8 229.224 473.947 220.858C473.875 220.649 473.809 220.454 473.723 220.25L453.381 222.442C451.202 216.602 448.717 210.959 445.983 205.494L461.577 192.345C457.312 184.353 452.537 176.736 447.306 169.555L428.515 177.662C424.78 172.82 420.8 168.216 416.608 163.856L427.646 146.689C421.23 140.317 414.384 134.419 407.179 129.063L391.604 142.361C386.712 138.909 381.626 135.71 376.403 132.792L381.895 113.127C373.899 108.913 365.595 105.256 357.063 102.205L346.11 119.483C340.49 117.634 334.765 116.069 328.959 114.812L328.406 94.3775C319.545 92.6845 310.534 91.6026 301.421 91.1781L296.051 110.925C290.197 110.806 284.309 110.993 278.404 111.498L271.872 92.1224C262.946 93.1127 254.012 94.7133 245.101 97.0217L245.784 117.474C242.98 118.275 240.186 119.151 237.387 120.105C234.589 121.06 231.842 122.075 229.133 123.155L217.174 106.549C208.729 110.177 200.66 114.362 192.99 119.033L199.648 138.366C194.666 141.575 189.89 145.025 185.33 148.698L169.011 136.35C162.053 142.241 155.587 148.619 149.608 155.375L161.66 171.886C157.832 176.43 154.257 181.167 150.939 186.066L131.71 179.084C126.835 186.709 122.493 194.665 118.744 202.901L135.11 215.109C132.759 220.611 130.703 226.247 128.927 231.974L108.472 230.967C106.047 239.623 104.229 248.462 103.044 257.427L122.273 264.268C121.624 270.295 121.288 276.371 121.287 282.473L101.445 287.546C101.679 296.431 102.555 305.378 104.078 314.306L124.453 315.169C125.628 321.165 127.11 327.15 128.955 333.104L111.491 343.825ZM247.043 148.455C321.191 123.159 401.843 162.854 427.176 237.11C452.508 311.366 412.941 392.058 338.779 417.358C264.632 442.654 183.984 402.973 158.651 328.717C133.319 254.461 172.895 173.75 247.043 148.455Z" fill="white"/>
</g>
<defs>
<filter id="filter0_d" x="0" y="-0.00012207" width="585.827" height="585.827" filterUnits="userSpaceOnUse" color-interpolation-filters="sRGB">
<feFlood flood-opacity="0" result="BackgroundImageFix"/>
<feColorMatrix in="SourceAlpha" type="matrix" values="0 0 0 0 0 0 0 0 0 0 0 0 0 0 0 0 0 0 127 0"/>
<feOffset dy="10"/>
<feGaussianBlur stdDeviation="25"/>
<feColorMatrix type="matrix" values="0 0 0 0 0.433333 0 0 0 0 0.433333 0 0 0 0 0.433333 0 0 0 0.1 0"/>
<feBlend mode="normal" in2="BackgroundImageFix" result="effect1_dropShadow"/>
<feBlend mode="normal" in="SourceGraphic" in2="effect1_dropShadow" result="shape"/>
</filter>
</defs>
</svg>
