<svg width="224" height="407" viewBox="0 0 224 407" fill="none" xmlns="http://www.w3.org/2000/svg">
<g filter="url(#filter0_d)">
<path d="M102.058 118.086L80.0748 99.333L63.8229 113.562C55.6075 109.046 46.872 105.961 37.9826 104.214L34.8458 83.0009L6.11704 82.7115L2.85184 104.384C-5.9877 106.197 -14.5553 109.342 -22.5437 113.832L-38.741 99.2963L-60.7649 117.611L-49.1267 136.827C-54.7328 144.07 -59.0563 151.948 -62.1144 160.146L-84.2385 159.347L-89.2647 187.699L-67.6432 195.199C-67.2739 204.001 -65.6024 212.73 -62.6799 221.119L-80.3752 235.082L-66.0452 260.2L-44.4805 251.913C-41.8244 254.852 -39.0008 257.657 -35.9009 260.298C-32.2278 263.442 -28.3791 266.21 -24.389 268.644L-28.9519 291.035L-1.96176 301.171L9.12012 280.861C17.7736 282.16 26.5467 282.168 35.1623 280.916L45.9845 301.025L73.004 291.441L68.4909 268.943C75.8601 264.458 82.6564 258.798 88.652 252.007L109.368 260.396L123.767 235.568L106.319 221.437C109.201 212.816 110.718 203.854 110.912 194.87L131.532 188.148L126.576 159.712L104.722 160.052C101.423 151.613 96.7939 143.589 90.9168 136.293L102.058 118.086ZM71.5941 234.845C48.367 262.366 7.15447 265.553 -20.4753 241.99C-48.1052 218.428 -51.6518 177.032 -28.4247 149.511C-5.19758 121.99 36.0149 118.803 63.6347 142.351C91.2597 165.938 94.8212 207.324 71.5941 234.845Z" fill="white"/>
</g>
<defs>
<filter id="filter0_d" x="-182" y="0" width="405.23" height="406.067" filterUnits="userSpaceOnUse" color-interpolation-filters="sRGB">
<feFlood flood-opacity="0" result="BackgroundImageFix"/>
<feColorMatrix in="SourceAlpha" type="matrix" values="0 0 0 0 0 0 0 0 0 0 0 0 0 0 0 0 0 0 127 0"/>
<feOffset dy="10"/>
<feGaussianBlur stdDeviation="25"/>
<feColorMatrix type="matrix" values="0 0 0 0 0.433333 0 0 0 0 0.433333 0 0 0 0 0.433333 0 0 0 0.1 0"/>
<feBlend mode="normal" in2="BackgroundImageFix" result="effect1_dropShadow"/>
<feBlend mode="normal" in="SourceGraphic" in2="effect1_dropShadow" result="shape"/>
</filter>
</defs>
</svg>
