<svg width="222" height="556" viewBox="0 0 222 556" fill="none" xmlns="http://www.w3.org/2000/svg">
<g filter="url(#filter0_d)">
<path d="M107.602 324.614C107.669 324.81 107.731 324.992 107.798 325.188C110.472 333.025 113.648 340.544 117.245 347.759L135.71 342.903C138.486 348.138 141.522 353.153 144.809 357.966L132.151 372.374C137.048 379.175 142.4 385.558 148.119 391.525L164.33 381.43C168.571 385.626 173.012 389.594 177.663 393.285L169.827 410.772C176.462 415.755 183.417 420.265 190.638 424.275L203.156 409.842C208.489 412.63 213.964 415.107 219.572 417.291L217.226 436.317C224.973 439.098 232.918 441.345 240.998 443.051L248.703 425.564C254.652 426.655 260.668 427.432 266.746 427.837L270.112 446.708C278.264 447.047 286.491 446.835 294.74 446.048L296.96 427.036C302.943 426.307 308.936 425.225 314.922 423.78L323.674 440.814C327.589 439.741 331.511 438.563 335.436 437.224C339.362 435.885 343.186 434.42 346.957 432.841L343.474 414.011C349.082 411.5 354.487 408.693 359.668 405.614L373.045 419.305C380.06 414.9 386.7 410.039 392.941 404.775L384.059 387.786C388.618 383.738 392.909 379.459 396.951 374.96L413.75 384.087C419.116 377.795 424.031 371.161 428.451 364.229L414.965 350.604C418.073 345.461 420.888 340.141 423.406 334.674L442.135 338.448C445.412 330.856 448.156 323.023 450.354 315.041L433.451 305.994C434.881 300.242 435.984 294.384 436.763 288.475L455.764 286.557C456.644 278.339 456.966 270.021 456.698 261.641L437.874 257.973C437.534 252.154 436.854 246.321 435.869 240.489L453.452 233.047C451.907 225.147 449.813 217.259 447.139 209.422C447.072 209.226 447.01 209.043 446.93 208.852L427.874 210.906C425.833 205.435 423.505 200.149 420.943 195.03L435.552 182.712C431.556 175.225 427.084 168.09 422.183 161.363L404.58 168.958C401.081 164.421 397.353 160.108 393.427 156.024L403.767 139.943C397.756 133.974 391.343 128.449 384.594 123.431L370.004 135.889C365.421 132.655 360.657 129.658 355.764 126.924L360.909 108.503C353.418 104.556 345.639 101.129 337.646 98.2717L327.386 114.457C322.121 112.725 316.758 111.259 311.319 110.082L310.802 90.9391C302.5 89.3531 294.06 88.3396 285.523 87.942L280.492 106.441C275.009 106.328 269.493 106.504 263.961 106.977L257.842 88.8267C249.481 89.7543 241.111 91.2536 232.764 93.416L233.404 112.576C230.777 113.326 228.159 114.146 225.538 115.04C222.917 115.934 220.344 116.885 217.806 117.897L206.603 102.341C198.692 105.74 191.133 109.66 183.949 114.035L190.185 132.146C185.518 135.152 181.045 138.384 176.773 141.825L161.485 130.258C154.967 135.776 148.91 141.75 143.309 148.079L154.599 163.547C151.013 167.803 147.665 172.241 144.556 176.83L126.543 170.29C121.977 177.432 117.909 184.885 114.397 192.601L129.728 204.036C127.526 209.191 125.6 214.47 123.936 219.835L104.774 218.892C102.503 227.001 100.8 235.28 99.69 243.678L117.702 250.087C117.095 255.733 116.78 261.425 116.779 267.141L98.192 271.893C98.4109 280.216 99.2318 288.597 100.658 296.961L119.745 297.769C120.846 303.386 122.234 308.993 123.962 314.571L107.602 324.614ZM234.583 141.597C304.043 117.901 379.595 155.085 403.326 224.646C427.057 294.207 389.991 369.796 320.519 393.497C251.06 417.193 175.511 380.022 151.781 310.461C128.05 240.9 165.124 165.293 234.583 141.597Z" fill="white"/>
</g>
<defs>
<filter id="filter0_d" x="-0.00012207" y="-9.15527e-05" width="555.107" height="555.107" filterUnits="userSpaceOnUse" color-interpolation-filters="sRGB">
<feFlood flood-opacity="0" result="BackgroundImageFix"/>
<feColorMatrix in="SourceAlpha" type="matrix" values="0 0 0 0 0 0 0 0 0 0 0 0 0 0 0 0 0 0 127 0"/>
<feOffset dy="10"/>
<feGaussianBlur stdDeviation="25"/>
<feColorMatrix type="matrix" values="0 0 0 0 0.433333 0 0 0 0 0.433333 0 0 0 0 0.433333 0 0 0 0.1 0"/>
<feBlend mode="normal" in2="BackgroundImageFix" result="effect1_dropShadow"/>
<feBlend mode="normal" in="SourceGraphic" in2="effect1_dropShadow" result="shape"/>
</filter>
</defs>
</svg>
