<svg width="309" height="703" viewBox="0 0 309 703" fill="none" xmlns="http://www.w3.org/2000/svg">
<g filter="url(#filter0_d)">
<path d="M138.552 221.361C138.412 221.153 138.282 220.958 138.142 220.75C132.554 212.414 126.476 204.608 120.002 197.289L99.9074 208.766C95.015 203.508 89.8874 198.588 84.5291 193.985L94.8286 173.146C86.9619 166.72 78.694 160.925 70.1268 155.734L54.3137 172.638C48.0318 169.056 41.5888 165.804 34.9849 162.942L38.6737 140.01C29.3419 136.258 19.7851 133.16 10.073 130.73L-0.0550748 151.555C-7.17392 149.964 -14.3609 148.781 -21.6116 147.983L-24.8329 124.972C-34.7762 124.147 -44.7821 124.008 -54.7766 124.546L-58.3126 147.436C-65.6191 148.025 -72.9057 149.003 -80.1491 150.436L-90.0096 129.398C-99.6606 131.559 -109.226 134.387 -118.636 137.896L-115.271 160.852C-122.047 163.582 -128.724 166.729 -135.28 170.298L-150.87 153.101C-155.116 155.585 -159.339 158.195 -163.514 160.994C-167.69 163.793 -171.708 166.708 -175.628 169.739L-165.643 190.693C-171.42 195.392 -176.868 200.373 -181.967 205.603L-201.924 193.771C-208.754 201.129 -215.004 208.903 -220.659 217.023L-204.931 234.127C-208.998 240.297 -212.68 246.652 -216.001 253.187L-238.532 247.772C-242.84 256.822 -246.513 266.131 -249.513 275.633L-229.45 287.354C-231.476 294.35 -233.102 301.462 -234.335 308.651L-257.446 310.109C-258.902 320.026 -259.657 330.057 -259.727 340.091L-237.098 345.381C-236.969 352.563 -236.422 359.768 -235.481 366.93L-257.124 375.137C-255.577 385.034 -253.344 394.874 -250.402 404.601L-227.212 402.99C-224.989 409.695 -222.363 416.312 -219.381 422.83L-237.631 437.058C-233.344 445.823 -228.417 454.402 -222.829 462.738C-222.689 462.946 -222.559 463.14 -222.406 463.339L-200.739 454.957C-196.633 460.722 -192.25 466.181 -187.645 471.37L-200.884 490.374C-193.857 497.886 -186.383 504.837 -178.535 511.174L-160.308 496.761C-154.789 500.975 -149.072 504.854 -143.193 508.404L-150.254 530.475C-141.344 535.578 -132.103 540.035 -122.627 543.791L-109.454 524.63C-103.074 526.978 -96.5562 528.992 -89.97 530.658L-90.2147 553.839C-80.2065 556.11 -70.0244 557.682 -59.7705 558.52L-52.8353 536.352C-46.1282 536.728 -39.3898 536.762 -32.6525 536.434L-26.0414 558.683C-15.8251 557.936 -5.62506 556.475 4.49378 554.262L4.58069 531.027C11.0358 529.438 17.4388 527.501 23.7665 525.213L36.6245 544.543C46.1221 540.834 55.4507 536.453 64.5451 531.303L57.7858 509.072C60.6257 507.37 63.433 505.588 66.2214 503.719C69.0099 501.85 71.724 499.93 74.3777 497.949L92.3741 512.647C100.57 506.186 108.189 499.225 115.228 491.849L102.245 472.602C106.766 467.618 110.99 462.431 114.911 457.063L136.438 465.809C142.338 457.303 147.555 448.409 152.128 439.243L134.057 424.675C136.92 418.568 139.449 412.321 141.648 405.974L164.789 407.98C167.895 398.185 170.319 388.184 172.01 378.049L150.474 369.469C151.435 362.744 152.034 355.959 152.299 349.156L175.029 344.249C175.144 334.043 174.541 323.815 173.205 313.635L150.106 311.782C149.046 304.982 147.63 298.219 145.838 291.527L166.108 280.133C163.241 270.456 159.651 260.902 155.357 251.557L132.758 256.599C129.706 250.368 126.322 244.24 122.549 238.251L138.552 221.361ZM47.3006 475.465C-26.5861 524.997 -126.706 505.164 -176.31 431.17C-225.915 357.175 -206.233 257.05 -132.332 207.508C-58.4453 157.976 41.6647 177.795 91.2693 251.79C140.874 325.785 121.187 425.933 47.3006 475.465Z" fill="white"/>
</g>
<defs>
<filter id="filter0_d" x="-394" y="0" width="702.959" height="702.959" filterUnits="userSpaceOnUse" color-interpolation-filters="sRGB">
<feFlood flood-opacity="0" result="BackgroundImageFix"/>
<feColorMatrix in="SourceAlpha" type="matrix" values="0 0 0 0 0 0 0 0 0 0 0 0 0 0 0 0 0 0 127 0"/>
<feOffset dy="10"/>
<feGaussianBlur stdDeviation="25"/>
<feColorMatrix type="matrix" values="0 0 0 0 0.433333 0 0 0 0 0.433333 0 0 0 0 0.433333 0 0 0 0.1 0"/>
<feBlend mode="normal" in2="BackgroundImageFix" result="effect1_dropShadow"/>
<feBlend mode="normal" in="SourceGraphic" in2="effect1_dropShadow" result="shape"/>
</filter>
</defs>
</svg>
