<svg width="318" height="677" viewBox="0 0 318 677" fill="none" xmlns="http://www.w3.org/2000/svg">
<g filter="url(#filter0_d)">
<path d="M151.976 213.468C151.843 213.269 151.718 213.083 151.585 212.883C146.24 204.91 140.426 197.444 134.233 190.443L115.014 201.421C110.334 196.392 105.43 191.686 100.305 187.283L110.156 167.351C102.632 161.205 94.7235 155.663 86.5292 150.697L71.4042 166.865C65.3958 163.44 59.2332 160.329 52.9167 157.591L56.4449 135.657C47.5193 132.068 38.3785 129.105 29.089 126.781L19.4018 146.7C12.5927 145.178 5.71848 144.047 -1.21661 143.284L-4.29768 121.274C-13.8082 120.484 -23.3787 120.352 -32.9382 120.867L-36.3203 142.76C-43.3087 143.323 -50.2782 144.259 -57.2064 145.629L-66.6378 125.507C-75.8687 127.574 -85.0177 130.279 -94.0184 133.635L-90.8001 155.592C-97.281 158.203 -103.668 161.213 -109.938 164.627L-124.849 148.179C-128.91 150.555 -132.949 153.051 -136.943 155.728C-140.937 158.406 -144.78 161.194 -148.53 164.092L-138.979 184.134C-144.505 188.629 -149.716 193.393 -154.593 198.396L-173.681 187.078C-180.214 194.116 -186.192 201.552 -191.601 209.319L-176.557 225.678C-180.448 231.58 -183.97 237.658 -187.145 243.909L-208.696 238.729C-212.817 247.386 -216.33 256.289 -219.199 265.378L-200.009 276.589C-201.947 283.281 -203.503 290.083 -204.682 296.959L-226.787 298.354C-228.179 307.839 -228.902 317.433 -228.968 327.031L-207.325 332.09C-207.201 338.96 -206.678 345.851 -205.778 352.702L-226.479 360.551C-224.999 370.017 -222.863 379.429 -220.049 388.733L-197.869 387.192C-195.743 393.605 -193.231 399.934 -190.378 406.169L-207.834 419.778C-203.734 428.161 -199.022 436.366 -193.677 444.339C-193.543 444.538 -193.418 444.725 -193.272 444.915L-172.548 436.897C-168.621 442.411 -164.428 447.632 -160.024 452.596L-172.687 470.773C-165.966 477.958 -158.817 484.606 -151.31 490.668L-133.877 476.882C-128.598 480.912 -123.129 484.623 -117.507 488.018L-124.26 509.129C-115.738 514.009 -106.899 518.272 -97.8359 521.865L-85.2356 503.538C-79.1335 505.784 -72.8994 507.71 -66.5999 509.304L-66.8339 531.475C-57.2613 533.648 -47.5224 535.151 -37.7148 535.953L-31.0813 514.749C-24.6661 515.11 -18.221 515.142 -11.777 514.828L-5.45358 536.109C4.31806 535.394 14.0742 533.997 23.7526 531.881L23.8358 509.656C30.0099 508.137 36.1343 506.284 42.1866 504.095L54.485 522.584C63.5693 519.037 72.4918 514.846 81.1904 509.92L74.7253 488.657C77.4416 487.029 80.1267 485.325 82.7938 483.537C85.4609 481.749 88.0569 479.913 90.5951 478.018L107.808 492.076C115.647 485.897 122.935 479.239 129.668 472.183L117.25 453.775C121.574 449.007 125.614 444.046 129.365 438.912L149.955 447.277C155.598 439.142 160.588 430.634 164.961 421.867L147.677 407.933C150.416 402.092 152.834 396.117 154.938 390.046L177.072 391.965C180.042 382.596 182.361 373.03 183.978 363.336L163.38 355.13C164.299 348.698 164.871 342.208 165.125 335.701L186.865 331.008C186.976 321.246 186.399 311.463 185.122 301.726L163.028 299.954C162.014 293.449 160.659 286.981 158.945 280.58L178.333 269.682C175.591 260.427 172.157 251.288 168.05 242.35L146.434 247.172C143.516 241.212 140.279 235.351 136.67 229.623L151.976 213.468ZM64.6965 456.513C-5.97462 503.889 -101.737 484.92 -149.182 414.145C-196.628 343.371 -177.803 247.603 -107.118 200.218C-36.4472 152.842 59.3058 171.798 106.752 242.572C154.197 313.347 135.368 409.136 64.6965 456.513Z" fill="white"/>
</g>
<defs>
<filter id="filter0_d" x="-359.574" y="0" width="676.717" height="676.717" filterUnits="userSpaceOnUse" color-interpolation-filters="sRGB">
<feFlood flood-opacity="0" result="BackgroundImageFix"/>
<feColorMatrix in="SourceAlpha" type="matrix" values="0 0 0 0 0 0 0 0 0 0 0 0 0 0 0 0 0 0 127 0"/>
<feOffset dy="10"/>
<feGaussianBlur stdDeviation="25"/>
<feColorMatrix type="matrix" values="0 0 0 0 0.433333 0 0 0 0 0.433333 0 0 0 0 0.433333 0 0 0 0.1 0"/>
<feBlend mode="normal" in2="BackgroundImageFix" result="effect1_dropShadow"/>
<feBlend mode="normal" in="SourceGraphic" in2="effect1_dropShadow" result="shape"/>
</filter>
</defs>
</svg>
