<svg width="25" height="17" viewBox="0 0 25 17" fill="none" xmlns="http://www.w3.org/2000/svg">
<path d="M24.2124 0.491956C24.0537 0.336072 23.8648 0.212343 23.6567 0.127907C23.4486 0.0434713 23.2254 0 23 0C22.7745 0 22.5513 0.0434713 22.3432 0.127907C22.1351 0.212343 21.9462 0.336072 21.7875 0.491956L9.06499 12.899L3.71984 7.67674C3.55501 7.52167 3.36043 7.39974 3.14721 7.31791C2.93399 7.23608 2.70631 7.19594 2.47717 7.1998C2.24803 7.20367 2.02191 7.25144 1.81173 7.34041C1.60155 7.42938 1.41141 7.55779 1.25219 7.71832C1.09296 7.87885 0.967765 8.06835 0.883738 8.276C0.799712 8.48366 0.758504 8.70539 0.762468 8.92856C0.766433 9.15172 0.815492 9.37193 0.906843 9.57663C0.998195 9.78133 1.13005 9.9665 1.29488 10.1216L7.85251 16.508C8.01127 16.6639 8.20014 16.7877 8.40824 16.8721C8.61635 16.9565 8.83955 17 9.06499 17C9.29043 17 9.51364 16.9565 9.72174 16.8721C9.92984 16.7877 10.1187 16.6639 10.2775 16.508L24.2124 2.93678C24.3858 2.78104 24.5241 2.59202 24.6187 2.38163C24.7134 2.17125 24.7622 1.94405 24.7622 1.71437C24.7622 1.48468 24.7134 1.25749 24.6187 1.0471C24.5241 0.836716 24.3858 0.647696 24.2124 0.491956Z" fill="#4000AF"/>
</svg>
