<svg width="166" height="31" viewBox="0 0 166 31" fill="none" xmlns="http://www.w3.org/2000/svg">
<path d="M46.54 25.1521V8.50439H59.7973C60.7536 8.50439 61.536 8.85213 62.2314 9.50412C62.9269 10.1996 63.2312 10.982 63.2312 11.9382V16.2414C63.2312 17.1542 62.8834 17.9801 62.2314 18.6755C61.536 19.371 60.7536 19.6753 59.7973 19.6753H59.6234L63.2312 23.935V25.1521H59.5365L54.9291 19.6318L50.1478 19.6753V25.1521H46.54ZM50.9302 16.0676H58.8845H59.6669V15.2852V12.851V12.0686H58.8845H50.9302H50.1478V12.851V15.2852V16.0676H50.9302Z" fill="black"/>
<path d="M72.707 25.1516V8.46045H88.1376V12.0682H76.3582V14.9804H85.8339V18.5881H76.3582V21.5004H88.1376V25.1081H72.707V25.1516Z" fill="black"/>
<path d="M97.4395 25.1516V8.46045H112.87V12.0682H101.091V14.9804H110.566V18.5881H101.091V21.5004H112.87V25.1081H97.4395V25.1516Z" fill="black"/>
<path d="M122.128 25.1516V8.46045H125.823L135.168 19.5879V8.46045H138.819V25.1516H135.124L125.736 13.9807V25.1516H122.128Z" fill="black"/>
<path d="M151.859 25.1516C150.902 25.1516 150.12 24.8038 149.425 24.1518C148.773 23.4998 148.425 22.674 148.425 21.7177V11.8943C148.425 10.938 148.773 10.1556 149.425 9.46018C150.077 8.80818 150.902 8.46045 151.859 8.46045H161.682C162.638 8.46045 163.421 8.80818 164.116 9.46018C164.812 10.1122 165.116 10.938 165.116 11.8943V13.4591H161.465V12.8506V12.0682H160.682H152.728H151.989V12.8506V20.8049V21.5873H152.771H160.682H161.465V20.8049V19.0663H157.857V15.4151H165.116V21.7177C165.116 22.674 164.768 23.4564 164.116 24.1518C163.421 24.8038 162.638 25.1516 161.682 25.1516H151.859Z" fill="black"/>
<path d="M15.1613 22.7665C15.1613 22.7048 15.1613 22.6432 15.1613 22.5816C15.1613 22.4584 15.1613 22.3968 15.0997 22.2736V22.212C14.9765 21.4728 14.8533 20.7952 14.6068 20.1176C14.422 19.6248 14.2372 19.1319 14.0524 18.7007V18.6391C13.9908 18.5159 13.9292 18.3927 13.8676 18.2695C13.8676 18.2079 13.806 18.1463 13.806 18.0847C13.6828 17.8383 13.498 17.5303 13.3748 17.2839C13.3132 17.2223 13.2516 17.0991 13.19 17.0375C12.2044 15.4974 10.9723 14.2038 9.55548 13.2181C9.49388 13.1565 9.43228 13.1565 9.43228 13.0949C9.30908 12.9717 9.12427 12.9101 9.00107 12.7869L8.93947 12.7253C8.50825 12.4789 8.13864 12.2325 7.70743 12.0477C7.58422 11.9861 7.46102 11.9245 7.27621 11.8629C7.21461 11.8629 7.15301 11.8013 7.09141 11.8013C7.02981 11.8013 7.02981 11.7397 6.9682 11.7397H6.9066C6.845 11.7397 6.7834 11.6781 6.7218 11.6781C6.66019 11.6781 6.59859 11.6165 6.53699 11.6165C6.10578 11.4317 5.67456 11.3085 5.18175 11.1853C4.56573 11.0005 3.94971 10.8773 3.33369 10.8157H3.27209V10.8773C3.02568 11.4933 2.90248 12.0477 2.71767 12.6637C2.65607 12.9101 2.59447 13.0949 2.59447 13.3414L0.623204 13.711L0.5 16.2366L2.40966 16.7911C2.53286 18.2079 2.90248 19.6248 3.45689 20.9184L1.97845 22.2736L3.21049 24.4297L5.12015 23.8753C5.98257 25.0457 7.02981 26.0314 8.20024 26.8322L7.70743 28.8034L9.9251 29.9739L11.2803 28.4338C11.65 28.557 12.0812 28.6802 12.4508 28.8034C12.8204 28.9266 13.2516 28.9883 13.6212 29.0499C13.806 29.1115 14.0524 29.1115 14.2988 29.1731H14.3604V29.1115C14.6068 28.4954 14.7916 27.941 14.9149 27.325C14.9765 27.0786 15.0381 26.7706 15.0997 26.4626C15.1613 26.2162 15.1613 25.9698 15.2229 25.7233C15.2229 25.6617 15.2229 25.6001 15.2229 25.5385C15.2229 25.4769 15.2229 25.4153 15.2229 25.3537C15.2229 25.2921 15.2229 25.2305 15.2229 25.1689C15.2229 25.1073 15.2229 25.1073 15.2229 25.0457C15.2229 24.9841 15.2229 24.9841 15.2229 24.9225C15.2229 24.7377 15.2229 24.5529 15.2229 24.3065C15.2845 23.8137 15.2229 23.3209 15.1613 22.7665ZM13.2516 24.9841C13.2516 25.0457 13.2516 25.1073 13.2516 25.1689C13.2516 25.2305 13.2516 25.2921 13.2516 25.3537C13.2516 25.7233 13.19 26.0314 13.1284 26.401C13.0668 26.5858 13.0668 26.7706 13.0052 26.8938C7.89223 25.5385 4.31932 20.9184 4.31932 15.6206C4.31932 14.7582 4.44252 13.8958 4.62733 13.0949C5.05854 13.2182 5.48976 13.3414 5.92097 13.5262C5.98257 13.5262 6.04417 13.5878 6.10578 13.5878C6.22898 13.6494 6.29058 13.6494 6.41379 13.711C6.47539 13.711 6.53699 13.7726 6.59859 13.7726C6.845 13.8958 7.09141 14.019 7.33782 14.1422C7.64582 14.327 7.89223 14.4502 8.13864 14.635C8.38505 14.8198 8.63146 15.0046 8.87786 15.1894C8.93947 15.251 9.00107 15.251 9.06267 15.3126C9.12427 15.3742 9.18587 15.3742 9.18587 15.4358C9.24748 15.4974 9.30908 15.4974 9.37068 15.559C9.37068 15.559 9.37068 15.559 9.43228 15.6206C10.1715 16.2982 10.8491 17.0375 11.4035 17.8383C11.4651 17.8999 11.4651 17.9615 11.5267 18.0231C12.3276 19.2551 12.882 20.6104 13.19 22.0272C13.19 22.0888 13.2516 22.212 13.2516 22.2736C13.2516 22.3352 13.2516 22.3968 13.3132 22.4584C13.3132 22.52 13.3132 22.5816 13.3132 22.6432C13.3748 23.1977 13.4364 23.7521 13.4364 24.3065C13.3132 24.5529 13.2516 24.7993 13.2516 24.9841Z" fill="#9C0000"/>
<path d="M29.576 16.7907L31.424 16.2979L31.3008 13.7722L29.3912 13.4026C29.3296 13.1562 29.3296 12.9098 29.268 12.725C29.1448 12.109 28.96 11.493 28.7136 10.9386V10.877H28.652C28.0359 10.9386 27.4199 11.0618 26.8039 11.2466C26.3727 11.3698 25.8799 11.493 25.4486 11.6778C25.387 11.6778 25.387 11.6778 25.3254 11.7394C25.3254 11.7394 25.3254 11.7394 25.2638 11.7394H25.2022C25.1406 11.7394 25.1406 11.801 25.079 11.801C25.0174 11.801 24.9558 11.8626 24.8326 11.9242C24.771 11.9242 24.7094 11.9858 24.6478 11.9858C24.5246 12.0474 24.3398 12.109 24.2166 12.1706C24.155 12.1706 24.155 12.2322 24.0934 12.2322C23.539 12.4786 22.9846 12.8482 22.4918 13.1562C22.4302 13.2178 22.3686 13.2178 22.3686 13.2794C21.0133 14.2035 19.8429 15.4355 18.9188 16.7907C18.8572 16.9139 18.7956 16.9755 18.734 17.0987C18.6724 17.1603 18.6108 17.2836 18.5492 17.3452C18.426 17.5916 18.2412 17.838 18.118 18.146C18.0564 18.2076 18.0564 18.2692 18.0564 18.3308C17.9948 18.454 17.9332 18.5772 17.8716 18.762V18.8236V18.8852C17.3788 19.994 17.0092 21.1645 16.8244 22.3965C16.8244 22.5197 16.7628 22.6429 16.7628 22.7661C16.7628 22.8277 16.7628 22.8893 16.7628 22.9509C16.7012 23.4437 16.7012 23.9982 16.7012 24.491C16.7012 24.799 16.7012 25.0454 16.7012 25.3534C16.7012 25.415 16.7012 25.4766 16.7012 25.5382C16.7012 25.5998 16.7012 25.6614 16.7012 25.723C16.7012 25.7846 16.7012 25.8462 16.7012 25.9078C16.7012 26.1542 16.7628 26.4006 16.8244 26.647C16.886 26.9551 16.9476 27.2015 17.0092 27.5095C17.1324 28.1255 17.3172 28.7415 17.5636 29.2959V29.3575H17.6252C17.8716 29.3575 18.0564 29.2959 18.3028 29.2343C18.6724 29.1727 19.1036 29.1111 19.5349 28.9879C19.9045 28.8647 20.2741 28.7415 20.6437 28.6183L21.9989 30.1584L24.2166 28.9879L23.7238 27.0783C24.8942 26.2774 25.9415 25.2918 26.8655 24.1214L28.7752 24.6758L30.0072 22.5197L28.5903 21.1645C29.0832 19.6244 29.4528 18.2076 29.576 16.7907ZM18.9188 26.8935C18.8572 26.7087 18.8572 26.5238 18.7956 26.4006C18.734 26.0926 18.6724 25.723 18.6724 25.3534C18.6724 25.2918 18.6724 25.2302 18.6724 25.1686C18.6724 25.107 18.6724 25.0454 18.6724 24.9838C18.6724 24.7374 18.6724 24.5526 18.6724 24.3062C18.6724 23.7518 18.734 23.1973 18.7956 22.6429C18.7956 22.5813 18.7956 22.5197 18.7956 22.4581C18.7956 22.3965 18.7956 22.3349 18.8572 22.2733C19.1036 20.7333 19.7197 19.2548 20.5205 18.0228C20.5821 17.9612 20.5821 17.8996 20.6437 17.838C20.9517 17.4068 21.2597 17.0371 21.5677 16.6059C21.9989 16.1131 22.4302 15.6819 22.923 15.3123C22.9846 15.2507 23.0462 15.2507 23.1078 15.1891C23.7854 14.6963 24.5246 14.2035 25.2638 13.8338C25.3254 13.8338 25.387 13.7722 25.4486 13.7722C25.5103 13.7722 25.5719 13.7106 25.6335 13.7106C25.6335 13.7106 25.6951 13.7106 25.6951 13.649C25.7567 13.5874 25.8183 13.5874 25.8799 13.5874C25.9415 13.5874 26.0031 13.5258 26.0647 13.5258C26.4959 13.341 26.9271 13.2178 27.3583 13.0946C27.5431 13.957 27.6663 14.7579 27.6663 15.6203C27.6047 20.9181 24.0318 25.5382 18.9188 26.8935Z" fill="#9C0000"/>
<path d="M27.9126 9.09073C27.6046 8.53631 27.235 7.92029 26.8038 7.42748C26.1878 6.62665 25.4485 5.82582 24.6477 5.1482L25.2637 3.23854L23.1077 1.8833L21.6908 3.30015C20.3972 2.68413 19.0419 2.31452 17.6251 2.12971L17.1323 0.158447H14.6066L14.1138 2.12971C12.6969 2.31452 11.2801 2.68413 9.98644 3.36175L8.5696 1.9449L6.41353 3.30015L7.09115 5.20981C6.29033 5.88743 5.5511 6.62665 4.93509 7.42748C4.50387 7.98189 4.13426 8.53631 3.82625 9.09073L3.76465 9.21393H3.88785C4.50387 9.33714 5.11989 9.46034 5.73591 9.64515C6.16712 9.76835 6.59834 9.89155 7.02955 10.0764C7.09115 10.0764 7.15276 10.138 7.21436 10.138H7.27596C7.39916 10.1996 7.52237 10.2612 7.64557 10.3228C7.70717 10.3228 7.76877 10.3844 7.83038 10.3844C8.4464 10.6924 9.06242 11.0004 9.61683 11.37C9.67843 11.37 9.67843 11.4316 9.74004 11.4316C9.80164 11.4316 9.86324 11.4932 9.86324 11.5548C10.2945 11.8628 10.7257 12.1708 11.1569 12.4788C11.2185 12.5404 11.3417 12.602 11.4033 12.7252C12.0193 13.2181 12.5737 13.8341 13.0665 14.4501C13.1281 14.5117 13.1897 14.5733 13.2513 14.6349C13.7442 15.2509 14.237 15.9285 14.6066 16.6062C14.9146 17.099 15.161 17.6534 15.4074 18.1462C15.4074 18.2078 15.469 18.2694 15.469 18.331C15.5306 18.4542 15.5922 18.5774 15.6538 18.7622L15.7154 18.947L15.777 18.7622C15.8386 18.639 15.9002 18.5158 15.9618 18.331C15.9618 18.2694 16.0234 18.2078 16.0234 18.1462C16.2698 17.5918 16.5163 17.099 16.8243 16.6062C17.1939 15.9901 17.5635 15.4357 17.9947 14.8813C18.0563 14.8197 18.1179 14.6965 18.1795 14.6349C18.2411 14.5733 18.3027 14.5117 18.3643 14.4501C18.8571 13.8341 19.4731 13.2797 20.0276 12.7252C20.0892 12.6636 20.2124 12.602 20.274 12.4788C20.582 12.2324 20.9516 11.986 21.2596 11.7396C21.3828 11.678 21.4444 11.6164 21.5676 11.5548C21.6292 11.4932 21.6908 11.4932 21.6908 11.4316C22.122 11.1236 22.5532 10.8772 22.9845 10.6924C22.9845 10.6924 23.0461 10.6924 23.0461 10.6308C23.1077 10.6308 23.1077 10.5692 23.1693 10.5692C23.2925 10.5076 23.4773 10.446 23.6005 10.3844C23.6621 10.3844 23.7237 10.3228 23.7853 10.3228C23.9085 10.2612 24.0933 10.1996 24.2165 10.138C24.2781 10.138 24.2781 10.0764 24.3397 10.0764C24.3397 10.0764 24.3397 10.0764 24.4013 10.0764C24.8325 9.89155 25.2637 9.76835 25.6949 9.64515C26.311 9.46034 26.927 9.33714 27.543 9.21393H27.6662L27.9126 9.09073ZM23.4773 8.47471C23.4157 8.47471 23.4157 8.47471 23.4773 8.47471C23.3541 8.47471 23.3541 8.47471 23.2925 8.53631C23.1077 8.59791 22.9229 8.72112 22.7997 8.78272C22.738 8.78272 22.6764 8.84432 22.6148 8.84432C22.0604 9.09073 21.5676 9.39874 21.0132 9.70675C20.9516 9.70675 20.89 9.76835 20.89 9.82995C20.89 9.82995 20.8284 9.82995 20.8284 9.89155C20.8284 9.89155 20.8284 9.89155 20.7668 9.89155C20.0892 10.3228 19.4115 10.8156 18.7955 11.37C18.6107 11.5548 18.4259 11.678 18.2411 11.8628C18.1795 11.9244 18.1179 11.986 18.1179 11.986C17.8715 12.2324 17.6251 12.5404 17.3787 12.7868C17.3171 12.8484 17.2555 12.9101 17.1939 12.9717C16.7627 13.4645 16.3314 14.0189 15.9618 14.5733C15.5922 14.0189 15.161 13.4645 14.7298 12.9717C14.6682 12.9101 14.6066 12.8484 14.545 12.7868C14.2986 12.5404 14.0522 12.2324 13.8058 11.986C13.7442 11.9244 13.6826 11.8628 13.6826 11.8628C13.0665 11.3084 12.4505 10.754 11.7729 10.2612L11.7113 10.1996C11.6497 10.138 11.5881 10.138 11.5265 10.0764C11.4033 9.95315 11.2185 9.89155 11.0953 9.76835C11.0337 9.70675 10.9721 9.70675 10.9721 9.64515C10.4793 9.33714 9.92484 9.02913 9.37042 8.78272C9.30882 8.78272 9.24722 8.72112 9.18562 8.72112C9.00081 8.65952 8.87761 8.53631 8.6928 8.47471C8.6312 8.47471 8.5696 8.47471 8.508 8.47471C8.07678 8.2899 7.70717 8.1051 7.27596 7.98189C9.49363 5.45621 12.6969 4.03937 16.0234 4.03937C19.3499 4.03937 22.5532 5.45621 24.7709 7.98189C24.2781 8.1051 23.8469 8.2899 23.4773 8.47471Z" fill="#1090B0"/>
<path d="M18.7952 8.28974C18.7952 8.47455 18.7952 8.59775 18.7336 8.78256C18.7336 8.84416 18.7336 8.90576 18.672 8.96737V9.02897V9.09057C18.672 9.15217 18.672 9.15217 18.6104 9.21377C18.4872 9.58339 18.2408 9.953 17.9328 10.261C17.8712 10.3226 17.8096 10.3226 17.8096 10.3842C17.3168 10.8154 16.6392 11.0618 15.9615 11.0618C15.2839 11.0618 14.6063 10.8154 14.1135 10.3842C14.0519 10.3842 14.0519 10.3226 13.9903 10.3226C13.6823 10.0146 13.4359 9.64499 13.3127 9.15217C13.3127 9.09057 13.2511 9.02897 13.2511 8.96737V8.90576V8.84416C13.2511 8.78256 13.2511 8.78256 13.2511 8.72096C13.2511 8.59775 13.1895 8.41295 13.1895 8.22814C13.1895 8.16654 13.1895 8.10494 13.1895 8.10494C13.1895 7.98174 13.2511 7.85853 13.2511 7.67373C13.3127 7.48892 13.3127 7.36572 13.3743 7.24251C13.3743 7.24251 13.3743 7.24251 13.3743 7.18091C13.3743 7.11931 13.4359 7.11931 13.4359 7.05771C13.4359 7.05771 13.4359 7.0577 13.4359 6.9961C13.4359 6.9345 13.4975 6.8729 13.5591 6.8113C13.6207 6.7497 13.6207 6.68809 13.6823 6.62649C13.7439 6.56489 13.8055 6.50329 13.8671 6.44169L13.9287 6.38008C13.9903 6.31848 13.9903 6.31848 14.0519 6.25688C14.1135 6.19528 14.1751 6.13368 14.2367 6.07207L14.2983 6.01047C14.2983 6.01047 14.3599 6.01047 14.3599 5.94887C14.4215 5.88727 14.4831 5.88727 14.5447 5.82567C14.7295 5.70246 14.9143 5.64086 15.0991 5.57926C15.4071 5.51766 15.6535 5.45605 15.9615 5.45605C16.2695 5.45605 16.5776 5.51766 16.824 5.57926C17.0088 5.64086 17.1936 5.76407 17.3784 5.82567C17.5016 5.88727 17.5632 5.94887 17.6864 6.01047C17.9328 6.19528 18.1792 6.50329 18.364 6.7497C18.4256 6.8729 18.4872 6.9961 18.5488 7.11931C18.6104 7.30411 18.672 7.55052 18.7336 7.73533C18.7336 7.79693 18.7336 7.79693 18.7336 7.85853C18.7336 7.92013 18.7336 7.98174 18.7336 7.98174C18.7336 8.04334 18.7336 8.10494 18.7336 8.16654C18.7952 8.22814 18.7952 8.28974 18.7952 8.28974Z" fill="#1090B0"/>
</svg>
