<svg width="188" height="45" viewBox="0 0 188 45" fill="none" xmlns="http://www.w3.org/2000/svg">
<path d="M60.2542 32.7499V14.8149H74.5366C75.5668 14.8149 76.4097 15.1896 77.1589 15.892C77.9082 16.6412 78.236 17.4841 78.236 18.5143V23.1503C78.236 24.1336 77.8613 25.0234 77.1589 25.7726C76.4097 26.5219 75.5668 26.8496 74.5366 26.8496H74.3493L78.236 31.4388V32.7499H74.2556L69.2919 26.8028L64.1408 26.8496V32.7499H60.2542ZM64.9837 22.963H73.5532H74.3961V22.1201V19.4977V18.6548H73.5532H64.9837H64.1408V19.4977V22.1201V22.963H64.9837Z" fill="white"/>
<path d="M88.4443 32.7509V14.769H105.068V18.6557H92.3779V21.7932H102.586V25.6799H92.3779V28.8173H105.068V32.704H88.4443V32.7509Z" fill="white"/>
<path d="M115.089 32.7509V14.769H131.713V18.6557H119.023V21.7932H129.231V25.6799H119.023V28.8173H131.713V32.704H115.089V32.7509Z" fill="white"/>
<path d="M141.688 32.7509V14.769H145.668L155.736 26.7569V14.769H159.669V32.7509H155.689L145.574 20.7162V32.7509H141.688Z" fill="white"/>
<path d="M173.718 32.7509C172.687 32.7509 171.845 32.3762 171.095 31.6738C170.393 30.9714 170.018 30.0817 170.018 29.0515V18.4684C170.018 17.4382 170.393 16.5953 171.095 15.8461C171.798 15.1437 172.687 14.769 173.718 14.769H184.301C185.331 14.769 186.174 15.1437 186.923 15.8461C187.672 16.5485 188 17.4382 188 18.4684V20.1542H184.067V19.4986V18.6557H183.224H174.654H173.858V19.4986V28.0681V28.911H174.701H183.224H184.067V28.0681V26.195H180.18V22.2615H188V29.0515C188 30.0817 187.626 30.9246 186.923 31.6738C186.174 32.3762 185.331 32.7509 184.301 32.7509H173.718Z" fill="white"/>
<path d="M21.6518 33.9795C21.6518 33.8886 21.6518 33.7976 21.6518 33.7066C21.6518 33.5247 21.6518 33.4337 21.5609 33.2517V33.1608C21.3789 32.0691 21.197 31.0684 20.8331 30.0677C20.5601 29.3399 20.2872 28.6121 20.0143 27.9752V27.8843C19.9233 27.7023 19.8323 27.5204 19.7414 27.3384C19.7414 27.2475 19.6504 27.1565 19.6504 27.0655C19.4685 26.7016 19.1955 26.2467 19.0136 25.8828C18.9226 25.7919 18.8316 25.6099 18.7407 25.519C17.2851 23.2446 15.4656 21.3341 13.3732 19.8786C13.2822 19.7876 13.1912 19.7876 13.1912 19.6966C13.0093 19.5147 12.7364 19.4237 12.5544 19.2417L12.4634 19.1508C11.8266 18.7869 11.2808 18.423 10.644 18.15C10.462 18.0591 10.2801 17.9681 10.0071 17.8771C9.91617 17.8771 9.8252 17.7862 9.73423 17.7862C9.64325 17.7862 9.64325 17.6952 9.55228 17.6952H9.4613C9.37033 17.6952 9.27936 17.6042 9.18838 17.6042C9.09741 17.6042 9.00643 17.5132 8.91546 17.5132C8.27864 17.2403 7.64182 17.0584 6.91403 16.8764C6.00429 16.6035 5.09455 16.4215 4.18481 16.3306H4.09383V16.4215C3.72994 17.3313 3.54799 18.15 3.27507 19.0598C3.18409 19.4237 3.09312 19.6966 3.09312 20.0605L0.181948 20.6063L0 24.3363L2.8202 25.1551C3.00214 27.2475 3.54799 29.3399 4.36676 31.2503L2.18338 33.2517L4.00286 36.4358L6.82306 35.6171C8.09669 37.3456 9.64325 38.8012 11.3718 39.9838L10.644 42.895L13.919 44.6235L15.9205 42.3492C16.4663 42.5311 17.1031 42.7131 17.649 42.895C18.1948 43.0769 18.8316 43.1679 19.3775 43.2589C19.6504 43.3499 20.0143 43.3499 20.3782 43.4408H20.4692V43.3499C20.8331 42.4401 21.106 41.6214 21.2879 40.7116C21.3789 40.3477 21.4699 39.8929 21.5609 39.438C21.6518 39.0741 21.6518 38.7102 21.7428 38.3463C21.7428 38.2553 21.7428 38.1643 21.7428 38.0734C21.7428 37.9824 21.7428 37.8914 21.7428 37.8005C21.7428 37.7095 21.7428 37.6185 21.7428 37.5275C21.7428 37.4366 21.7428 37.4366 21.7428 37.3456C21.7428 37.2546 21.7428 37.2546 21.7428 37.1636C21.7428 36.8907 21.7428 36.6178 21.7428 36.2539C21.8338 35.5261 21.7428 34.7983 21.6518 33.9795ZM18.8316 37.2546C18.8316 37.3456 18.8316 37.4366 18.8316 37.5275C18.8316 37.6185 18.8316 37.7095 18.8316 37.8005C18.8316 38.3463 18.7407 38.8012 18.6497 39.347C18.5587 39.6199 18.5587 39.8929 18.4677 40.0748C10.9169 38.0734 5.64039 31.2503 5.64039 23.4265C5.64039 22.1529 5.82234 20.8793 6.09526 19.6966C6.73208 19.8786 7.3689 20.0605 8.00572 20.3334C8.09669 20.3334 8.18767 20.4244 8.27864 20.4244C8.46059 20.5154 8.55156 20.5154 8.73351 20.6063C8.82449 20.6063 8.91546 20.6973 9.00643 20.6973C9.37033 20.8793 9.73423 21.0612 10.0981 21.2432C10.553 21.5161 10.9169 21.698 11.2808 21.971C11.6447 22.2439 12.0086 22.5168 12.3725 22.7897C12.4634 22.8807 12.5544 22.8807 12.6454 22.9717C12.7364 23.0626 12.8273 23.0627 12.8273 23.1536C12.9183 23.2446 13.0093 23.2446 13.1003 23.3356C13.1003 23.3356 13.1003 23.3356 13.1912 23.4265C14.2829 24.4273 15.2836 25.5189 16.1024 26.7016C16.1934 26.7926 16.1934 26.8836 16.2844 26.9745C17.467 28.794 18.2858 30.7954 18.7407 32.8878C18.7407 32.9788 18.8316 33.1608 18.8316 33.2517C18.8316 33.3427 18.8316 33.4337 18.9226 33.5247C18.9226 33.6156 18.9226 33.7066 18.9226 33.7976C19.0136 34.6164 19.1046 35.4351 19.1046 36.2539C18.9226 36.6178 18.8316 36.9817 18.8316 37.2546Z" fill="white"/>
<path d="M42.9399 25.1544L45.6691 24.4266L45.4871 20.6967L42.6669 20.1508C42.576 19.7869 42.576 19.423 42.485 19.1501C42.303 18.2404 42.0301 17.3306 41.6662 16.5119V16.4209H41.5752C40.6655 16.5119 39.7558 16.6938 38.846 16.9667C38.2092 17.1487 37.4814 17.3306 36.8446 17.6036C36.7536 17.6036 36.7536 17.6036 36.6626 17.6945C36.6626 17.6945 36.6626 17.6945 36.5717 17.6945H36.4807C36.3897 17.6945 36.3897 17.7855 36.2987 17.7855C36.2078 17.7855 36.1168 17.8765 35.9349 17.9675C35.8439 17.9675 35.7529 18.0584 35.6619 18.0584C35.48 18.1494 35.2071 18.2404 35.0251 18.3314C34.9341 18.3314 34.9341 18.4223 34.8432 18.4223C34.0244 18.7862 33.2056 19.3321 32.4778 19.7869C32.3869 19.8779 32.2959 19.8779 32.2959 19.9689C30.2945 21.3335 28.5659 23.153 27.2013 25.1544C27.1104 25.3364 27.0194 25.4273 26.9284 25.6093C26.8374 25.7003 26.7465 25.8822 26.6555 25.9732C26.4735 26.3371 26.2006 26.701 26.0187 27.1558C25.9277 27.2468 25.9277 27.3378 25.9277 27.4288C25.8367 27.6107 25.7458 27.7927 25.6548 28.0656V28.1566V28.2475C24.927 29.8851 24.3811 31.6136 24.1082 33.433C24.1082 33.615 24.0172 33.7969 24.0172 33.9789C24.0172 34.0699 24.0172 34.1608 24.0172 34.2518C23.9263 34.9796 23.9263 35.7984 23.9263 36.5262C23.9263 36.981 23.9263 37.3449 23.9263 37.7998C23.9263 37.8908 23.9263 37.9817 23.9263 38.0727C23.9263 38.1637 23.9263 38.2547 23.9263 38.3456C23.9263 38.4366 23.9263 38.5276 23.9263 38.6186C23.9263 38.9825 24.0172 39.3464 24.1082 39.7103C24.1992 40.1651 24.2902 40.529 24.3811 40.9839C24.5631 41.8936 24.836 42.8034 25.1999 43.6221V43.7131H25.2909C25.6548 43.7131 25.9277 43.6221 26.2916 43.5312C26.8374 43.4402 27.4743 43.3492 28.1111 43.1673C28.6569 42.9853 29.2028 42.8034 29.7486 42.6214L31.75 44.8958L35.0251 43.1673L34.2973 40.3471C36.0258 39.1644 37.5724 37.7088 38.937 35.9803L41.7572 36.7991L43.5767 33.615L41.4843 31.6136C42.2121 29.3392 42.7579 27.2468 42.9399 25.1544ZM27.2013 40.0742C27.1104 39.8012 27.1104 39.5283 27.0194 39.3464C26.9284 38.8915 26.8374 38.3456 26.8374 37.7998C26.8374 37.7088 26.8374 37.6179 26.8374 37.5269C26.8374 37.4359 26.8374 37.3449 26.8374 37.254C26.8374 36.8901 26.8374 36.6171 26.8374 36.2532C26.8374 35.4345 26.9284 34.6157 27.0194 33.7969C27.0194 33.706 27.0194 33.615 27.0194 33.524C27.0194 33.433 27.0194 33.3421 27.1104 33.2511C27.4743 30.9767 28.384 28.7934 29.5667 26.9739C29.6576 26.8829 29.6576 26.7919 29.7486 26.701C30.2035 26.0641 30.6584 25.5183 31.1132 24.8815C31.75 24.1537 32.3869 23.5169 33.1147 22.971C33.2056 22.8801 33.2966 22.8801 33.3876 22.7891C34.3883 22.0613 35.48 21.3335 36.5717 20.7876C36.6626 20.7876 36.7536 20.6967 36.8446 20.6967C36.9356 20.6967 37.0265 20.6057 37.1175 20.6057C37.1175 20.6057 37.2085 20.6057 37.2085 20.5147C37.2995 20.4238 37.3904 20.4238 37.4814 20.4238C37.5724 20.4238 37.6634 20.3328 37.7543 20.3328C38.3912 20.0599 39.028 19.8779 39.6648 19.696C39.9377 20.9696 40.1197 22.1523 40.1197 23.4259C40.0287 31.2497 34.7522 38.0727 27.2013 40.0742Z" fill="white"/>
<path d="M40.4836 13.783C40.0288 12.9643 39.4829 12.0545 38.8461 11.3267C37.9363 10.1441 36.8447 8.96141 35.662 7.9607L36.5717 5.1405L33.3876 3.13907L31.2952 5.23147C29.3848 4.32173 27.3834 3.77589 25.2909 3.50297L24.5632 0.591797H20.8332L20.1054 3.50297C18.013 3.77589 15.9206 4.32173 14.0102 5.32245L11.9178 3.23005L8.73366 5.23147L9.73438 8.05167C8.55171 9.05239 7.46003 10.1441 6.55028 11.3267C5.91347 12.1455 5.36762 12.9643 4.91275 13.783L4.82178 13.965H5.00373C5.91347 14.1469 6.82321 14.3289 7.73295 14.6018C8.36977 14.7838 9.00659 14.9657 9.6434 15.2386C9.73438 15.2386 9.82535 15.3296 9.91633 15.3296H10.0073C10.1892 15.4206 10.3712 15.5115 10.5531 15.6025C10.6441 15.6025 10.7351 15.6935 10.8261 15.6935C11.7358 16.1484 12.6455 16.6032 13.4643 17.1491C13.5553 17.1491 13.5553 17.2401 13.6463 17.2401C13.7372 17.2401 13.8282 17.331 13.8282 17.422C14.465 17.8769 15.1018 18.3317 15.7387 18.7866C15.8296 18.8776 16.0116 18.9686 16.1026 19.1505C17.0123 19.8783 17.8311 20.788 18.5589 21.6978C18.6498 21.7888 18.7408 21.8797 18.8318 21.9707C19.5596 22.8804 20.2874 23.8812 20.8332 24.8819C21.2881 25.6097 21.652 26.4284 22.0159 27.1562C22.0159 27.2472 22.1069 27.3382 22.1069 27.4291C22.1978 27.6111 22.2888 27.793 22.3798 28.066L22.4708 28.3389L22.5617 28.066C22.6527 27.884 22.7437 27.7021 22.8346 27.4291C22.8346 27.3382 22.9256 27.2472 22.9256 27.1562C23.2895 26.3375 23.6534 25.6097 24.1083 24.8819C24.6541 23.9721 25.2 23.1534 25.8368 22.3346C25.9278 22.2436 26.0187 22.0617 26.1097 21.9707C26.2007 21.8797 26.2917 21.7888 26.3826 21.6978C27.1104 20.788 28.0202 19.9693 28.8389 19.1505C28.9299 19.0595 29.1119 18.9686 29.2028 18.7866C29.6577 18.4227 30.2035 18.0588 30.6584 17.6949C30.8404 17.6039 30.9313 17.513 31.1133 17.422C31.2043 17.331 31.2952 17.331 31.2952 17.2401C31.9321 16.7852 32.5689 16.4213 33.2057 16.1484C33.2057 16.1484 33.2967 16.1484 33.2967 16.0574C33.3876 16.0574 33.3876 15.9664 33.4786 15.9664C33.6606 15.8754 33.9335 15.7845 34.1154 15.6935C34.2064 15.6935 34.2974 15.6025 34.3884 15.6025C34.5703 15.5115 34.8432 15.4206 35.0252 15.3296C35.1161 15.3296 35.1161 15.2386 35.2071 15.2386C35.2071 15.2386 35.2071 15.2386 35.2981 15.2386C35.9349 14.9657 36.5717 14.7838 37.2086 14.6018C38.1183 14.3289 39.028 14.1469 39.9378 13.965H40.1197L40.4836 13.783ZM33.9335 12.8733C33.8425 12.8733 33.8425 12.8733 33.9335 12.8733C33.7515 12.8733 33.7515 12.8733 33.6606 12.9643C33.3876 13.0552 33.1147 13.2372 32.9328 13.3282C32.8418 13.3282 32.7508 13.4191 32.6598 13.4191C31.8411 13.783 31.1133 14.2379 30.2945 14.6928C30.2035 14.6928 30.1126 14.7838 30.1126 14.8747C30.1126 14.8747 30.0216 14.8747 30.0216 14.9657C30.0216 14.9657 30.0216 14.9657 29.9306 14.9657C28.9299 15.6025 27.9292 16.3303 27.0195 17.1491C26.7465 17.422 26.4736 17.6039 26.2007 17.8769C26.1097 17.9678 26.0187 18.0588 26.0187 18.0588C25.6548 18.4227 25.2909 18.8776 24.927 19.2415C24.8361 19.3325 24.7451 19.4234 24.6541 19.5144C24.0173 20.2422 23.3805 21.061 22.8346 21.8797C22.2888 21.061 21.652 20.2422 21.0152 19.5144C20.9242 19.4234 20.8332 19.3325 20.7422 19.2415C20.3783 18.8776 20.0144 18.4227 19.6506 18.0588C19.5596 17.9678 19.4686 17.8769 19.4686 17.8769C18.5589 17.0581 17.6491 16.2393 16.6484 15.5115L16.5574 15.4206C16.4665 15.3296 16.3755 15.3296 16.2845 15.2386C16.1026 15.0567 15.8296 14.9657 15.6477 14.7838C15.5567 14.6928 15.4657 14.6928 15.4657 14.6018C14.738 14.1469 13.9192 13.6921 13.1004 13.3282C13.0094 13.3282 12.9185 13.2372 12.8275 13.2372C12.5546 13.1462 12.3726 12.9643 12.0997 12.8733C12.0087 12.8733 11.9178 12.8733 11.8268 12.8733C11.19 12.6004 10.6441 12.3275 10.0073 12.1455C13.2824 8.41557 18.013 6.32316 22.9256 6.32316C27.8382 6.32316 32.5689 8.41557 35.8439 12.1455C35.1161 12.3275 34.4793 12.6004 33.9335 12.8733Z" fill="white"/>
<path d="M27.0184 12.6003C27.0184 12.8733 27.0184 13.0552 26.9274 13.3281C26.9274 13.4191 26.9274 13.5101 26.8364 13.6011V13.692V13.783C26.8364 13.874 26.8364 13.874 26.7455 13.9649C26.5635 14.5108 26.1996 15.0566 25.7447 15.5115C25.6538 15.6025 25.5628 15.6025 25.5628 15.6935C24.835 16.3303 23.8343 16.6942 22.8336 16.6942C21.8329 16.6942 20.8321 16.3303 20.1044 15.6935C20.0134 15.6935 20.0134 15.6025 19.9224 15.6025C19.4675 15.1476 19.1036 14.6018 18.9217 13.874C18.9217 13.783 18.8307 13.692 18.8307 13.6011V13.5101V13.4191C18.8307 13.3281 18.8307 13.3281 18.8307 13.2372C18.8307 13.0552 18.7397 12.7823 18.7397 12.5094C18.7397 12.4184 18.7397 12.3274 18.7397 12.3274C18.7397 12.1455 18.8307 11.9635 18.8307 11.6906C18.9217 11.4177 18.9217 11.2357 19.0127 11.0538C19.0127 11.0538 19.0127 11.0538 19.0127 10.9628C19.0127 10.8718 19.1036 10.8718 19.1036 10.7809C19.1036 10.7809 19.1036 10.7809 19.1036 10.6899C19.1036 10.5989 19.1946 10.5079 19.2856 10.417C19.3766 10.326 19.3766 10.235 19.4675 10.144C19.5585 10.0531 19.6495 9.96209 19.7405 9.87111L19.8314 9.78014C19.9224 9.68916 19.9224 9.68917 20.0134 9.59819C20.1044 9.50722 20.1953 9.41624 20.2863 9.32527L20.3773 9.2343C20.3773 9.2343 20.4683 9.2343 20.4683 9.14332C20.5592 9.05235 20.6502 9.05235 20.7412 8.96137C21.0141 8.77943 21.287 8.68845 21.5599 8.59748C22.0148 8.5065 22.3787 8.41553 22.8336 8.41553C23.2885 8.41553 23.7433 8.5065 24.1072 8.59748C24.3801 8.68845 24.6531 8.8704 24.926 8.96137C25.1079 9.05235 25.1989 9.14332 25.3809 9.2343C25.7447 9.50722 26.1086 9.96209 26.3816 10.326C26.4725 10.5079 26.5635 10.6899 26.6545 10.8718C26.7455 11.1448 26.8364 11.5086 26.9274 11.7816C26.9274 11.8725 26.9274 11.8725 26.9274 11.9635C26.9274 12.0545 26.9274 12.1455 26.9274 12.1455C26.9274 12.2364 26.9274 12.3274 26.9274 12.4184C27.0184 12.5094 27.0184 12.6003 27.0184 12.6003Z" fill="white"/>
</svg>
