<svg width="253" height="72" viewBox="0 0 253 72" fill="none" xmlns="http://www.w3.org/2000/svg">
<path d="M61 35.8209V11.0652H80.7141C82.1361 11.0652 83.2996 11.5823 84.3337 12.5518C85.3679 13.586 85.8204 14.7495 85.8204 16.1715V22.5705C85.8204 23.9278 85.3033 25.1559 84.3337 26.1901C83.2996 27.2243 82.1361 27.6767 80.7141 27.6767H80.4556L85.8204 34.0111V35.8209H80.3263L73.4748 27.6121L66.3648 27.6767V35.8209H61ZM67.5283 22.3119H79.3567H80.5202V21.1485V17.5288V16.3654H79.3567H67.5283H66.3648V17.5288V21.1485V22.3119H67.5283Z" fill="black"/>
<path d="M99.9114 35.8204V11H122.857V16.3648H105.341V20.6955H119.432V26.0603H105.341V30.3909H122.857V35.7557H99.9114V35.8204Z" fill="black"/>
<path d="M136.689 35.8204V11H159.635V16.3648H142.119V20.6955H156.209V26.0603H142.119V30.3909H159.635V35.7557H136.689V35.8204Z" fill="black"/>
<path d="M173.403 35.8204V11H178.897L192.794 27.5469V11H198.223V35.8204H192.729L178.767 19.2088V35.8204H173.403Z" fill="black"/>
<path d="M217.614 35.8204C216.192 35.8204 215.028 35.3033 213.994 34.3337C213.025 33.3642 212.508 32.1361 212.508 30.7141V16.1063C212.508 14.6843 213.025 13.5208 213.994 12.4866C214.964 11.5171 216.192 11 217.614 11H232.222C233.644 11 234.807 11.5171 235.841 12.4866C236.875 13.4562 237.328 14.6843 237.328 16.1063V18.4332H231.898V17.5283V16.3648H230.735H218.907H217.808V17.5283V29.3567V30.5202H218.971H230.735H231.898V29.3567V26.7713H226.534V21.3418H237.328V30.7141C237.328 32.1361 236.811 33.2996 235.841 34.3337C234.807 35.3033 233.644 35.8204 232.222 35.8204H217.614Z" fill="black"/>
<path d="M21.8019 33.6192C21.8019 33.5276 21.8019 33.436 21.8019 33.3444C21.8019 33.1612 21.8019 33.0696 21.7103 32.8864V32.7948C21.5271 31.6955 21.3439 30.6878 20.9774 29.6802C20.7026 28.9474 20.4278 28.2145 20.153 27.5733V27.4817C20.0614 27.2985 19.9698 27.1153 19.8782 26.9321C19.8782 26.8405 19.7866 26.7488 19.7866 26.6572C19.6034 26.2908 19.3286 25.8328 19.1454 25.4664C19.0538 25.3748 18.9621 25.1916 18.8705 25.1C17.4049 22.8099 15.5728 20.8862 13.4659 19.4205C13.3743 19.3289 13.2827 19.3289 13.2827 19.2373C13.0995 19.0541 12.8246 18.9625 12.6414 18.7792L12.5498 18.6876C11.9086 18.3212 11.359 17.9548 10.7177 17.68C10.5345 17.5884 10.3513 17.4968 10.0765 17.4052C9.9849 17.4052 9.8933 17.3136 9.80169 17.3136C9.71009 17.3136 9.71009 17.222 9.61848 17.222H9.52688C9.43527 17.222 9.34367 17.1304 9.25206 17.1304C9.16046 17.1304 9.06885 17.0388 8.97725 17.0388C8.33602 16.7639 7.69479 16.5807 6.96195 16.3975C6.0459 16.1227 5.12986 15.9395 4.21381 15.8479H4.12221V15.9395C3.75579 16.8556 3.57258 17.68 3.29777 18.596C3.20616 18.9625 3.11456 19.2373 3.11456 19.6037L0.183209 20.1533L0 23.9091L2.83974 24.7335C3.02295 26.8405 3.57258 28.9474 4.39702 30.8711L2.19851 32.8864L4.0306 36.0925L6.87034 35.2681C8.15281 37.0086 9.71009 38.4742 11.4506 39.6651L10.7177 42.5964L14.0155 44.3369L16.0308 42.0468C16.5804 42.23 17.2217 42.4132 17.7713 42.5964C18.3209 42.7797 18.9621 42.8713 19.5118 42.9629C19.7866 43.0545 20.153 43.0545 20.5194 43.1461H20.611V43.0545C20.9774 42.1384 21.2523 41.314 21.4355 40.3979C21.5271 40.0315 21.6187 39.5735 21.7103 39.1155C21.8019 38.749 21.8019 38.3826 21.8935 38.0162C21.8935 37.9246 21.8935 37.833 21.8935 37.7414C21.8935 37.6498 21.8935 37.5582 21.8935 37.4666C21.8935 37.375 21.8935 37.2834 21.8935 37.1918C21.8935 37.1002 21.8935 37.1002 21.8935 37.0086C21.8935 36.917 21.8935 36.917 21.8935 36.8254C21.8935 36.5505 21.8935 36.2757 21.8935 35.9093C21.9851 35.1765 21.8935 34.4436 21.8019 33.6192ZM18.9622 36.917C18.9622 37.0086 18.9622 37.1002 18.9622 37.1918C18.9622 37.2834 18.9622 37.375 18.9622 37.4666C18.9622 38.0162 18.8705 38.4742 18.7789 39.0239C18.6873 39.2987 18.6873 39.5735 18.5957 39.7567C10.9925 37.7414 5.67948 30.8711 5.67948 22.9931C5.67948 21.7106 5.86269 20.4281 6.13751 19.2373C6.77874 19.4205 7.41997 19.6037 8.0612 19.8785C8.15281 19.8785 8.24441 19.9701 8.33602 19.9701C8.51923 20.0617 8.61083 20.0617 8.79404 20.1533C8.88564 20.1533 8.97725 20.2449 9.06885 20.2449C9.43527 20.4281 9.80169 20.6113 10.1681 20.7945C10.6261 21.0694 10.9925 21.2526 11.359 21.5274C11.7254 21.8022 12.0918 22.077 12.4582 22.3518C12.5498 22.4434 12.6414 22.4434 12.733 22.535C12.8246 22.6266 12.9162 22.6266 12.9162 22.7182C13.0079 22.8099 13.0995 22.8099 13.1911 22.9015C13.1911 22.9015 13.1911 22.9015 13.2827 22.9931C14.3819 24.0007 15.3896 25.1 16.214 26.2908C16.3056 26.3824 16.3056 26.474 16.3972 26.5656C17.5881 28.3977 18.4125 30.413 18.8705 32.5199C18.8705 32.6115 18.9622 32.7948 18.9622 32.8864C18.9622 32.978 18.9621 33.0696 19.0538 33.1612C19.0538 33.2528 19.0538 33.3444 19.0538 33.436C19.1454 34.2604 19.237 35.0849 19.237 35.9093C19.0538 36.2757 18.9622 36.6421 18.9622 36.917Z" fill="#9C0000"/>
<path d="M43.2374 24.7332L45.9855 24.0004L45.8023 20.2446L42.9626 19.695C42.871 19.3286 42.871 18.9622 42.7794 18.6873C42.5962 17.7713 42.3214 16.8553 41.9549 16.0308V15.9392H41.8633C40.9473 16.0308 40.0312 16.214 39.1152 16.4888C38.474 16.672 37.7411 16.8553 37.0999 17.1301C37.0083 17.1301 37.0083 17.1301 36.9167 17.2217C36.9167 17.2217 36.9167 17.2217 36.8251 17.2217H36.7335C36.6419 17.2217 36.6419 17.3133 36.5503 17.3133C36.4587 17.3133 36.3671 17.4049 36.1839 17.4965C36.0922 17.4965 36.0006 17.5881 35.909 17.5881C35.7258 17.6797 35.451 17.7713 35.2678 17.8629C35.1762 17.8629 35.1762 17.9545 35.0846 17.9545C34.2602 18.3209 33.4357 18.8706 32.7029 19.3286C32.6113 19.4202 32.5197 19.4202 32.5197 19.5118C30.5044 20.8859 28.7639 22.7179 27.3898 24.7332C27.2982 24.9165 27.2066 25.0081 27.115 25.1913C27.0234 25.2829 26.9318 25.4661 26.8402 25.5577C26.657 25.9241 26.3822 26.2905 26.1989 26.7485C26.1073 26.8401 26.1073 26.9318 26.1073 27.0234C26.0157 27.2066 25.9241 27.3898 25.8325 27.6646V27.7562V27.8478C25.0997 29.4967 24.5501 31.2372 24.2753 33.0693C24.2753 33.2525 24.1836 33.4357 24.1836 33.6189C24.1836 33.7105 24.1836 33.8021 24.1836 33.8937C24.092 34.6265 24.092 35.451 24.092 36.1838C24.092 36.6418 24.092 37.0083 24.092 37.4663C24.092 37.5579 24.092 37.6495 24.092 37.7411C24.092 37.8327 24.092 37.9243 24.092 38.0159C24.092 38.1075 24.092 38.1991 24.092 38.2907C24.092 38.6571 24.1836 39.0236 24.2753 39.39C24.3669 39.848 24.4585 40.2144 24.5501 40.6724C24.7333 41.5885 25.0081 42.5045 25.3745 43.329V43.4206H25.4661C25.8325 43.4206 26.1073 43.329 26.4738 43.2374C27.0234 43.1458 27.6646 43.0542 28.3059 42.871C28.8555 42.6877 29.4051 42.5045 29.9547 42.3213L31.97 44.6114L35.2678 42.871L34.535 40.0312C36.2755 38.8403 37.8327 37.3747 39.2068 35.6342L42.0465 36.4586L43.8786 33.2525L41.7717 31.2372C42.5046 28.9471 43.0542 26.8402 43.2374 24.7332ZM27.3898 39.7564C27.2982 39.4816 27.2982 39.2068 27.2066 39.0236C27.115 38.5655 27.0234 38.0159 27.0234 37.4663C27.0234 37.3747 27.0234 37.2831 27.0234 37.1915C27.0234 37.0999 27.0234 37.0083 27.0234 36.9167C27.0234 36.5502 27.0234 36.2754 27.0234 35.909C27.0234 35.0846 27.115 34.2601 27.2066 33.4357C27.2066 33.3441 27.2066 33.2525 27.2066 33.1609C27.2066 33.0693 27.2066 32.9777 27.2982 32.8861C27.6646 30.5959 28.5807 28.3974 29.7715 26.5653C29.8631 26.4737 29.8631 26.3821 29.9547 26.2905C30.4128 25.6493 30.8708 25.0997 31.3288 24.4584C31.97 23.7256 32.6113 23.0844 33.3441 22.5347C33.4357 22.4431 33.5273 22.4431 33.6189 22.3515C34.6266 21.6187 35.7258 20.8859 36.8251 20.3362C36.9167 20.3362 37.0083 20.2446 37.0999 20.2446C37.1915 20.2446 37.2831 20.153 37.3747 20.153C37.3747 20.153 37.4663 20.153 37.4663 20.0614C37.5579 19.9698 37.6495 19.9698 37.7411 19.9698C37.8327 19.9698 37.9243 19.8782 38.0159 19.8782C38.6572 19.6034 39.2984 19.4202 39.9396 19.237C40.2145 20.5194 40.3977 21.7103 40.3977 22.9928C40.3061 30.8708 34.993 37.7411 27.3898 39.7564Z" fill="#9C0000"/>
<path d="M40.764 13.2827C40.306 12.4582 39.7563 11.5422 39.1151 10.8093C38.1991 9.61848 37.0998 8.42762 35.9089 7.41997L36.825 4.58023L33.6188 2.56493L31.5119 4.67183C29.5882 3.75579 27.5729 3.20616 25.466 2.93135L24.7332 0H20.9774L20.2446 2.93135C18.1376 3.20616 16.0307 3.75579 14.107 4.76344L12.0001 2.65653L8.79398 4.67183L9.80163 7.51158C8.61077 8.51923 7.51151 9.61848 6.59547 10.8093C5.95424 11.6338 5.40461 12.4582 4.94658 13.2827L4.85498 13.4659H5.03819C5.95424 13.6491 6.87028 13.8323 7.78633 14.1071C8.42756 14.2903 9.06879 14.4735 9.71002 14.7483C9.80163 14.7483 9.89323 14.8399 9.98484 14.8399H10.0764C10.2597 14.9316 10.4429 15.0232 10.6261 15.1148C10.7177 15.1148 10.8093 15.2064 10.9009 15.2064C11.8169 15.6644 12.733 16.1224 13.5574 16.672C13.649 16.672 13.649 16.7636 13.7406 16.7636C13.8322 16.7636 13.9238 16.8552 13.9238 16.9468C14.5651 17.4049 15.2063 17.8629 15.8475 18.3209C15.9391 18.4125 16.1223 18.5041 16.214 18.6873C17.13 19.4202 17.9544 20.3362 18.6873 21.2523C18.7789 21.3439 18.8705 21.4355 18.9621 21.5271C19.6949 22.4431 20.4278 23.4508 20.9774 24.4584C21.4354 25.1913 21.8018 26.0157 22.1683 26.7485C22.1683 26.8401 22.2599 26.9318 22.2599 27.0234C22.3515 27.2066 22.4431 27.3898 22.5347 27.6646L22.6263 27.9394L22.7179 27.6646C22.8095 27.4814 22.9011 27.2982 22.9927 27.0234C22.9927 26.9318 23.0843 26.8401 23.0843 26.7485C23.4507 25.9241 23.8171 25.1913 24.2752 24.4584C24.8248 23.5424 25.3744 22.7179 26.0156 21.8935C26.1072 21.8019 26.1989 21.6187 26.2905 21.5271C26.3821 21.4355 26.4737 21.3439 26.5653 21.2523C27.2981 20.3362 28.2142 19.5118 29.0386 18.6873C29.1302 18.5957 29.3134 18.5041 29.405 18.3209C29.863 17.9545 30.4127 17.5881 30.8707 17.2217C31.0539 17.1301 31.1455 17.0385 31.3287 16.9468C31.4203 16.8552 31.5119 16.8552 31.5119 16.7636C32.1532 16.3056 32.7944 15.9392 33.4356 15.6644C33.4356 15.6644 33.5272 15.6644 33.5272 15.5728C33.6188 15.5728 33.6188 15.4812 33.7104 15.4812C33.8936 15.3896 34.1685 15.298 34.3517 15.2064C34.4433 15.2064 34.5349 15.1148 34.6265 15.1148C34.8097 15.0232 35.0845 14.9316 35.2677 14.8399C35.3593 14.8399 35.3593 14.7483 35.4509 14.7483C35.4509 14.7483 35.4509 14.7483 35.5425 14.7483C36.1838 14.4735 36.825 14.2903 37.4662 14.1071C38.3823 13.8323 39.2983 13.6491 40.2144 13.4659H40.3976L40.764 13.2827ZM34.1685 12.3666C34.0768 12.3666 34.0768 12.3666 34.1685 12.3666C33.9852 12.3666 33.9852 12.3666 33.8936 12.4582C33.6188 12.5498 33.344 12.733 33.1608 12.8246C33.0692 12.8246 32.9776 12.9162 32.886 12.9162C32.0616 13.2827 31.3287 13.7407 30.5043 14.1987C30.4127 14.1987 30.3211 14.2903 30.3211 14.3819C30.3211 14.3819 30.2295 14.3819 30.2295 14.4735C30.2295 14.4735 30.2295 14.4735 30.1379 14.4735C29.1302 15.1148 28.1226 15.8476 27.2065 16.672C26.9317 16.9469 26.6569 17.1301 26.3821 17.4049C26.2905 17.4965 26.1989 17.5881 26.1989 17.5881C25.8324 17.9545 25.466 18.4125 25.0996 18.7789C25.008 18.8705 24.9164 18.9622 24.8248 19.0538C24.1836 19.7866 23.5423 20.611 22.9927 21.4355C22.4431 20.611 21.8018 19.7866 21.1606 19.0538C21.069 18.9622 20.9774 18.8705 20.8858 18.7789C20.5194 18.4125 20.1529 17.9545 19.7865 17.5881C19.6949 17.4965 19.6033 17.4049 19.6033 17.4049C18.6873 16.5804 17.7712 15.756 16.7636 15.0232L16.672 14.9315C16.5804 14.8399 16.4888 14.8399 16.3972 14.7483C16.214 14.5651 15.9391 14.4735 15.7559 14.2903C15.6643 14.1987 15.5727 14.1987 15.5727 14.1071C14.8399 13.6491 14.0154 13.1911 13.191 12.8246C13.0994 12.8246 13.0078 12.733 12.9162 12.733C12.6414 12.6414 12.4582 12.4582 12.1833 12.3666C12.0917 12.3666 12.0001 12.3666 11.9085 12.3666C11.2673 12.0918 10.7177 11.817 10.0764 11.6338C13.3742 7.878 18.1376 5.77109 23.0843 5.77109C28.0309 5.77109 32.7944 7.878 36.0922 11.6338C35.3593 11.817 34.7181 12.0918 34.1685 12.3666Z" fill="#1090B0"/>
<path d="M27.2054 12.092C27.2054 12.3668 27.2054 12.55 27.1138 12.8248C27.1138 12.9164 27.1138 13.008 27.0222 13.0996V13.1912V13.2828C27.0222 13.3745 27.0222 13.3745 26.9306 13.4661C26.7474 14.0157 26.381 14.5653 25.9229 15.0233C25.8313 15.1149 25.7397 15.1149 25.7397 15.2065C25.0069 15.8478 23.9992 16.2142 22.9916 16.2142C21.9839 16.2142 20.9763 15.8478 20.2435 15.2065C20.1518 15.2065 20.1518 15.1149 20.0602 15.1149C19.6022 14.6569 19.2358 14.1073 19.0526 13.3744C19.0526 13.2828 18.961 13.1912 18.961 13.0996V13.008V12.9164C18.961 12.8248 18.961 12.8248 18.961 12.7332C18.961 12.55 18.8694 12.2752 18.8694 12.0004C18.8694 11.9088 18.8694 11.8172 18.8694 11.8172C18.8694 11.634 18.961 11.4508 18.961 11.1759C19.0526 10.9011 19.0526 10.7179 19.1442 10.5347C19.1442 10.5347 19.1442 10.5347 19.1442 10.4431C19.1442 10.3515 19.2358 10.3515 19.2358 10.2599C19.2358 10.2599 19.2358 10.2599 19.2358 10.1683C19.2358 10.0767 19.3274 9.98508 19.419 9.89348C19.5106 9.80187 19.5106 9.71027 19.6022 9.61866C19.6938 9.52706 19.7854 9.43545 19.877 9.34385L19.9686 9.25224C20.0602 9.16064 20.0602 9.16064 20.1518 9.06904C20.2435 8.97743 20.3351 8.88582 20.4267 8.79422L20.5183 8.70262C20.5183 8.70262 20.6099 8.70262 20.6099 8.61101C20.7015 8.51941 20.7931 8.51941 20.8847 8.4278C21.1595 8.24459 21.4343 8.15299 21.7091 8.06138C22.1672 7.96978 22.5336 7.87817 22.9916 7.87817C23.4496 7.87817 23.9076 7.96978 24.2741 8.06138C24.5489 8.15299 24.8237 8.3362 25.0985 8.4278C25.2817 8.51941 25.3733 8.61101 25.5565 8.70262C25.9229 8.97743 26.2894 9.43545 26.5642 9.80187C26.6558 9.98508 26.7474 10.1683 26.839 10.3515C26.9306 10.6263 27.0222 10.9927 27.1138 11.2675C27.1138 11.3591 27.1138 11.3591 27.1138 11.4508C27.1138 11.5424 27.1138 11.634 27.1138 11.634C27.1138 11.7256 27.1138 11.8172 27.1138 11.9088C27.2054 12.0004 27.2054 12.092 27.2054 12.092Z" fill="#1090B0"/>
<path d="M9.34222 69.2166H7.91896V62.1454H4.29868V69.2166H2.87542V60.9933H9.34222V69.2166ZM12.4994 66.1611V69.2166H11.0705V60.9933H14.2163C15.135 60.9933 15.8636 61.2324 16.402 61.7105C16.9442 62.1887 17.2153 62.8213 17.2153 63.6082C17.2153 64.414 16.9499 65.0409 16.419 65.489C15.8919 65.937 15.152 66.1611 14.1994 66.1611H12.4994ZM12.4994 65.0145H14.2163C14.7246 65.0145 15.1125 64.8959 15.3798 64.6587C15.6471 64.4178 15.7808 64.0714 15.7808 63.6195C15.7808 63.1752 15.6452 62.8213 15.3741 62.5577C15.103 62.2904 14.7303 62.153 14.2559 62.1454H12.4994V65.0145ZM22.0669 67.3019H18.8815L18.215 69.2166H16.7296L19.8359 60.9933H21.118L24.23 69.2166H22.7389L22.0669 67.3019ZM19.2825 66.1498H21.6659L20.4742 62.7385L19.2825 66.1498ZM25.1675 69.2166V60.9933H27.9858C28.9158 60.9933 29.6237 61.1796 30.1094 61.5524C30.5951 61.9252 30.838 62.4805 30.838 63.2185C30.838 63.595 30.7363 63.9339 30.533 64.2351C30.3297 64.5364 30.0322 64.7698 29.6406 64.9355C30.0849 65.056 30.4276 65.2838 30.6685 65.6189C30.9133 65.9502 31.0357 66.3493 31.0357 66.8162C31.0357 67.5881 30.7871 68.1811 30.2901 68.5953C29.7969 69.0095 29.089 69.2166 28.1665 69.2166H25.1675ZM26.5964 65.5059V68.0757H28.1835C28.6315 68.0757 28.9817 67.9646 29.234 67.7425C29.4863 67.5203 29.6124 67.2116 29.6124 66.8162C29.6124 65.9615 29.1756 65.5247 28.3021 65.5059H26.5964ZM26.5964 64.4554H27.9971C28.4414 64.4554 28.7878 64.3556 29.0363 64.1561C29.2886 63.9527 29.4147 63.6666 29.4147 63.2976C29.4147 62.8909 29.298 62.5973 29.0646 62.4165C28.8349 62.2358 28.4753 62.1454 27.9858 62.1454H26.5964V64.4554ZM37.5025 60.9933H38.9314V69.2166H37.5025V63.3597L33.8935 69.2166H32.4646V60.9933H33.8935V66.8557L37.5025 60.9933ZM47.2111 60.9933V69.2166H45.7879V62.1454H43.2689L43.1221 65.3252C43.0656 66.3192 42.9432 67.0911 42.755 67.6408C42.5705 68.1868 42.3013 68.5859 41.9473 68.8381C41.5934 69.0904 41.119 69.2166 40.5241 69.2166H40.1626V68.0757L40.3885 68.0587C40.7161 68.0286 40.9684 67.9138 41.1453 67.7142C41.3261 67.5147 41.4616 67.2134 41.552 66.8106C41.6461 66.4039 41.712 65.8071 41.7497 65.0202L41.9078 60.9933H47.2111ZM50.34 64.1391H52.0231C52.6255 64.1391 53.1508 64.2427 53.5989 64.4498C54.0469 64.6568 54.3877 64.9505 54.6211 65.3308C54.8546 65.7111 54.9713 66.1516 54.9713 66.6524C54.9713 67.4205 54.7096 68.038 54.1862 68.5049C53.6666 68.9718 52.9569 69.209 52.057 69.2166H48.9111V60.9933H50.34V64.1391ZM50.34 65.2856V68.0757H52.0175C52.4994 68.0757 52.8741 67.9458 53.1414 67.686C53.4125 67.4224 53.548 67.0741 53.548 66.6411C53.548 66.227 53.4162 65.8994 53.1527 65.6584C52.8891 65.4174 52.5239 65.2932 52.057 65.2856H50.34ZM62.7371 69.2166H61.3138V65.5624H57.6371V69.2166H56.2082V60.9933H57.6371V64.4159H61.3138V60.9933H62.7371V69.2166ZM70.9943 65.3195C70.9943 66.1253 70.855 66.8332 70.5763 67.4431C70.2977 68.0493 69.8986 68.5162 69.379 68.8438C68.8631 69.1676 68.2682 69.3295 67.5943 69.3295C66.9278 69.3295 66.3329 69.1676 65.8095 68.8438C65.2899 68.5162 64.8871 68.0512 64.6009 67.4488C64.3185 66.8463 64.1754 66.1516 64.1717 65.3647V64.9016C64.1717 64.0996 64.3129 63.3917 64.5952 62.778C64.8814 62.1643 65.2824 61.6955 65.7982 61.3717C66.3178 61.0441 66.9128 60.8803 67.583 60.8803C68.2532 60.8803 68.8462 61.0422 69.362 61.366C69.8816 61.6861 70.2826 62.1492 70.565 62.7554C70.8474 63.3578 70.9905 64.0601 70.9943 64.8621V65.3195ZM69.5654 64.8903C69.5654 63.9791 69.3922 63.2807 69.0458 62.7949C68.7031 62.3092 68.2155 62.0664 67.583 62.0664C66.9655 62.0664 66.4816 62.3092 66.1315 62.7949C65.7851 63.2769 65.6081 63.9603 65.6006 64.8451V65.3195C65.6006 66.2232 65.7757 66.9216 66.1258 67.4149C66.4798 67.9081 66.9692 68.1548 67.5943 68.1548C68.2268 68.1548 68.7125 67.9138 69.0514 67.4318C69.394 66.9499 69.5654 66.2458 69.5654 65.3195V64.8903ZM82.8604 71.2385H81.5049V69.2166H76.0886V71.2385H74.7106L74.6654 68.0757H75.3262C75.6538 67.7594 75.9154 67.3 76.1112 66.6976C76.307 66.0914 76.4332 65.4061 76.4896 64.6418L76.7043 60.9933H81.889V68.0757H82.9339L82.8604 71.2385ZM76.9415 68.0757H80.4657V62.1454H78.0654L77.9298 64.4611C77.8282 66.0086 77.4987 67.2134 76.9415 68.0757ZM88.8133 65.5454H85.4359V68.0757H89.3837V69.2166H84.0069V60.9933H89.3442V62.1454H85.4359V64.4159H88.8133V65.5454ZM97.014 60.9933V69.2166H95.5907V62.1454H93.0718L92.9249 65.3252C92.8684 66.3192 92.7461 67.0911 92.5578 67.6408C92.3733 68.1868 92.1041 68.5859 91.7502 68.8381C91.3962 69.0904 90.9218 69.2166 90.3269 69.2166H89.9654V68.0757L90.1914 68.0587C90.5189 68.0286 90.7712 67.9138 90.9482 67.7142C91.1289 67.5147 91.2645 67.2134 91.3548 66.8106C91.4489 66.4039 91.5148 65.8071 91.5525 65.0202L91.7106 60.9933H97.014ZM103.441 67.3019H100.256L99.5894 69.2166H98.104L101.21 60.9933H102.492L105.604 69.2166H104.113L103.441 67.3019ZM100.657 66.1498H103.04L101.849 62.7385L100.657 66.1498ZM111.348 65.5454H107.971V68.0757H111.919V69.2166H106.542V60.9933H111.879V62.1454H107.971V64.4159H111.348V65.5454ZM114.935 60.9933L117.307 67.2963L119.673 60.9933H121.52V69.2166H120.097V66.5056L120.238 62.8797L117.809 69.2166H116.787L114.364 62.8853L114.505 66.5056V69.2166H113.082V60.9933H114.935ZM132.601 69.2166H131.178V62.1454H127.558V69.2166H126.134V60.9933H132.601V69.2166ZM135.758 66.1611V69.2166H134.329V60.9933H137.475C138.394 60.9933 139.123 61.2324 139.661 61.7105C140.203 62.1887 140.474 62.8213 140.474 63.6082C140.474 64.414 140.209 65.0409 139.678 65.489C139.151 65.937 138.411 66.1611 137.458 66.1611H135.758ZM135.758 65.0145H137.475C137.984 65.0145 138.371 64.8959 138.639 64.6587C138.906 64.4178 139.04 64.0714 139.04 63.6195C139.04 63.1752 138.904 62.8213 138.633 62.5577C138.362 62.2904 137.989 62.153 137.515 62.1454H135.758V65.0145ZM145.326 67.3019H142.14L141.474 69.2166H139.989L143.095 60.9933H144.377L147.489 69.2166H145.998L145.326 67.3019ZM142.541 66.1498H144.925L143.733 62.7385L142.541 66.1498ZM148.426 69.2166V60.9933H151.245C152.175 60.9933 152.883 61.1796 153.368 61.5524C153.854 61.9252 154.097 62.4805 154.097 63.2185C154.097 63.595 153.995 63.9339 153.792 64.2351C153.589 64.5364 153.291 64.7698 152.9 64.9355C153.344 65.056 153.687 65.2838 153.927 65.6189C154.172 65.9502 154.295 66.3493 154.295 66.8162C154.295 67.5881 154.046 68.1811 153.549 68.5953C153.056 69.0095 152.348 69.2166 151.425 69.2166H148.426ZM149.855 65.5059V68.0757H151.442C151.89 68.0757 152.241 67.9646 152.493 67.7425C152.745 67.5203 152.871 67.2116 152.871 66.8162C152.871 65.9615 152.435 65.5247 151.561 65.5059H149.855ZM149.855 64.4554H151.256C151.7 64.4554 152.047 64.3556 152.295 64.1561C152.548 63.9527 152.674 63.6666 152.674 63.2976C152.674 62.8909 152.557 62.5973 152.323 62.4165C152.094 62.2358 151.734 62.1454 151.245 62.1454H149.855V64.4554ZM160.761 60.9933H162.19V69.2166H160.761V63.3597L157.152 69.2166H155.723V60.9933H157.152V66.8557L160.761 60.9933ZM170.47 60.9933V69.2166H169.047V62.1454H166.528L166.381 65.3252C166.325 66.3192 166.202 67.0911 166.014 67.6408C165.829 68.1868 165.56 68.5859 165.206 68.8381C164.852 69.0904 164.378 69.2166 163.783 69.2166H163.422V68.0757L163.647 68.0587C163.975 68.0286 164.227 67.9138 164.404 67.7142C164.585 67.5147 164.721 67.2134 164.811 66.8106C164.905 66.4039 164.971 65.8071 165.009 65.0202L165.167 60.9933H170.47ZM173.599 64.1391H175.282C175.884 64.1391 176.41 64.2427 176.858 64.4498C177.306 64.6568 177.647 64.9505 177.88 65.3308C178.113 65.7111 178.23 66.1516 178.23 66.6524C178.23 67.4205 177.969 68.038 177.445 68.5049C176.926 68.9718 176.216 69.209 175.316 69.2166H172.17V60.9933H173.599V64.1391ZM173.599 65.2856V68.0757H175.276C175.758 68.0757 176.133 67.9458 176.4 67.686C176.671 67.4224 176.807 67.0741 176.807 66.6411C176.807 66.227 176.675 65.8994 176.412 65.6584C176.148 65.4174 175.783 65.2932 175.316 65.2856H173.599ZM185.996 69.2166H184.573V65.5624H180.896V69.2166H179.467V60.9933H180.896V64.4159H184.573V60.9933H185.996V69.2166ZM189.159 64.1391H190.842C191.444 64.1391 191.97 64.2427 192.418 64.4498C192.866 64.6568 193.206 64.9505 193.44 65.3308C193.673 65.7111 193.79 66.1516 193.79 66.6524C193.79 67.4205 193.528 68.038 193.005 68.5049C192.485 68.9718 191.776 69.209 190.876 69.2166H187.73V60.9933H189.159V64.1391ZM196.027 69.2166H194.603V60.9933H196.027V69.2166ZM189.159 65.2856V68.0757H190.836C191.318 68.0757 191.693 67.9458 191.96 67.686C192.231 67.4224 192.367 67.0741 192.367 66.6411C192.367 66.227 192.235 65.8994 191.971 65.6584C191.708 65.4174 191.343 65.2932 190.876 65.2856H189.159ZM202.584 65.5454H199.206V68.0757H203.154V69.2166H197.777V60.9933H203.115V62.1454H199.206V64.4159H202.584V65.5454ZM207.198 69.2166V60.9933H210.016C210.946 60.9933 211.654 61.1796 212.14 61.5524C212.626 61.9252 212.869 62.4805 212.869 63.2185C212.869 63.595 212.767 63.9339 212.564 64.2351C212.36 64.5364 212.063 64.7698 211.671 64.9355C212.116 65.056 212.458 65.2838 212.699 65.6189C212.944 65.9502 213.066 66.3493 213.066 66.8162C213.066 67.5881 212.818 68.1811 212.321 68.5953C211.827 69.0095 211.12 69.2166 210.197 69.2166H207.198ZM208.627 65.5059V68.0757H210.214C210.662 68.0757 211.012 67.9646 211.265 67.7425C211.517 67.5203 211.643 67.2116 211.643 66.8162C211.643 65.9615 211.206 65.5247 210.333 65.5059H208.627ZM208.627 64.4554H210.028C210.472 64.4554 210.818 64.3556 211.067 64.1561C211.319 63.9527 211.445 63.6666 211.445 63.2976C211.445 62.8909 211.329 62.5973 211.095 62.4165C210.865 62.2358 210.506 62.1454 210.016 62.1454H208.627V64.4554ZM219.301 65.5454H215.924V68.0757H219.872V69.2166H214.495V60.9933H219.832V62.1454H215.924V64.4159H219.301V65.5454ZM222.493 60.9933V68.0757H225V60.9933H226.423V68.0757H228.914V60.9933H230.337V68.1209H231.298L231.185 71.1933H229.931V69.2166H221.058V60.9933H222.493ZM237.606 60.9933H239.035V69.2166H237.606V63.3597L233.997 69.2166H232.568V60.9933H233.997V66.8557L237.606 60.9933Z" fill="black"/>
</svg>
