<svg width="160" height="160" viewBox="0 0 160 160" fill="none" xmlns="http://www.w3.org/2000/svg">
<g style="mix-blend-mode:multiply" opacity="0.3" filter="url(#filter0_d)">
<circle cx="80" cy="70" r="50" fill="#4909BA"/>
</g>
<path d="M85.5628 66.8549H80.338V61.6301C80.338 61.1683 80.1545 60.7253 79.8279 60.3987C79.5013 60.0721 79.0583 59.8886 78.5965 59.8886C78.1346 59.8886 77.6916 60.0721 77.365 60.3987C77.0384 60.7253 76.8549 61.1683 76.8549 61.6301V66.8549H71.6301C71.1683 66.8549 70.7253 67.0384 70.3987 67.365C70.0721 67.6916 69.8886 68.1346 69.8886 68.5965C69.8886 69.0583 70.0721 69.5013 70.3987 69.8279C70.7253 70.1545 71.1683 70.338 71.6301 70.338H76.8549V75.5628C76.8549 76.0247 77.0384 76.4676 77.365 76.7942C77.6916 77.1208 78.1346 77.3043 78.5965 77.3043C79.0583 77.3043 79.5013 77.1208 79.8279 76.7942C80.1545 76.4676 80.338 76.0247 80.338 75.5628V70.338H85.5628C86.0247 70.338 86.4676 70.1545 86.7942 69.8279C87.1208 69.5013 87.3043 69.0583 87.3043 68.5965C87.3043 68.1346 87.1208 67.6916 86.7942 67.365C86.4676 67.0384 86.0247 66.8549 85.5628 66.8549ZM97.2487 84.7757L90.7875 78.3667C93.2955 75.2395 94.5101 71.2703 94.1815 67.2751C93.8529 63.2799 92.006 59.5625 89.0207 56.8872C86.0354 54.2119 82.1385 52.7821 78.1313 52.8917C74.1242 53.0014 70.3113 54.6422 67.4767 57.4767C64.6422 60.3113 63.0014 64.1242 62.8917 68.1313C62.7821 72.1385 64.2119 76.0354 66.8872 79.0207C69.5625 82.006 73.2799 83.8529 77.2751 84.1815C81.2703 84.5101 85.2395 83.2955 88.3667 80.7875L94.7757 87.1965C94.9376 87.3597 95.1302 87.4893 95.3425 87.5777C95.5547 87.6661 95.7823 87.7116 96.0122 87.7116C96.2421 87.7116 96.4698 87.6661 96.682 87.5777C96.8942 87.4893 97.0868 87.3597 97.2487 87.1965C97.5626 86.8717 97.7381 86.4378 97.7381 85.9861C97.7381 85.5344 97.5626 85.1004 97.2487 84.7757ZM78.5965 80.7875C76.1853 80.7875 73.8283 80.0725 71.8235 78.7329C69.8187 77.3934 68.2561 75.4894 67.3334 73.2618C66.4107 71.0341 66.1693 68.5829 66.6397 66.2181C67.1101 63.8533 68.2711 61.681 69.9761 59.9761C71.681 58.2711 73.8533 57.1101 76.2181 56.6397C78.5829 56.1693 81.0341 56.4107 83.2618 57.3334C85.4894 58.2561 87.3934 59.8187 88.7329 61.8235C90.0725 63.8283 90.7875 66.1853 90.7875 68.5965C90.7875 71.8297 89.5031 74.9306 87.2168 77.2168C84.9306 79.5031 81.8297 80.7875 78.5965 80.7875Z" fill="white"/>
<defs>
<filter id="filter0_d" x="0" y="0" width="160" height="160" filterUnits="userSpaceOnUse" color-interpolation-filters="sRGB">
<feFlood flood-opacity="0" result="BackgroundImageFix"/>
<feColorMatrix in="SourceAlpha" type="matrix" values="0 0 0 0 0 0 0 0 0 0 0 0 0 0 0 0 0 0 127 0"/>
<feOffset dy="10"/>
<feGaussianBlur stdDeviation="15"/>
<feColorMatrix type="matrix" values="0 0 0 0 0.929167 0 0 0 0 0.929167 0 0 0 0 0.929167 0 0 0 1 0"/>
<feBlend mode="normal" in2="BackgroundImageFix" result="effect1_dropShadow"/>
<feBlend mode="normal" in="SourceGraphic" in2="effect1_dropShadow" result="shape"/>
</filter>
</defs>
</svg>
