<svg width="17" height="18" viewBox="0 0 17 18" fill="none" xmlns="http://www.w3.org/2000/svg">
<path fill-rule="evenodd" clip-rule="evenodd" d="M5.30945 0.824956C4.43387 0.864829 3.83557 1.00366 3.31307 1.20698C2.77194 1.41694 2.31385 1.69862 1.8561 2.15566C1.39834 2.61269 1.11738 3.0715 0.907419 3.61263C0.704103 4.13546 0.565269 4.73343 0.525395 5.60901C0.484863 6.48597 0.475586 6.76633 0.475586 8.99992C0.475586 11.2335 0.484863 11.5139 0.525395 12.3908C0.565269 13.2665 0.704103 13.8644 0.907419 14.3872C1.11738 14.928 1.39841 15.3873 1.8561 15.8442C2.31379 16.301 2.77194 16.5823 3.31307 16.7929C3.83656 16.9962 4.43387 17.135 5.30945 17.1749C6.18687 17.2148 6.46677 17.2247 8.70036 17.2247C10.9339 17.2247 11.2143 17.2154 12.0913 17.1749C12.9669 17.135 13.5648 16.9962 14.0876 16.7929C14.6284 16.5823 15.0869 16.3012 15.5446 15.8442C16.0024 15.3871 16.2827 14.928 16.4933 14.3872C16.6966 13.8644 16.8361 13.2664 16.8753 12.3908C16.9152 11.5132 16.9245 11.2335 16.9245 8.99992C16.9245 6.76633 16.9152 6.48597 16.8753 5.60901C16.8354 4.73337 16.6966 4.13513 16.4933 3.61263C16.2827 3.07183 16.0016 2.61342 15.5446 2.15566C15.0876 1.6979 14.6284 1.41694 14.0883 1.20698C13.5648 1.00366 12.9668 0.864171 12.0919 0.824956C11.215 0.785082 10.9346 0.775146 8.70101 0.775146C6.46743 0.775146 6.18687 0.784424 5.30945 0.824956ZM12.1025 4.3377C11.9941 4.17535 11.9363 3.98451 11.9364 3.7893C11.9366 3.52765 12.0407 3.27678 12.2258 3.0918C12.4108 2.90681 12.6621 2.80285 12.9238 2.80272C13.119 2.8028 13.3098 2.86076 13.472 2.96928C13.6343 3.07779 13.7607 3.23199 13.8354 3.41236C13.91 3.59274 13.9295 3.79119 13.8913 3.98263C13.8532 4.17407 13.7591 4.34989 13.621 4.48787C13.4829 4.62584 13.307 4.71977 13.1155 4.75778C12.9241 4.79579 12.7256 4.77616 12.5453 4.70139C12.365 4.62661 12.2109 4.50005 12.1025 4.3377ZM8.70009 13.6667C6.12266 13.6667 4.03338 11.5774 4.03338 8.99994C4.03338 6.42251 6.12266 4.33323 8.70009 4.33323C11.2775 4.33323 13.3668 6.42251 13.3668 8.99994C13.3668 11.5774 11.2775 13.6667 8.70009 13.6667ZM11.8587 8.99974C11.8587 10.7441 10.4446 12.1583 8.70015 12.1583C6.95575 12.1583 5.54163 10.7441 5.54163 8.99974C5.54163 7.25533 6.95575 5.84121 8.70015 5.84121C10.4446 5.84121 11.8587 7.25533 11.8587 8.99974Z" fill="#606060"/>
</svg>
