<svg width="20" height="12" viewBox="0 0 20 12" fill="none" xmlns="http://www.w3.org/2000/svg">
<path fill-rule="evenodd" clip-rule="evenodd" d="M9.46293 11.468H10.6184C10.6184 11.468 10.9673 11.4295 11.1458 11.2375C11.3098 11.061 11.3045 10.7299 11.3045 10.7299C11.3045 10.7299 11.2819 9.17956 12.0014 8.95117C12.7109 8.72619 13.6218 10.4497 14.5872 11.1124C15.3173 11.6138 15.8721 11.504 15.8721 11.504L18.4537 11.468C18.4537 11.468 19.8042 11.3846 19.1638 10.3228C19.1114 10.2361 18.7908 9.53742 17.2442 8.10189C15.6253 6.59932 15.8423 6.84247 17.7923 4.24351C18.9798 2.66075 19.4545 1.69452 19.3062 1.28063C19.1648 0.886356 18.2913 0.990507 18.2913 0.990507L15.3846 1.00855C15.3846 1.00855 15.1689 0.979139 15.0092 1.07478C14.853 1.16818 14.7528 1.38656 14.7528 1.38656C14.7528 1.38656 14.2925 2.61133 13.6792 3.65305C12.3848 5.85079 11.8672 5.96712 11.6556 5.8305C11.1633 5.5124 11.2864 4.55284 11.2864 3.87088C11.2864 1.74088 11.6095 0.852864 10.6573 0.622981C10.3413 0.546671 10.1086 0.496229 9.30051 0.48806C8.26328 0.477441 7.38555 0.491191 6.88855 0.734689C6.55778 0.896703 6.30271 1.25742 6.45819 1.27825C6.65036 1.30385 7.08534 1.39568 7.31598 1.70949C7.61393 2.11487 7.60352 3.02487 7.60352 3.02487C7.60352 3.02487 7.77465 5.53214 7.20372 5.84357C6.81203 6.05718 6.27446 5.62104 5.12048 3.62704C4.52934 2.60574 4.08291 1.47662 4.08291 1.47662C4.08291 1.47662 3.99694 1.26566 3.8433 1.15266C3.65712 1.0159 3.39687 0.972468 3.39687 0.972468L0.634606 0.990507C0.634606 0.990507 0.220041 1.00215 0.0676938 1.18241C-0.0678396 1.34292 0.0568702 1.67457 0.0568702 1.67457C0.0568702 1.67457 2.21928 6.7339 4.668 9.28344C6.91353 11.6214 9.46293 11.468 9.46293 11.468Z" fill="#606060"/>
</svg>
