<svg width="17" height="18" viewBox="0 0 17 18" fill="none" xmlns="http://www.w3.org/2000/svg">
<path fill-rule="evenodd" clip-rule="evenodd" d="M5.30945 0.8252C4.43387 0.865074 3.83557 1.00391 3.31307 1.20722C2.77194 1.41719 2.31385 1.69887 1.8561 2.1559C1.39834 2.61294 1.11738 3.07175 0.907419 3.61287C0.704103 4.1357 0.565269 4.73368 0.525395 5.60925C0.484863 6.48621 0.475586 6.76658 0.475586 9.00016C0.475586 11.2337 0.484863 11.5141 0.525395 12.3911C0.565269 13.2667 0.704103 13.8646 0.907419 14.3874C1.11738 14.9282 1.39841 15.3876 1.8561 15.8444C2.31379 16.3013 2.77194 16.5825 3.31307 16.7931C3.83656 16.9964 4.43387 17.1352 5.30945 17.1751C6.18687 17.215 6.46677 17.2249 8.70036 17.2249C10.9339 17.2249 11.2143 17.2157 12.0913 17.1751C12.9669 17.1352 13.5648 16.9964 14.0876 16.7931C14.6284 16.5825 15.0869 16.3015 15.5446 15.8444C16.0024 15.3874 16.2827 14.9282 16.4933 14.3874C16.6966 13.8646 16.8361 13.2666 16.8753 12.3911C16.9152 11.5135 16.9245 11.2337 16.9245 9.00016C16.9245 6.76658 16.9152 6.48621 16.8753 5.60925C16.8354 4.73361 16.6966 4.13537 16.4933 3.61287C16.2827 3.07208 16.0016 2.61366 15.5446 2.1559C15.0876 1.69814 14.6284 1.41719 14.0883 1.20722C13.5648 1.00391 12.9668 0.864416 12.0919 0.8252C11.215 0.785326 10.9346 0.775391 8.70101 0.775391C6.46743 0.775391 6.18687 0.784668 5.30945 0.8252ZM12.1025 4.33794C11.9941 4.17559 11.9363 3.98475 11.9364 3.78955C11.9366 3.52789 12.0407 3.27702 12.2258 3.09204C12.4108 2.90706 12.6621 2.80309 12.9238 2.80297C13.119 2.80305 13.3098 2.86101 13.472 2.96952C13.6343 3.07804 13.7607 3.23223 13.8354 3.41261C13.91 3.59298 13.9295 3.79144 13.8913 3.98288C13.8532 4.17431 13.7591 4.35014 13.621 4.48811C13.4829 4.62609 13.307 4.72002 13.1155 4.75802C12.9241 4.79603 12.7256 4.77641 12.5453 4.70163C12.365 4.62686 12.2109 4.50029 12.1025 4.33794ZM8.70009 13.6669C6.12266 13.6669 4.03338 11.5776 4.03338 9.00019C4.03338 6.42276 6.12266 4.33347 8.70009 4.33347C11.2775 4.33347 13.3668 6.42276 13.3668 9.00019C13.3668 11.5776 11.2775 13.6669 8.70009 13.6669ZM11.8587 8.99998C11.8587 10.7444 10.4446 12.1585 8.70015 12.1585C6.95575 12.1585 5.54163 10.7444 5.54163 8.99998C5.54163 7.25558 6.95575 5.84146 8.70015 5.84146C10.4446 5.84146 11.8587 7.25558 11.8587 8.99998Z" fill="white"/>
</svg>
