<svg width="20" height="12" viewBox="0 0 20 12" fill="none" xmlns="http://www.w3.org/2000/svg">
<path fill-rule="evenodd" clip-rule="evenodd" d="M9.46293 11.4682H10.6184C10.6184 11.4682 10.9673 11.4298 11.1458 11.2377C11.3098 11.0613 11.3045 10.7302 11.3045 10.7302C11.3045 10.7302 11.2819 9.1798 12.0014 8.95142C12.7109 8.72644 13.6218 10.4499 14.5872 11.1126C15.3173 11.614 15.8721 11.5042 15.8721 11.5042L18.4537 11.4682C18.4537 11.4682 19.8042 11.3848 19.1638 10.3231C19.1114 10.2363 18.7908 9.53766 17.2442 8.10214C15.6253 6.59956 15.8423 6.84272 17.7923 4.24376C18.9798 2.66099 19.4545 1.69476 19.3062 1.28088C19.1648 0.8866 18.2913 0.990751 18.2913 0.990751L15.3846 1.00879C15.3846 1.00879 15.1689 0.979383 15.0092 1.07503C14.853 1.16842 14.7528 1.3868 14.7528 1.3868C14.7528 1.3868 14.2925 2.61157 13.6792 3.65329C12.3848 5.85103 11.8672 5.96737 11.6556 5.83075C11.1633 5.51264 11.2864 4.55308 11.2864 3.87113C11.2864 1.74112 11.6095 0.853108 10.6573 0.623225C10.3413 0.546915 10.1086 0.496473 9.30051 0.488304C8.26328 0.477685 7.38555 0.491436 6.88855 0.734933C6.55778 0.896947 6.30271 1.25767 6.45819 1.2785C6.65036 1.30409 7.08534 1.39592 7.31598 1.70974C7.61393 2.11511 7.60352 3.02511 7.60352 3.02511C7.60352 3.02511 7.77465 5.53238 7.20372 5.84382C6.81203 6.05743 6.27446 5.62128 5.12048 3.62729C4.52934 2.60599 4.08291 1.47686 4.08291 1.47686C4.08291 1.47686 3.99694 1.2659 3.8433 1.1529C3.65712 1.01614 3.39687 0.972712 3.39687 0.972712L0.634606 0.990751C0.634606 0.990751 0.220041 1.00239 0.0676938 1.18265C-0.0678396 1.34317 0.0568702 1.67482 0.0568702 1.67482C0.0568702 1.67482 2.21928 6.73414 4.668 9.28368C6.91353 11.6217 9.46293 11.4682 9.46293 11.4682Z" fill="white"/>
</svg>
