<svg width="12" height="18" viewBox="0 0 12 18" fill="none" xmlns="http://www.w3.org/2000/svg">
<path d="M10.9131 11.0166C11.3227 10.6075 11.3812 10.0229 11.0301 9.43839C10.7376 8.97077 10.2109 8.73695 9.62581 8.85386C9.39176 8.91231 9.15769 9.02922 8.92364 9.20458C7.10971 10.4321 4.65214 10.3736 2.83822 9.14613C2.72119 9.08767 2.60416 9.02922 2.48713 8.97077C1.84348 8.6785 1.19984 8.79541 0.848756 9.37995C0.43916 9.96448 0.497667 10.6075 1.02429 11.1335C1.14132 11.2504 1.25834 11.3089 1.31686 11.4258L1.37538 11.4843C2.19457 12.1272 3.1893 12.5364 4.4766 12.7118L3.71592 13.4717C3.07227 14.1147 2.37011 14.8161 1.72646 15.4591C1.55092 15.6344 1.31686 15.9267 1.31686 16.3359C1.31686 16.862 1.60943 17.388 2.13606 17.6218C2.3116 17.7388 2.48713 17.7388 2.66268 17.7388C2.95524 17.7388 3.30633 17.6218 3.54038 17.3296C4.41809 16.4528 5.12026 15.7513 5.82242 15.0499C5.88093 14.9915 5.88093 14.9915 5.88093 14.9915C5.88093 14.9915 5.93945 14.9915 5.93945 15.0499C6.40756 15.576 6.93418 16.0436 7.40229 16.5697C7.63634 16.8035 7.8704 17.0373 8.10445 17.2711C8.39702 17.5634 8.63107 17.6803 8.98216 17.6803C9.50878 17.7388 10.0939 17.388 10.328 16.862C10.562 16.3943 10.445 15.8098 10.0354 15.4591C9.45027 14.8745 8.86513 14.2316 8.22148 13.647L7.22675 12.6533C7.75337 12.5949 8.33851 12.478 8.86513 12.2442C9.74284 11.9519 10.3865 11.5427 10.9131 11.0166Z" fill="#606060"/>
<path d="M5.88093 9.37994C8.39702 9.37994 10.445 7.39252 10.445 4.87903C10.445 3.65151 9.97689 2.48246 9.09918 1.60566C8.22148 0.728858 7.10972 0.26123 5.93945 0.26123C3.42336 0.26123 1.43389 2.30709 1.37538 4.76213C1.37538 5.98965 1.84349 7.10026 2.72119 7.97706C3.54038 8.91231 4.65214 9.37994 5.88093 9.37994ZM4.59363 3.53462C4.94471 3.1839 5.41282 3.00853 5.88093 3.00853C6.93417 3.00853 7.69486 3.82688 7.69486 4.82058C7.69486 5.87274 6.87566 6.63263 5.88093 6.63263C4.82768 6.63263 4.06701 5.81429 4.06701 4.82058C4.06701 4.35296 4.24255 3.88533 4.59363 3.53462Z" fill="#606060"/>
<path d="M10.9131 11.0166C11.3227 10.6075 11.3812 10.0229 11.0301 9.43839C10.7376 8.97077 10.2109 8.73695 9.62581 8.85386C9.39176 8.91231 9.15769 9.02922 8.92364 9.20458C7.10971 10.4321 4.65214 10.3736 2.83822 9.14613C2.72119 9.08767 2.60416 9.02922 2.48713 8.97077C1.84348 8.6785 1.19984 8.79541 0.848756 9.37995C0.43916 9.96448 0.497667 10.6075 1.02429 11.1335C1.14132 11.2504 1.25834 11.3089 1.31686 11.4258L1.37538 11.4843C2.19457 12.1272 3.1893 12.5364 4.4766 12.7118L3.71592 13.4717C3.07227 14.1147 2.37011 14.8161 1.72646 15.4591C1.55092 15.6344 1.31686 15.9267 1.31686 16.3359C1.31686 16.862 1.60943 17.388 2.13606 17.6218C2.3116 17.7388 2.48713 17.7388 2.66268 17.7388C2.95524 17.7388 3.30633 17.6218 3.54038 17.3296C4.41809 16.4528 5.12026 15.7513 5.82242 15.0499C5.88093 14.9915 5.88093 14.9915 5.88093 14.9915C5.88093 14.9915 5.93945 14.9915 5.93945 15.0499C6.40756 15.576 6.93418 16.0436 7.40229 16.5697C7.63634 16.8035 7.8704 17.0373 8.10445 17.2711C8.39702 17.5634 8.63107 17.6803 8.98216 17.6803C9.50878 17.7388 10.0939 17.388 10.328 16.862C10.562 16.3943 10.445 15.8098 10.0354 15.4591C9.45027 14.8745 8.86513 14.2316 8.22148 13.647L7.22675 12.6533C7.75337 12.5949 8.33851 12.478 8.86513 12.2442C9.74284 11.9519 10.3865 11.5427 10.9131 11.0166Z" fill="#606060"/>
</svg>
