<svg width="223" height="221" viewBox="0 0 223 221" fill="none" xmlns="http://www.w3.org/2000/svg">
<path d="M206.154 4.16287H136.875V127.771H206.154V4.16287Z" fill="#EBEBEB"/>
<path d="M202.685 7.75412H139.66V124.083H202.685V7.75412Z" fill="#FAFAFA"/>
<path d="M209.037 128.887L206.105 127.771V2.07602H209.037V128.887Z" fill="#E0E0E0"/>
<path d="M155.099 82.9286C160.571 77.8814 165.994 72.8342 171.466 67.8355C173.518 65.9428 176.254 63.856 178.941 64.7781C180.211 65.2148 181.188 66.3311 182.459 66.8164C184.95 67.8355 187.833 66.3311 189.787 64.4383C191.741 62.5456 193.256 60.1676 195.601 58.7602C197.946 57.4013 201.562 57.5469 202.734 60.022V76.474L178.941 86.5685L155.099 82.9286Z" fill="#F5F5F5"/>
<path d="M139.66 73.4651C145.67 71.0385 151.728 73.0768 156.027 77.9299C156.955 78.9491 157.786 80.1138 159.007 80.6962C160.717 81.4727 162.672 80.8903 164.479 80.6962C169.512 80.1138 174.788 82.686 177.475 86.9567L157.346 96.8085L139.66 96.6629V73.4651Z" fill="#E0E0E0"/>
<path d="M202.636 73.5622C198.679 71.6695 195.161 73.9504 191.497 76.377C187.833 78.8035 184.413 81.958 180.113 82.9287C177.231 83.6081 174.153 83.2198 171.368 84.1905C165.701 86.1802 162.427 93.3143 156.467 93.654C153.193 93.8481 150.311 91.8584 147.379 90.4024C144.497 88.9465 142.2 87.5391 139.611 89.4803V124.083H202.636V73.5622Z" fill="#EBEBEB"/>
<path d="M204.053 41.2405H139.66V42.5023H204.053V41.2405Z" fill="#E0E0E0"/>
<path d="M204.053 68.9517H139.66V70.2135H204.053V68.9517Z" fill="#E0E0E0"/>
<path d="M204.053 96.6144H139.66V97.8762H204.053V96.6144Z" fill="#E0E0E0"/>
<path d="M169.534 41.8351V127.395H172.71V41.8351H169.534Z" fill="#E0E0E0"/>
<path d="M153.242 7.75412H151.777V41.8229H153.242V7.75412Z" fill="#E0E0E0"/>
<path d="M165.652 7.75412H164.186V41.8229H165.652V7.75412Z" fill="#E0E0E0"/>
<path d="M178.11 7.75412H176.645V41.8229H178.11V7.75412Z" fill="#E0E0E0"/>
<path d="M190.569 7.75412H189.103V41.8229H190.569V7.75412Z" fill="#E0E0E0"/>
<path d="M136.875 2.07602H133.944V128.548H136.875V2.07602Z" fill="#E0E0E0"/>
<path d="M209.037 0.814209H133.944V4.16285H209.037V0.814209Z" fill="#E0E0E0"/>
<path d="M211.039 129.324H131.843V132.479H211.039V129.324Z" fill="#E0E0E0"/>
<path d="M206.105 127.771L211.039 129.324H131.843L136.875 127.771H206.105Z" fill="#E0E0E0"/>
<path d="M59.3882 6.00705H23.9182V57.1102H59.3882V6.00705Z" fill="#E0E0E0"/>
<path d="M57.6289 6.00665H22.1589V57.1098H57.6289V6.00665Z" fill="#F5F5F5"/>
<path d="M53.2321 11.5403H26.5564V51.5783H53.2321V11.5403Z" fill="white"/>
<path d="M53.2322 51.5776C53.2322 51.5776 53.2322 51.5291 53.2322 51.3835C53.2322 51.2379 53.2322 51.0438 53.2322 50.8011C53.2322 50.3158 53.2322 49.5393 53.2322 48.6172C53.2322 46.676 53.2322 43.9097 53.2322 40.367C53.2322 33.33 53.1833 23.3326 53.1833 11.5396L53.2811 11.6366C45.122 11.6366 36.0835 11.6366 26.6053 11.6366L26.703 11.5396C26.703 26.6327 26.703 40.5611 26.703 51.5776L26.6053 51.4806C34.7155 51.4806 41.36 51.5291 46.0014 51.5291C48.2977 51.5291 50.1054 51.5291 51.3756 51.5291C52.0108 51.5291 52.4505 51.5291 52.7925 51.5291C53.0368 51.5776 53.2322 51.5776 53.2322 51.5776C53.2322 51.5776 53.0856 51.5776 52.7436 51.5776C52.4016 51.5776 51.9619 51.5776 51.3268 51.5776C50.1054 51.5776 48.2977 51.5776 46.0014 51.5776C41.36 51.5776 34.6667 51.5776 26.5565 51.6262H26.4587V51.5291C26.4587 40.5126 26.4587 26.5842 26.4587 11.491V11.394H26.5565C36.0346 11.394 45.0731 11.394 53.2322 11.394H53.3299V11.491C53.3299 23.2841 53.2811 33.2815 53.2811 40.367C53.2811 43.9097 53.2811 46.676 53.2811 48.5687C53.2811 49.5393 53.2811 50.2673 53.2811 50.7526C53.2811 50.9953 53.2811 51.1894 53.2811 51.2864C53.2322 51.5291 53.2322 51.5776 53.2322 51.5776Z" fill="#E0E0E0"/>
<path d="M57.7269 6.00705C57.7269 6.00705 57.4827 6.3953 57.0918 6.92914C56.701 7.46298 56.1147 8.23948 55.4307 9.01597C54.7467 9.841 54.1604 10.5204 53.6718 11.0543C53.2321 11.5396 52.8901 11.8793 52.8901 11.8308C52.8901 11.8308 53.1344 11.4911 53.5741 10.9572C54.0627 10.3748 54.649 9.69541 55.2841 8.91891C55.9192 8.14241 56.5055 7.41445 56.9941 6.88061C57.4338 6.34677 57.7269 6.00705 57.7269 6.00705Z" fill="#E0E0E0"/>
<path d="M53.3796 51.4321C54.6988 53.5189 56.2622 55.4601 58.021 57.2073L53.3796 51.4321Z" fill="white"/>
<path d="M58.0202 57.2558C58.0202 57.2558 57.6782 57.0131 57.1896 56.5278C56.7011 56.0425 56.0659 55.3631 55.4308 54.538C54.7957 53.713 54.2582 52.9851 53.8674 52.4027C53.5254 51.8203 53.2811 51.4806 53.33 51.4321C53.33 51.4321 53.5742 51.7718 53.9651 52.3056C54.3559 52.8395 54.8934 53.616 55.5285 54.3925C56.1636 55.169 56.7988 55.8969 57.2385 56.3822C57.7271 56.9161 58.0202 57.2073 58.0202 57.2558Z" fill="#E0E0E0"/>
<path d="M22.1587 57.0612C23.7221 55.1684 25.2367 53.2757 26.8001 51.383L22.1587 57.0612Z" fill="white"/>
<path d="M26.8008 51.3835C26.8496 51.4321 25.8236 52.7424 24.5534 54.2954C23.2831 55.8484 22.2082 57.1102 22.1594 57.0616C22.1105 57.0131 23.1365 55.7028 24.4068 54.1498C25.6771 52.5968 26.7519 51.335 26.8008 51.3835Z" fill="#E0E0E0"/>
<path d="M22.1596 6.00708C22.2084 5.95855 23.2344 7.17183 24.407 8.67629C25.6284 10.1807 26.5567 11.4426 26.5078 11.4911C26.4589 11.5396 25.433 10.3263 24.2604 8.82188C23.039 7.31742 22.1107 6.05561 22.1596 6.00708Z" fill="#E0E0E0"/>
<path d="M44.9266 19.6928H35.9858V44.8804H44.9266V19.6928Z" fill="#E0E0E0"/>
<path d="M105.46 31.1461H77.4165V71.5239H105.46V31.1461Z" fill="#E0E0E0"/>
<path d="M104.043 31.1455H75.9998V71.5233H104.043V31.1455Z" fill="#FAFAFA"/>
<path d="M100.624 35.5143H79.5176V67.1565H100.624V35.5143Z" fill="white"/>
<path d="M100.575 67.1561C100.575 67.1561 100.575 67.1075 100.575 67.0105C100.575 66.9134 100.575 66.7678 100.575 66.5737C100.575 66.1855 100.575 65.6031 100.575 64.8266C100.575 63.3221 100.575 61.0897 100.575 58.3234C100.575 52.7424 100.575 44.8318 100.526 35.5139L100.575 35.5624C94.1258 35.5624 86.9927 35.5624 79.4688 35.5624L79.5665 35.4653C79.5665 47.404 79.5665 58.4205 79.5665 67.1075L79.5177 67.059C85.9179 67.059 91.1944 67.059 94.8587 67.1075C96.6664 67.1075 98.1321 67.1075 99.1092 67.1075C99.5978 67.1075 99.9886 67.1075 100.233 67.1075C100.477 67.1561 100.575 67.1561 100.575 67.1561C100.575 67.1561 100.428 67.1561 100.184 67.1561C99.9398 67.1561 99.5489 67.1561 99.0603 67.1561C98.0832 67.1561 96.6664 67.1561 94.8098 67.1561C91.1456 67.1561 85.869 67.1561 79.42 67.2046H79.3711V67.1561C79.3711 58.469 79.3711 47.4525 79.3711 35.5139V35.4168H79.4688C86.9927 35.4168 94.1258 35.4168 100.575 35.4168H100.624V35.4653C100.624 44.7833 100.575 52.6938 100.575 58.2749C100.575 61.0412 100.575 63.2736 100.575 64.7781C100.575 65.506 100.575 66.0884 100.575 66.4766C100.575 66.6708 100.575 66.8164 100.575 66.9134C100.575 67.1075 100.575 67.1561 100.575 67.1561Z" fill="#E0E0E0"/>
<path d="M104.141 31.1461C104.141 31.1461 103.946 31.4373 103.653 31.8741C103.311 32.3108 102.871 32.8932 102.333 33.5241C101.796 34.155 101.307 34.7374 100.965 35.1256C100.623 35.5139 100.379 35.7565 100.33 35.7565C100.33 35.7565 100.526 35.4653 100.868 35.0771C101.259 34.6403 101.698 34.0579 102.236 33.427C102.724 32.7961 103.213 32.2623 103.604 31.777C103.897 31.3887 104.141 31.1461 104.141 31.1461Z" fill="#E0E0E0"/>
<path d="M100.721 67.059C101.747 68.7091 103.017 70.2621 104.385 71.6209L100.721 67.059Z" fill="white"/>
<path d="M104.385 71.6209C104.385 71.6209 104.141 71.4268 103.75 71.0386C103.359 70.6503 102.871 70.1165 102.382 69.4856C101.894 68.8547 101.454 68.2238 101.161 67.787C100.868 67.3502 100.721 67.059 100.721 67.059C100.721 67.059 100.917 67.3017 101.259 67.7385C101.552 68.1752 101.991 68.7576 102.529 69.3885C103.017 70.0194 103.506 70.5533 103.897 70.9415C104.19 71.3783 104.385 71.6209 104.385 71.6209Z" fill="#E0E0E0"/>
<path d="M76 71.5232C77.2214 70.0188 78.4428 68.5143 79.6642 67.0098L76 71.5232Z" fill="white"/>
<path d="M79.7134 67.0105C79.7623 67.059 78.9317 68.0781 77.9546 69.2914C76.9286 70.5532 76.098 71.5238 76.0492 71.4753C76.0003 71.4268 76.8309 70.4076 77.808 69.1943C78.834 67.9811 79.6646 66.9619 79.7134 67.0105Z" fill="#E0E0E0"/>
<path d="M75.9998 31.1461C76.0486 31.0975 76.8303 32.0682 77.8075 33.2814C78.7357 34.4947 79.5174 35.4653 79.4686 35.5139C79.4197 35.5624 78.638 34.5918 77.6609 33.3785C76.7326 32.1652 75.9998 31.1461 75.9998 31.1461Z" fill="#E0E0E0"/>
<path d="M94.0278 41.9199H86.9436V61.8176H94.0278V41.9199Z" fill="#F5F5F5"/>
<path d="M222.863 201.296C222.863 201.344 173.078 201.441 111.616 201.441C50.1543 201.393 0.369385 201.344 0.369385 201.296C0.369385 201.247 50.1543 201.15 111.616 201.15C173.029 201.15 222.863 201.199 222.863 201.296Z" fill="#263238"/>
<path d="M206.642 220.611C206.642 220.66 182.312 220.757 152.363 220.757C122.365 220.757 98.0828 220.708 98.0828 220.611C98.0828 220.514 122.365 220.465 152.363 220.465C182.361 220.514 206.642 220.563 206.642 220.611Z" fill="#263238"/>
<path d="M193.5 189.211C193.5 189.211 193.5 189.163 193.598 189.017C193.647 188.872 193.744 188.678 193.842 188.435C194.086 187.95 194.38 187.173 194.624 186.154C195.161 184.116 195.308 181.058 194.575 177.37C194.233 175.526 193.647 173.585 192.963 171.498C192.279 169.411 191.448 167.178 190.813 164.8C190.178 162.422 189.64 159.802 189.738 157.084C189.836 154.366 190.666 151.649 191.546 148.931C192.425 146.213 193.354 143.544 193.647 140.923C193.94 138.254 193.402 135.633 192.181 133.498C191.008 131.314 189.494 129.47 188.419 127.577C187.295 125.684 186.562 123.695 186.123 121.899C185.292 118.211 185.585 115.105 185.976 113.066C186.416 111.028 186.904 109.96 186.904 109.96C186.904 109.96 186.904 110.009 186.856 110.155C186.807 110.3 186.758 110.494 186.66 110.737C186.514 111.271 186.269 112.047 186.074 113.066C185.683 115.105 185.439 118.211 186.318 121.85C186.758 123.646 187.491 125.587 188.614 127.48C189.738 129.373 191.204 131.217 192.425 133.401C193.696 135.585 194.282 138.254 193.94 140.972C193.647 143.689 192.718 146.359 191.839 149.076C190.96 151.794 190.129 154.463 190.031 157.133C189.934 159.802 190.422 162.374 191.057 164.752C191.692 167.13 192.474 169.362 193.158 171.449C193.842 173.536 194.428 175.526 194.77 177.37C195.503 181.058 195.308 184.164 194.77 186.203C194.477 187.222 194.184 187.95 193.94 188.484C193.793 188.726 193.696 188.92 193.647 189.017C193.5 189.163 193.5 189.211 193.5 189.211Z" fill="#263238"/>
<path d="M189.836 129.518C189.836 129.518 187.588 122.336 191.643 118.114C191.79 117.968 192.034 118.017 192.083 118.259C192.279 119.424 192.523 123.015 189.836 129.518Z" fill="#0F4C81"/>
<path d="M191.204 120.492C191.252 120.492 191.155 121.025 191.057 121.802C190.91 122.724 190.715 123.792 190.52 124.956C190.324 126.121 190.178 127.189 190.031 128.111C189.884 128.936 189.836 129.421 189.787 129.421C189.738 129.421 189.738 128.887 189.836 128.062C189.933 127.237 190.08 126.121 190.275 124.859C190.471 123.598 190.715 122.481 190.862 121.705C191.008 120.977 191.155 120.492 191.204 120.492Z" fill="#263238"/>
<path d="M192.474 146.456C192.474 146.456 193.842 139.079 199.412 137.235C199.607 137.186 199.803 137.332 199.754 137.526C199.412 138.642 197.946 141.991 192.474 146.456Z" fill="#0F4C81"/>
<path d="M197.897 139.128C197.946 139.176 197.653 139.564 197.115 140.244C196.578 140.972 195.894 141.845 195.161 142.816C194.428 143.787 193.793 144.66 193.207 145.388C192.718 146.067 192.425 146.456 192.376 146.456C192.327 146.456 192.572 145.97 193.06 145.291C193.5 144.612 194.184 143.689 194.917 142.67C195.699 141.651 196.382 140.778 196.92 140.147C197.555 139.467 197.897 139.079 197.897 139.128Z" fill="#263238"/>
<path d="M191.009 164.995C191.009 164.995 190.178 157.521 194.966 154.172C195.113 154.075 195.357 154.172 195.357 154.366C195.308 155.58 194.869 159.171 191.009 164.995Z" fill="#0F4C81"/>
<path d="M194.037 156.405C194.086 156.405 193.891 156.89 193.646 157.666C193.304 158.54 192.962 159.559 192.523 160.675C192.132 161.792 191.741 162.811 191.399 163.684C191.106 164.461 190.959 164.946 190.91 164.946C190.862 164.946 190.959 164.412 191.204 163.636C191.448 162.859 191.79 161.743 192.23 160.578C192.669 159.414 193.109 158.346 193.402 157.569C193.793 156.841 193.988 156.405 194.037 156.405Z" fill="#263238"/>
<path d="M195.162 183.679C195.162 183.679 194.576 176.157 199.51 173.002C199.706 172.905 199.901 173.002 199.901 173.196C199.852 174.409 199.266 177.952 195.162 183.679Z" fill="#0F4C81"/>
<path d="M198.532 175.186C198.581 175.186 198.386 175.671 198.092 176.448C197.75 177.321 197.311 178.292 196.871 179.408C196.431 180.524 195.992 181.544 195.65 182.369C195.356 183.145 195.161 183.582 195.112 183.582C195.063 183.582 195.21 183.097 195.454 182.272C195.698 181.495 196.089 180.427 196.578 179.263C197.066 178.098 197.506 177.079 197.897 176.302C198.239 175.623 198.483 175.186 198.532 175.186Z" fill="#263238"/>
<path d="M186.562 123.209C186.562 123.209 179.869 119.715 179.722 113.891C179.722 113.697 179.967 113.552 180.113 113.697C181.139 114.377 183.875 116.706 186.562 123.209Z" fill="#0F4C81"/>
<path d="M181.139 115.881C181.188 115.881 181.481 116.269 181.97 116.9C182.507 117.628 183.142 118.55 183.875 119.521C184.608 120.492 185.243 121.365 185.781 122.093C186.269 122.773 186.562 123.161 186.562 123.209C186.513 123.209 186.171 122.87 185.634 122.239C185.097 121.608 184.413 120.686 183.68 119.667C182.947 118.648 182.312 117.725 181.872 116.997C181.335 116.367 181.09 115.93 181.139 115.881Z" fill="#263238"/>
<path d="M193.793 138.594C193.793 138.594 186.856 135.536 186.416 129.713C186.416 129.518 186.611 129.373 186.807 129.47C187.833 130.101 190.715 132.333 193.793 138.594Z" fill="#0F4C81"/>
<path d="M187.931 131.654C187.979 131.654 188.321 131.993 188.81 132.624C189.396 133.352 190.08 134.177 190.862 135.099C191.644 136.022 192.328 136.847 192.914 137.575C193.451 138.205 193.793 138.594 193.745 138.642C193.696 138.691 193.354 138.303 192.767 137.72C192.181 137.138 191.448 136.264 190.667 135.294C189.885 134.323 189.152 133.401 188.663 132.77C188.175 132.091 187.882 131.654 187.931 131.654Z" fill="#263238"/>
<path d="M189.836 155.822C189.836 155.822 185.097 149.95 187.295 144.563C187.393 144.369 187.637 144.369 187.735 144.514C188.37 145.534 189.982 148.785 189.836 155.822Z" fill="#0F4C81"/>
<path d="M187.784 146.941C187.833 146.941 187.93 147.426 188.126 148.251C188.321 149.173 188.565 150.193 188.81 151.406C189.054 152.571 189.298 153.638 189.494 154.56C189.689 155.337 189.787 155.871 189.738 155.871C189.689 155.871 189.543 155.385 189.298 154.609C189.054 153.832 188.81 152.716 188.517 151.503C188.272 150.29 188.028 149.173 187.93 148.348C187.784 147.475 187.735 146.941 187.784 146.941Z" fill="#263238"/>
<path d="M194.526 176.06C194.526 176.06 187.686 172.857 187.295 167.081C187.295 166.887 187.491 166.742 187.686 166.839C188.663 167.47 191.546 169.702 194.526 176.06Z" fill="#0F4C81"/>
<path d="M188.761 168.974C188.81 168.974 189.103 169.362 189.64 169.993C190.227 170.721 190.911 171.546 191.643 172.517C192.376 173.439 193.06 174.312 193.647 175.04C194.184 175.671 194.477 176.06 194.477 176.108C194.428 176.157 194.086 175.768 193.5 175.186C192.963 174.555 192.181 173.73 191.399 172.711C190.617 171.74 189.933 170.818 189.445 170.139C189.005 169.459 188.712 169.023 188.761 168.974Z" fill="#263238"/>
<path d="M208.206 146.456C208.206 146.456 208.206 146.504 208.206 146.601C208.206 146.747 208.206 146.892 208.206 147.087C208.206 147.523 208.157 148.154 208.108 148.931C208.01 150.532 207.913 152.765 207.766 155.434C207.278 158.152 205.861 161.161 204.004 164.121C202.636 166.256 201.171 168.246 199.949 170.042C198.679 171.837 197.653 173.536 196.92 175.04C196.187 176.545 195.747 177.807 195.503 178.729C195.405 179.166 195.308 179.505 195.259 179.748C195.21 179.991 195.161 180.088 195.161 180.088C195.161 180.088 195.161 179.942 195.21 179.699C195.259 179.457 195.308 179.117 195.405 178.632C195.65 177.71 196.041 176.399 196.773 174.895C197.506 173.39 198.532 171.692 199.803 169.848C201.024 168.003 202.49 166.062 203.858 163.878C205.714 160.966 207.131 158.006 207.62 155.337C207.815 152.668 207.962 150.435 208.059 148.834C208.108 148.057 208.157 147.475 208.206 146.99C208.206 146.795 208.255 146.65 208.255 146.504C208.157 146.504 208.157 146.456 208.206 146.456Z" fill="#263238"/>
<path d="M204.102 163.587C204.102 163.587 206.984 156.647 203.369 152.085C203.223 151.94 202.978 151.988 202.929 152.182C202.587 153.347 202.001 156.89 204.102 163.587Z" fill="#0F4C81"/>
<path d="M203.564 154.512C203.613 154.512 203.711 154.997 203.809 155.822C203.906 156.647 204.004 157.763 204.102 159.025C204.2 160.287 204.248 161.403 204.248 162.228C204.248 163.053 204.2 163.539 204.151 163.539C204.102 163.539 204.102 163.053 204.053 162.228C204.004 161.306 203.906 160.238 203.858 159.025C203.76 157.812 203.711 156.744 203.613 155.822C203.564 154.997 203.516 154.512 203.564 154.512Z" fill="#263238"/>
<g opacity="0.3">
<g opacity="0.3">
<g opacity="0.3">
<path opacity="0.3" d="M204.102 163.587C204.102 163.587 206.984 156.647 203.369 152.085C203.223 151.94 202.978 151.988 202.929 152.182C202.587 153.347 202.001 156.89 204.102 163.587Z" fill="black"/>
</g>
</g>
</g>
<path d="M195.112 180.33C195.112 180.33 197.457 173.148 193.402 168.926C193.256 168.78 193.011 168.828 192.963 169.023C192.767 170.236 192.474 173.827 195.112 180.33Z" fill="#0F4C81"/>
<path d="M193.842 171.304C193.891 171.304 193.988 171.789 194.184 172.614C194.33 173.439 194.575 174.555 194.77 175.768C194.966 177.03 195.112 178.146 195.161 178.971C195.21 179.797 195.21 180.282 195.21 180.33C195.161 180.33 195.112 179.845 194.966 179.02C194.819 178.098 194.672 177.03 194.477 175.866C194.282 174.701 194.135 173.585 193.988 172.711C193.842 171.837 193.793 171.352 193.842 171.304Z" fill="#263238"/>
<g opacity="0.3">
<g opacity="0.3">
<g opacity="0.3">
<path opacity="0.3" d="M195.112 180.33C195.112 180.33 197.457 173.148 193.402 168.926C193.256 168.78 193.011 168.828 192.963 169.023C192.767 170.236 192.474 173.827 195.112 180.33Z" fill="black"/>
</g>
</g>
</g>
<path d="M207.815 155.094C207.815 155.094 214.02 150.775 213.385 145C213.385 144.806 213.141 144.709 212.945 144.854C212.066 145.631 209.623 148.348 207.815 155.094Z" fill="#0F4C81"/>
<g opacity="0.3">
<g opacity="0.3">
<g opacity="0.3">
<path opacity="0.3" d="M207.815 155.094C207.815 155.094 214.02 150.775 213.385 145C213.385 144.806 213.141 144.709 212.945 144.854C212.066 145.631 209.623 148.348 207.815 155.094Z" fill="black"/>
</g>
</g>
</g>
<path d="M212.261 147.135C212.31 147.135 212.114 147.62 211.723 148.348C211.381 149.076 210.844 150.096 210.258 151.212C209.671 152.328 209.085 153.299 208.645 153.978C208.206 154.657 207.864 155.094 207.864 155.046C207.815 155.046 208.059 154.56 208.499 153.881C208.938 153.056 209.476 152.134 210.062 151.066C210.648 149.998 211.137 149.076 211.577 148.251C211.968 147.572 212.212 147.135 212.261 147.135Z" fill="#263238"/>
<path d="M197.604 173.245C197.604 173.245 205.079 172.08 207.082 166.596C207.131 166.402 206.984 166.208 206.789 166.256C205.617 166.596 202.245 167.955 197.604 173.245Z" fill="#0F4C81"/>
<g opacity="0.3">
<g opacity="0.3">
<g opacity="0.3">
<path opacity="0.3" d="M197.604 173.245C197.604 173.245 205.079 172.08 207.082 166.596C207.131 166.402 206.984 166.208 206.789 166.256C205.617 166.596 202.245 167.955 197.604 173.245Z" fill="black"/>
</g>
</g>
</g>
<path d="M205.128 168.052C205.128 168.1 204.786 168.44 204.102 168.926C203.467 169.459 202.538 170.139 201.512 170.867C200.486 171.595 199.509 172.226 198.825 172.662C198.092 173.099 197.653 173.342 197.653 173.293C197.653 173.245 198.043 172.954 198.727 172.517C199.509 171.983 200.389 171.352 201.366 170.673C202.343 169.993 203.222 169.362 204.004 168.828C204.688 168.295 205.079 168.003 205.128 168.052Z" fill="#263238"/>
<path d="M190.471 186.931L188.272 201.49H201.903L200.145 186.931H190.471Z" fill="#455A64"/>
<path d="M200.682 191.444C200.682 191.541 198.239 191.59 195.21 191.59C192.181 191.59 189.738 191.541 189.738 191.444C189.738 191.347 192.181 191.298 195.21 191.298C198.19 191.298 200.682 191.347 200.682 191.444Z" fill="#263238"/>
<path d="M200.926 192.609C200.926 192.706 198.386 192.754 195.259 192.754C192.132 192.754 189.592 192.706 189.592 192.609C189.592 192.512 192.132 192.463 195.259 192.463C198.386 192.463 200.926 192.512 200.926 192.609Z" fill="#263238"/>
<path d="M195.161 220.612C196.382 212.992 195.21 204.888 191.399 198.19C187.539 191.493 180.944 186.252 173.371 184.553C165.798 182.855 157.297 184.893 151.678 190.231C145.278 189.503 138.683 189.6 132.527 191.493C126.371 193.386 120.654 197.22 117.479 202.752C114.254 208.285 113.912 215.613 117.332 221L195.161 220.612Z" fill="#0F4C81"/>
<path d="M169.902 183.922C169.902 183.97 169.022 183.97 167.654 184.31C167.459 184.358 167.312 184.407 167.117 184.455C166.922 184.504 166.726 184.601 166.531 184.65C166.14 184.795 165.749 184.989 165.309 185.135C164.479 185.572 163.599 186.057 162.769 186.736C161.938 187.416 161.205 188.144 160.619 188.823C160.326 189.211 160.033 189.551 159.837 189.891C159.74 190.085 159.593 190.231 159.495 190.376C159.398 190.522 159.3 190.716 159.251 190.862C158.567 192.075 158.372 192.948 158.323 192.948C158.323 192.948 158.372 192.754 158.469 192.366C158.518 192.269 158.518 192.172 158.567 192.026C158.616 191.929 158.665 191.784 158.714 191.638C158.811 191.395 158.909 191.056 159.104 190.764C159.202 190.619 159.251 190.425 159.349 190.279C159.446 190.134 159.544 189.939 159.691 189.745C159.886 189.357 160.179 189.017 160.472 188.678C161.059 187.95 161.792 187.222 162.671 186.542C163.55 185.863 164.43 185.329 165.26 184.941C165.7 184.747 166.091 184.552 166.531 184.455C166.726 184.407 166.922 184.31 167.117 184.261C167.312 184.213 167.508 184.164 167.654 184.116C167.996 184.019 168.338 183.97 168.583 183.97C168.729 183.97 168.827 183.922 168.974 183.922C169.071 183.922 169.218 183.922 169.316 183.922C169.658 183.922 169.902 183.922 169.902 183.922Z" fill="#FAFAFA"/>
<path d="M150.555 192.512C150.555 192.512 150.506 192.512 150.457 192.512C150.359 192.512 150.261 192.512 150.115 192.56C149.822 192.609 149.382 192.609 148.845 192.706C147.721 192.851 146.109 193.094 144.154 193.628C143.177 193.87 142.151 194.259 141.028 194.647C139.953 195.084 138.78 195.569 137.608 196.248C135.262 197.51 132.868 199.209 130.67 201.344C129.595 202.412 128.569 203.528 127.69 204.693C126.81 205.858 126.029 207.022 125.393 208.139C124.074 210.468 123.195 212.7 122.657 214.593C122.12 216.534 121.876 218.136 121.729 219.252C121.631 219.786 121.631 220.223 121.583 220.514C121.583 220.66 121.534 220.757 121.534 220.854C121.534 220.951 121.534 220.951 121.534 220.951C121.534 220.951 121.534 220.902 121.534 220.854C121.534 220.757 121.534 220.66 121.534 220.514C121.534 220.223 121.534 219.786 121.631 219.204C121.729 218.087 121.973 216.486 122.462 214.496C122.999 212.555 123.83 210.274 125.149 207.944C125.833 206.78 126.566 205.615 127.445 204.45C128.325 203.285 129.351 202.169 130.426 201.102C132.624 198.918 135.067 197.219 137.461 195.957C138.634 195.326 139.806 194.841 140.93 194.356C142.054 193.967 143.079 193.579 144.105 193.337C146.06 192.803 147.721 192.609 148.845 192.512C149.431 192.463 149.871 192.463 150.164 192.414C150.31 192.414 150.408 192.414 150.506 192.414C150.506 192.463 150.555 192.463 150.555 192.512Z" fill="#FAFAFA"/>
<path d="M172.736 186.979C172.736 186.979 172.589 186.979 172.345 186.979C172.1 186.979 171.71 186.979 171.27 186.979C170.342 187.028 168.974 187.173 167.361 187.61C165.749 188.095 163.893 188.872 162.085 190.182C161.157 190.813 160.326 191.589 159.495 192.463C158.665 193.337 157.932 194.356 157.346 195.472C157.248 195.666 157.15 195.86 157.053 196.054L157.004 196.151L156.906 196.103C154.659 195.084 152.265 194.793 150.115 194.987C149.04 195.035 148.063 195.278 147.135 195.52C146.255 195.812 145.425 196.103 144.692 196.491C143.275 197.219 142.2 197.996 141.565 198.626C140.93 199.257 140.588 199.597 140.539 199.597C140.539 199.597 140.588 199.5 140.783 199.306C140.93 199.112 141.174 198.869 141.516 198.529C142.151 197.899 143.177 197.073 144.643 196.297C145.376 195.909 146.206 195.569 147.135 195.278C148.063 195.035 149.089 194.793 150.164 194.695C152.314 194.501 154.756 194.793 157.101 195.812L156.955 195.86C157.053 195.666 157.15 195.472 157.297 195.278C157.932 194.162 158.665 193.094 159.495 192.22C160.326 191.347 161.205 190.522 162.134 189.891C163.941 188.581 165.847 187.804 167.459 187.367C169.12 186.93 170.488 186.785 171.417 186.785C171.905 186.785 172.247 186.833 172.491 186.833C172.638 186.93 172.736 186.979 172.736 186.979Z" fill="#263238"/>
<g opacity="0.2">
<g opacity="0.2">
<path opacity="0.2" d="M142.249 197.947C143.08 194.55 145.376 191.347 148.454 189.648C151.532 187.95 155.098 187.27 158.616 187.125C160.766 187.028 163.111 187.173 164.821 188.435C164.821 188.435 160.277 190.036 156.906 196.006C151.874 193.531 146.206 194.598 142.249 197.947Z" fill="black"/>
</g>
</g>
<path d="M142.933 220.999C142.933 220.999 142.884 220.902 142.835 220.708C142.787 220.514 142.738 220.223 142.64 219.883C142.591 219.689 142.542 219.495 142.493 219.301C142.444 219.058 142.445 218.815 142.396 218.573C142.347 218.039 142.2 217.457 142.2 216.777C142.2 216.437 142.151 216.098 142.151 215.758C142.151 215.418 142.151 215.03 142.151 214.642C142.151 213.865 142.249 213.04 142.347 212.167C142.591 210.42 143.031 208.527 143.764 206.634C144.496 204.741 145.425 203.043 146.402 201.587C146.646 201.247 146.89 200.859 147.135 200.519C147.379 200.179 147.672 199.888 147.916 199.597C148.161 199.306 148.405 199.015 148.649 198.724C148.894 198.481 149.138 198.19 149.382 197.996C149.822 197.51 150.31 197.122 150.701 196.782C151.092 196.443 151.434 196.151 151.727 195.909C152.02 195.715 152.216 195.521 152.411 195.423C152.558 195.326 152.656 195.278 152.656 195.278C152.656 195.278 152.607 195.375 152.46 195.472C152.265 195.618 152.069 195.812 151.825 196.006C151.532 196.248 151.19 196.54 150.799 196.879C150.408 197.268 149.968 197.607 149.529 198.141C149.284 198.384 149.089 198.627 148.845 198.918C148.6 199.16 148.356 199.5 148.112 199.791C147.868 200.082 147.623 200.374 147.379 200.713C147.135 201.053 146.89 201.393 146.646 201.732C145.718 203.188 144.79 204.887 144.057 206.731C143.373 208.624 142.933 210.468 142.64 212.167C142.542 213.04 142.444 213.865 142.444 214.642C142.444 215.03 142.396 215.418 142.444 215.758C142.444 216.098 142.493 216.437 142.493 216.777C142.493 217.457 142.591 218.039 142.64 218.524C142.689 218.767 142.689 219.01 142.738 219.252C142.786 219.446 142.835 219.689 142.835 219.835C142.884 220.174 142.933 220.465 142.982 220.66C142.933 220.854 142.933 220.999 142.933 220.999Z" fill="#FAFAFA"/>
<path d="M168.925 220.757C168.925 220.757 168.827 220.708 168.68 220.562C168.534 220.417 168.29 220.223 168.045 220.029C167.752 219.786 167.459 219.495 167.068 219.107C166.726 218.718 166.286 218.33 165.847 217.845C165.407 217.359 164.919 216.826 164.479 216.195C164.235 215.903 163.99 215.564 163.746 215.224C163.502 214.884 163.257 214.545 163.013 214.205C162.085 212.749 161.157 211.099 160.375 209.255C158.811 205.566 158.079 202.024 157.688 199.5C157.492 198.238 157.395 197.171 157.346 196.443C157.297 196.103 157.297 195.812 157.297 195.618C157.297 195.423 157.297 195.326 157.297 195.326C157.297 195.326 157.346 195.423 157.346 195.618C157.395 195.812 157.395 196.103 157.443 196.443C157.541 197.171 157.688 198.19 157.883 199.451C158.323 201.975 159.056 205.518 160.619 209.158C161.401 210.953 162.28 212.603 163.209 214.059C163.453 214.399 163.697 214.739 163.893 215.078C164.137 215.418 164.381 215.709 164.577 216.049C165.016 216.68 165.505 217.214 165.896 217.699C166.286 218.184 166.726 218.621 167.068 219.009C167.41 219.398 167.752 219.689 167.996 219.932C168.241 220.174 168.436 220.368 168.583 220.514C168.876 220.66 168.974 220.708 168.925 220.757Z" fill="#FAFAFA"/>
<path d="M188.761 220.66C188.761 220.66 188.761 220.611 188.761 220.514C188.761 220.417 188.761 220.32 188.761 220.174C188.761 219.835 188.761 219.349 188.761 218.767C188.761 217.554 188.712 215.806 188.468 213.671C188.223 211.536 187.784 209.012 186.953 206.294C186.122 203.577 184.803 200.713 182.898 198.044C181.921 196.734 180.846 195.52 179.722 194.453C178.55 193.434 177.377 192.56 176.107 191.832C173.615 190.425 171.075 189.745 168.974 189.503C166.824 189.26 165.065 189.454 163.893 189.697C163.6 189.745 163.355 189.842 163.111 189.891C162.867 189.939 162.72 189.988 162.525 190.036C162.378 190.085 162.28 190.085 162.183 190.134C162.085 190.134 162.085 190.182 162.036 190.182C162.036 190.182 162.085 190.182 162.134 190.134C162.232 190.085 162.329 190.085 162.476 190.036C162.622 189.988 162.818 189.939 163.062 189.842C163.306 189.794 163.551 189.697 163.844 189.648C165.016 189.357 166.775 189.163 168.974 189.357C171.123 189.6 173.713 190.231 176.205 191.687C177.475 192.366 178.696 193.288 179.869 194.307C181.041 195.375 182.116 196.588 183.093 197.898C185.048 200.568 186.367 203.48 187.197 206.246C188.028 208.964 188.468 211.536 188.663 213.671C188.858 215.806 188.858 217.554 188.858 218.767C188.858 219.349 188.81 219.835 188.81 220.174C188.81 220.32 188.81 220.417 188.81 220.514C188.81 220.611 188.761 220.66 188.761 220.66Z" fill="#FAFAFA"/>
<path d="M112.691 98.5072C111.225 97.9248 110.541 95.935 111.323 94.5762C111.86 93.6055 112.984 93.0232 113.326 91.9555C113.57 91.179 113.375 90.354 113.082 89.5775C112.789 88.801 112.398 88.073 112.251 87.2965C112.153 86.4715 112.349 85.5494 113.082 85.1612C114.059 84.5788 115.329 85.2582 116.062 86.0832C117.674 87.8304 118.261 90.451 117.674 92.732C117.381 93.7026 116.941 94.6247 116.599 95.6438C116.306 96.6145 116.16 97.7307 116.599 98.6528" fill="#F5F5F5"/>
<path d="M113.864 88.0245C113.864 88.0245 114.01 88.1216 114.157 88.2672C114.303 88.4613 114.548 88.7525 114.694 89.1893C114.89 89.626 114.987 90.1599 114.939 90.7908C114.89 91.3731 114.694 92.0526 114.303 92.6349C113.913 93.2173 113.375 93.6541 113.131 94.1394C112.887 94.6247 112.789 95.1586 112.838 95.5953C112.887 96.4689 113.277 96.9057 113.229 96.9542C113.229 96.9542 113.131 96.8571 112.984 96.663C112.838 96.4204 112.691 96.0806 112.642 95.6439C112.593 95.2071 112.642 94.6247 112.887 94.0424C113.18 93.46 113.668 93.0232 114.059 92.4894C114.45 91.9555 114.645 91.3246 114.694 90.7422C114.743 90.1599 114.645 89.6746 114.499 89.2378C114.206 88.4613 113.815 88.073 113.864 88.0245Z" fill="#263238"/>
<path d="M115.573 87.8304C115.573 87.8304 115.72 87.9274 115.867 88.073C116.013 88.2671 116.257 88.5583 116.404 88.9951C116.599 89.4319 116.697 89.9657 116.648 90.5966C116.599 91.179 116.404 91.8584 116.013 92.4408C115.622 93.0232 115.085 93.4599 114.841 93.9452C114.596 94.4306 114.499 94.9644 114.547 95.4012C114.596 96.2747 114.987 96.7115 114.938 96.76C114.938 96.76 114.841 96.663 114.694 96.4689C114.547 96.2262 114.401 95.8865 114.352 95.4497C114.303 95.0129 114.352 94.4306 114.596 93.8482C114.889 93.2658 115.378 92.829 115.769 92.2952C116.16 91.7614 116.355 91.1305 116.404 90.5481C116.453 89.9657 116.355 89.4804 116.209 89.0436C115.964 88.2671 115.525 87.8789 115.573 87.8304Z" fill="#263238"/>
<path d="M110.786 77.1535C110.346 77.3962 110.053 77.8815 110.004 78.3668C109.955 78.8521 110.102 79.3374 110.297 79.7742C110.492 80.1139 110.786 80.4536 111.128 80.6478C111.47 80.8419 111.909 80.9389 112.3 80.7934C112.789 80.6478 113.18 80.1624 113.375 79.6771C113.668 78.9006 113.619 77.8815 113.033 77.2991C112.447 76.6682 111.323 76.5712 110.737 77.1535" fill="#F5F5F5"/>
<path d="M117.039 99.8175C117.039 99.769 117.186 99.6234 117.528 99.5263C117.87 99.4292 118.407 99.3322 119.091 99.3807C119.726 99.4778 120.557 99.7204 121.241 100.351C121.925 100.934 122.413 101.904 122.56 102.923C122.658 103.943 122.413 104.962 121.827 105.69C121.29 106.418 120.557 106.854 119.97 107.097C119.335 107.34 118.798 107.34 118.407 107.291C118.065 107.243 117.87 107.146 117.87 107.097C117.87 106.952 118.7 107.097 119.726 106.563C120.264 106.321 120.801 105.884 121.241 105.253C121.68 104.622 121.876 103.797 121.778 102.972C121.68 102.098 121.29 101.37 120.752 100.837C120.215 100.303 119.58 100.012 118.993 99.9145C117.821 99.6719 117.039 99.9145 117.039 99.8175Z" fill="#455A64"/>
<path d="M108.782 98.0218L109.564 108.553C109.613 109.378 110.297 110.009 111.127 109.96L117.625 109.863C118.456 109.863 119.14 109.184 119.14 108.31V98.0218H108.782Z" fill="#455A64"/>
<path d="M103.066 104.962L109.173 101.953L112.251 101.71L115.183 101.468C115.183 101.468 115.525 102.535 113.424 103.263C111.714 103.846 110.15 104.331 110.15 104.331C110.15 104.331 110.639 107.194 109.027 108.796C107.414 110.397 105.9 111.028 105.9 111.028L103.066 104.962Z" fill="#FFBE9D"/>
<path d="M5.35303 84.3846L15.6129 179.166L62.4176 190.328L110.004 176.593C110.004 176.593 115.965 130.538 75.9998 125.005C75.9998 125.005 77.9052 84.8699 62.5642 78.3667L5.35303 84.3846Z" fill="#0F4C81"/>
<path d="M56.1638 79.0461C56.1638 79.0461 56.2615 79.0946 56.4081 79.1432C56.5547 79.2402 56.799 79.3373 57.0921 79.5314C57.6784 79.8711 58.5089 80.5506 59.3395 81.5212C61.0495 83.5595 62.7595 87.0537 63.9809 91.7127C65.2512 96.3231 66.1306 102.05 66.668 108.504C67.2054 114.959 67.4497 122.142 67.2543 129.858L67.1566 129.712C68.378 129.907 69.5994 130.004 70.772 130.246C71.9934 130.489 73.2148 130.683 74.4362 131.071C76.8791 131.654 79.3219 132.576 81.667 133.692C84.9404 135.294 87.8718 137.38 90.3146 139.855C90.6078 140.195 90.9009 140.486 91.1941 140.826L91.6338 141.311L92.0246 141.797C92.2689 142.136 92.562 142.476 92.8063 142.816C93.0506 143.156 93.2949 143.495 93.5392 143.835C94.0277 144.514 94.4186 145.242 94.8583 145.97C95.0537 146.359 95.2492 146.698 95.4446 147.087L95.7377 147.62L95.982 148.203C97.3989 151.163 98.2783 154.221 98.8157 157.23C99.1088 158.734 99.2554 160.19 99.3531 161.646C99.4508 163.102 99.4508 164.509 99.3531 165.917V166.014H99.3043C90.5101 168.246 83.1816 170.09 78.1005 171.352C75.5599 171.983 73.5568 172.468 72.1888 172.808C71.5048 172.954 71.0163 173.099 70.6254 173.196C70.2834 173.293 70.088 173.293 70.088 173.293C70.088 173.293 70.2834 173.245 70.6254 173.148C70.9674 173.051 71.5048 172.905 72.1888 172.759C73.5568 172.42 75.5599 171.886 78.1005 171.255C83.1816 169.945 90.4612 168.1 99.3043 165.82L99.2066 165.917C99.3043 164.558 99.3043 163.15 99.2066 161.694C99.1088 160.238 98.9623 158.783 98.6691 157.327C98.1317 154.366 97.2523 151.309 95.8354 148.397L95.5912 147.863L95.298 147.329C95.1026 146.99 94.9072 146.601 94.7117 146.262C94.272 145.582 93.8812 144.806 93.3926 144.175C93.1483 143.835 92.904 143.495 92.6598 143.156C92.4155 142.816 92.1223 142.476 91.8781 142.185L91.4872 141.7L91.0475 141.214C90.7543 140.923 90.4612 140.583 90.1681 140.244C87.7741 137.769 84.8427 135.73 81.5693 134.129C79.2242 133.013 76.8302 132.09 74.3874 131.508C73.1659 131.168 71.9445 130.974 70.7231 130.683C69.5017 130.44 68.2803 130.343 67.1077 130.149H67.01V130.052C67.2054 122.384 67.01 115.202 66.4726 108.747C65.9352 102.292 65.0557 96.6143 63.8343 92.0039C62.6129 87.3934 60.9518 83.8507 59.2906 81.8124C58.4601 80.7932 57.6295 80.1623 57.0921 79.7741C56.799 79.58 56.5547 79.4829 56.4081 79.3858C56.2615 79.0946 56.1638 79.0461 56.1638 79.0461Z" fill="#263238"/>
<path d="M69.1109 162.131C69.1109 162.131 69.1597 162.228 69.1597 162.374C69.2086 162.568 69.2086 162.811 69.2574 163.15C69.3551 163.781 69.4529 164.752 69.5994 165.917C69.8437 168.295 70.088 171.546 70.1857 175.138C70.2834 178.777 70.2346 182.029 70.1857 184.407C70.1368 185.572 70.1368 186.494 70.088 187.222C70.088 187.513 70.0391 187.804 70.0391 187.998C70.0391 188.192 70.0391 188.241 69.9903 188.241C69.9903 188.241 69.9903 188.144 69.9903 187.998C69.9903 187.804 69.9903 187.561 69.9903 187.222C69.9903 186.542 69.9903 185.572 69.9903 184.407C69.9903 182.029 70.0391 178.777 69.9414 175.138C69.8437 171.546 69.6483 168.246 69.404 165.917C69.3063 164.752 69.2086 163.83 69.1109 163.15C69.062 162.859 69.062 162.617 69.062 162.374C69.1109 162.228 69.1109 162.131 69.1109 162.131Z" fill="#263238"/>
<path d="M76.3905 124.665C76.3905 124.714 75.853 124.956 74.9736 125.345C74.0942 125.733 72.9216 126.315 71.6025 126.995C70.3322 127.674 69.1597 128.354 68.378 128.887C67.5474 129.373 67.0588 129.713 67.0588 129.664C67.0588 129.615 67.4985 129.276 68.2803 128.742C69.062 128.208 70.1857 127.48 71.5048 126.801C72.7751 126.121 73.9965 125.587 74.9248 125.199C75.8042 124.811 76.3905 124.617 76.3905 124.665Z" fill="#263238"/>
<path d="M32.2731 106.757C32.2731 106.757 32.2242 106.66 32.1754 106.466C32.1265 106.272 32.0288 105.981 31.9311 105.641C31.7356 104.913 31.3936 103.845 31.0517 102.632C30.2699 100.109 29.1951 96.5658 27.2897 92.9745C25.3843 89.3832 22.7949 86.6655 20.6452 85.1125C19.5703 84.336 18.6421 83.8022 17.9581 83.4625C17.2741 83.1227 16.8832 82.9771 16.9321 82.9771C16.9321 82.9771 17.0298 82.9771 17.2252 83.0742C17.4206 83.1713 17.6649 83.2198 18.0069 83.4139C18.6909 83.7051 19.668 84.2389 20.7429 85.0154C21.8666 85.7919 23.0392 86.8596 24.2117 88.17C25.3843 89.4803 26.508 91.1303 27.4851 92.926C29.4394 96.5173 30.4654 100.109 31.1982 102.681C31.5402 103.943 31.8334 105.01 31.9799 105.738C32.0776 106.078 32.1265 106.369 32.1754 106.563C32.2731 106.66 32.2731 106.757 32.2731 106.757Z" fill="#263238"/>
<path d="M36.3282 83.0258L38.3313 106.029L49.9103 105.107C49.9592 103.748 49.8615 98.5557 49.8615 98.5557C49.8615 98.5557 54.6983 97.8277 54.7471 93.0231C54.796 90.6937 54.454 85.8891 54.112 81.5698C53.7211 76.7653 49.5195 73.1254 44.6827 73.4166C39.6504 73.7078 35.8884 78.0756 36.3282 83.0258Z" fill="#FFBE9D"/>
<path d="M49.9102 98.5071C49.9102 98.5071 46.8811 98.7498 43.6077 96.7115C43.6077 96.7115 45.0734 100.157 49.9102 99.7204V98.5071Z" fill="#EB996E"/>
<path d="M52.9393 84.7728C52.9393 85.1125 52.6462 85.4523 52.2553 85.4523C51.8645 85.4523 51.5713 85.2096 51.5225 84.8214C51.5225 84.4816 51.8156 84.1419 52.2065 84.1419C52.5973 84.0934 52.8904 84.3846 52.9393 84.7728Z" fill="#263238"/>
<path d="M53.0856 83.9964C52.9879 84.0934 52.4993 83.7052 51.7176 83.7052C50.9848 83.7052 50.4473 84.0934 50.3496 83.9964C50.3008 83.9478 50.3985 83.8023 50.6428 83.6081C50.887 83.414 51.2779 83.2684 51.7176 83.2684C52.1573 83.2684 52.5482 83.4625 52.7924 83.6081C53.0367 83.8023 53.1344 83.9478 53.0856 83.9964Z" fill="#263238"/>
<path d="M45.6595 84.9185C45.6595 85.2582 45.3664 85.5979 44.9755 85.5979C44.5847 85.5979 44.2915 85.3553 44.2427 84.967C44.2427 84.6273 44.5358 84.2876 44.9267 84.2876C45.3175 84.2876 45.6595 84.5788 45.6595 84.9185Z" fill="#263238"/>
<path d="M45.806 84.1426C45.7083 84.2397 45.2198 83.8514 44.4381 83.8514C43.7052 83.8514 43.1678 84.2397 43.0701 84.1426C43.0212 84.0941 43.1189 83.9485 43.3632 83.7544C43.6075 83.5602 43.9983 83.4146 44.4381 83.4146C44.8778 83.4146 45.2686 83.6088 45.5129 83.7544C45.7572 83.8999 45.806 84.0941 45.806 84.1426Z" fill="#263238"/>
<path d="M48.493 89.5774C48.493 89.5289 48.9327 89.4803 49.7144 89.3833C49.9099 89.3833 50.1053 89.3347 50.1053 89.1892C50.1541 89.0436 50.0564 88.8494 49.9587 88.6553C49.7633 88.2185 49.6167 87.7332 49.4213 87.1994C48.6396 85.1611 48.1022 83.4625 48.151 83.4625C48.2487 83.414 48.9327 85.064 49.7144 87.1023C49.9099 87.5876 50.0564 88.0729 50.2519 88.5583C50.3007 88.7524 50.4473 88.995 50.3496 89.2862C50.3007 89.4318 50.1541 89.5289 50.0564 89.5774C49.9587 89.6259 49.8122 89.6259 49.7144 89.6259C48.9327 89.6259 48.493 89.6259 48.493 89.5774Z" fill="#263238"/>
<path d="M46.2946 90.1113C46.3923 90.1113 46.3923 90.8878 47.1252 91.4701C47.8092 92.0525 48.6886 91.9555 48.6886 92.0525C48.6886 92.101 48.4932 92.1981 48.1512 92.1981C47.8092 92.1981 47.2718 92.101 46.832 91.7613C46.3923 91.4216 46.2458 90.9363 46.1969 90.6451C46.1481 90.3054 46.2458 90.1113 46.2946 90.1113Z" fill="#263238"/>
<path d="M45.9527 81.2301C45.9038 81.4242 45.1221 81.3271 44.2916 81.4242C43.4121 81.5213 42.7281 81.7639 42.5816 81.5698C42.5327 81.4727 42.6304 81.2786 42.9236 81.0845C43.2167 80.8904 43.6564 80.6962 44.1938 80.6477C44.7313 80.5992 45.171 80.6962 45.513 80.7933C45.855 80.9874 46.0015 81.133 45.9527 81.2301Z" fill="#263238"/>
<path d="M52.7927 81.8609C52.6462 82.0065 52.1576 81.8609 51.5225 81.8609C50.8873 81.8124 50.3988 81.958 50.2522 81.8124C50.2033 81.7153 50.3011 81.5697 50.4965 81.4242C50.7408 81.2786 51.0828 81.133 51.5225 81.133C51.9622 81.133 52.3042 81.2786 52.4996 81.4727C52.7927 81.6183 52.8416 81.7639 52.7927 81.8609Z" fill="#263238"/>
<path d="M41.5555 77.7844C41.5555 77.7844 41.5066 77.7844 41.5555 77.7844C40.7738 78.4153 40.2363 79.2888 40.1386 80.2595C40.1386 80.308 40.1386 80.308 40.1386 80.3565C39.9432 81.7154 39.9921 83.1228 39.7966 84.4817C39.6012 85.8405 39.1126 87.2479 38.0866 88.17C37.6469 88.5583 36.9141 88.8009 36.5721 88.3641C36.4255 88.17 36.4255 87.9759 36.3767 87.7332C36.1324 84.4331 35.2041 81.5213 35.2041 78.0756C35.2041 77.1535 35.6438 76.2314 36.4255 75.6976C37.1584 75.1637 38.0378 74.6299 38.8684 75.0181C39.6989 75.4064 40.7249 76.9108 41.36 77.5417" fill="#263238"/>
<path d="M37.9401 85.2097C37.8424 85.1611 34.6178 84.2391 34.7156 87.4906C34.8133 90.7907 38.0867 89.9657 38.1355 89.8686C38.1355 89.8201 37.9401 85.2097 37.9401 85.2097Z" fill="#FFBE9D"/>
<path d="M37.0609 88.7039C37.0609 88.7039 37.0121 88.7525 36.9144 88.801C36.8166 88.8495 36.6701 88.8981 36.4746 88.801C36.1326 88.7039 35.7907 88.1216 35.7907 87.5392C35.7907 87.248 35.8395 86.9568 35.9372 86.7142C36.0349 86.4715 36.1815 86.2774 36.3769 86.2774C36.5724 86.2288 36.6701 86.3259 36.7189 86.423C36.7678 86.52 36.7678 86.5686 36.7678 86.5686C36.7678 86.5686 36.8166 86.52 36.8166 86.3744C36.8166 86.3259 36.7678 86.2288 36.6701 86.1803C36.5724 86.1318 36.4746 86.0833 36.3281 86.0833C36.0838 86.1318 35.8395 86.3259 35.7418 86.6171C35.5952 86.8598 35.5464 87.1995 35.5952 87.5392C35.6441 88.2186 35.9861 88.801 36.4746 88.9466C36.7189 88.9951 36.9144 88.9466 37.0121 88.8495C37.0609 88.801 37.1098 88.7039 37.0609 88.7039Z" fill="#EB996E"/>
<path d="M38.722 75.5034C37.8914 74.1931 40.1388 72.3004 41.7511 71.8151C43.3634 71.2812 45.5131 72.1063 47.1254 72.6401C48.1513 72.9798 49.1773 73.4651 50.2522 73.4166C50.985 73.3681 51.669 73.1254 52.353 72.8828C53.037 72.6401 53.721 72.3975 54.4539 72.446C55.1867 72.4945 55.9196 72.8828 56.2127 73.5622C56.5058 74.2416 56.115 75.1152 55.3821 75.2123C56.3104 74.7269 57.6295 75.3578 57.7761 76.377C57.9227 77.3961 56.8478 78.4153 55.8218 78.1726C56.3104 77.8329 56.9944 78.4153 56.9455 78.9977C56.8967 79.58 56.3593 80.0168 55.8218 80.2595C54.4539 80.8418 52.8416 80.6477 51.4247 80.211C50.0079 79.7256 48.6888 78.9977 47.2719 78.4638C45.8551 77.93 43.51 77.0564 42.0931 77.5417C41.0671 77.93 40.3343 79.1433 39.748 78.9006C39.1617 78.658 38.8197 78.0271 38.722 77.4447C38.5754 76.7652 38.6731 76.1343 38.722 75.5034Z" fill="#263238"/>
<path d="M55.7727 75.1152C55.7238 75.1152 55.6261 75.3578 55.2353 75.7461C54.8933 76.1343 54.2581 76.6197 53.3787 76.9108C52.4993 77.202 51.3267 77.2991 50.2519 76.7652C49.1282 76.2799 48.151 75.2608 47.0762 74.3387C45.9525 73.3681 44.6822 72.6886 43.3631 72.5916C42.0439 72.446 40.8714 72.9313 40.1874 73.6593C39.5034 74.3872 39.4057 75.2608 39.4545 75.7946C39.4545 76.0858 39.5523 76.2799 39.6011 76.377C39.65 76.5226 39.6988 76.5711 39.6988 76.5711C39.7477 76.5711 39.6011 76.2799 39.5523 75.7946C39.5523 75.3093 39.6988 74.4843 40.334 73.8534C40.9691 73.1739 42.0928 72.7857 43.3142 72.9313C44.5356 73.0769 45.7571 73.7078 46.8319 74.6299C47.9067 75.552 48.8839 76.5711 50.1053 77.105C51.2779 77.6388 52.5481 77.4932 53.4764 77.1535C54.4047 76.8138 54.991 76.2799 55.333 75.8432C55.4795 75.649 55.6261 75.4549 55.675 75.3093C55.7727 75.2122 55.8215 75.1152 55.7727 75.1152Z" fill="#455A64"/>
<path d="M37.1096 85.0641C37.1096 85.0641 37.2562 84.967 37.3539 84.7243C37.5005 84.4817 37.5982 84.0449 37.5005 83.5596C37.4516 82.4919 36.4745 81.3757 36.3768 79.9198C36.3279 79.1918 36.4256 78.5124 36.7188 77.9785C37.0119 77.4447 37.5005 77.105 37.9402 76.9109C38.3799 76.7167 38.7708 76.7167 39.0639 76.7653C39.3082 76.8138 39.4548 76.8623 39.5036 76.8623C39.5036 76.8623 39.4059 76.7653 39.1128 76.6682C38.8196 76.5711 38.3799 76.5711 37.8914 76.7167C37.4028 76.8623 36.8654 77.2506 36.4745 77.8329C36.1325 78.4153 35.9859 79.1918 36.0348 79.9683C36.0837 80.7448 36.3768 81.4728 36.6699 82.0551C36.9631 82.6375 37.2074 83.1713 37.2562 83.6567C37.4516 84.5302 37.0608 85.0641 37.1096 85.0641Z" fill="#455A64"/>
<path d="M101.991 174.264L103.604 201.296H105.802L106.779 174.264H101.991Z" fill="#263238"/>
<path d="M62.0266 187.367L63.6389 214.351H65.8374L66.8146 187.367H62.0266Z" fill="#263238"/>
<path d="M16.2966 178.486L17.9089 201.296H20.1075L21.0846 178.486H16.2966Z" fill="#263238"/>
<path d="M37.745 101.953C37.745 101.953 29.4394 107.097 28.3645 111.028C28.3645 111.028 26.7522 114.231 28.3645 119.715C29.9768 125.151 52.8906 149.465 52.8906 149.465L72.4332 142.233L63.8345 126.995C63.8345 126.995 61.4405 104.573 60.6099 103.312C57.874 99.235 47.956 100.885 47.956 100.885L37.745 101.953Z" fill="#455A64"/>
<path d="M58.7046 101.71C59.1443 102.001 76.977 108.747 76.977 108.747L102.871 104.622L106.242 111.756L84.9406 120.2C81.7649 121.462 78.2961 121.753 74.925 121.025L62.7597 118.356L58.7046 101.71Z" fill="#455A64"/>
<path d="M63.8345 127.286C63.8345 127.286 63.7857 127.043 63.7368 126.558C63.6879 126.073 63.6391 125.393 63.5902 124.52C63.4437 122.821 63.1017 120.443 62.6619 117.871C62.2222 115.299 61.9291 112.921 61.7825 111.222C61.7337 110.349 61.6848 109.669 61.6848 109.184C61.6848 108.699 61.6848 108.456 61.6848 108.456C61.6848 108.456 61.7337 108.699 61.7825 109.184C61.8314 109.669 61.8802 110.349 61.9291 111.222C62.0757 112.921 62.4177 115.299 62.8574 117.871C63.2971 120.443 63.5902 122.821 63.6879 124.52C63.7368 125.393 63.7857 126.073 63.7857 126.558C63.8345 127.043 63.8345 127.286 63.8345 127.286Z" fill="#263238"/>
<path d="M63.8345 127.286C63.8345 127.334 63.2482 127.48 62.271 127.723C61.2939 128.014 59.9748 128.402 58.5091 128.936C57.0922 129.47 55.822 130.052 54.8937 130.538C53.9654 130.974 53.428 131.265 53.428 131.265C53.428 131.265 53.5257 131.168 53.77 131.023C54.0143 130.877 54.3563 130.683 54.796 130.392C55.6754 129.907 56.9457 129.276 58.4114 128.742C59.8771 128.208 61.1962 127.82 62.2222 127.577C62.7108 127.48 63.1016 127.383 63.3947 127.334C63.6879 127.286 63.8345 127.286 63.8345 127.286Z" fill="#263238"/>
<path d="M64.2253 127.868C64.2742 127.965 62.5153 128.548 60.6588 129.81C58.8022 131.071 57.6297 132.479 57.5808 132.43C57.5808 132.43 57.8251 132.042 58.3137 131.508C58.8022 130.974 59.5839 130.246 60.5122 129.615C61.4405 128.984 62.3688 128.499 63.0528 128.257C63.7367 127.917 64.1765 127.82 64.2253 127.868Z" fill="#263238"/>
<path d="M37.5005 103.554C37.4517 102.487 37.3539 101.37 37.3051 100.303C37.3051 100.109 37.3051 99.8659 37.4028 99.7203C37.6471 99.4776 38.0379 99.5747 38.3311 99.7203C41.1648 100.788 44.3893 100.837 47.1741 99.7203C47.8093 99.4776 48.4933 99.1379 49.1773 99.0409C49.8613 98.8953 50.643 98.9923 51.1804 99.4291C51.9132 100.06 51.9621 100.497 51.9621 101.467C52.011 103.117 51.9621 105.593 50.7895 106.757C49.959 107.534 48.8353 107.825 47.7116 108.068C45.171 108.65 42.5816 109.232 40.0411 108.699C38.9174 108.456 37.7937 107.971 37.1097 107.097C36.1814 105.835 37.1097 104.379 37.4517 102.875" fill="#455A64"/>
<path d="M52.011 100.448C52.011 100.448 52.011 100.545 52.0599 100.788C52.0599 101.031 52.0599 101.37 52.1088 101.71C52.0599 102.098 51.9622 102.535 51.7179 103.02C51.4736 103.506 51.0828 103.943 50.5942 104.379C50.1056 104.816 49.5193 105.204 48.8354 105.495C48.1514 105.787 47.3697 106.029 46.5879 106.175C44.1451 106.563 41.8977 106.369 40.3831 105.981C39.6014 105.787 39.0152 105.495 38.6243 105.253C38.4289 105.107 38.3312 105.01 38.2335 104.913C38.1846 104.816 38.1357 104.768 38.1357 104.768C38.1357 104.768 38.2823 104.962 38.6732 105.204C39.064 105.447 39.6503 105.69 40.432 105.835C41.9466 106.175 44.194 106.321 46.5391 105.932C47.3208 105.787 48.0536 105.593 48.7376 105.301C49.3728 105.01 49.9591 104.622 50.4476 104.234C51.4248 103.457 51.9133 102.438 52.011 101.71C52.011 101.322 52.011 101.031 52.0599 100.788C52.011 100.545 52.011 100.448 52.011 100.448Z" fill="#263238"/>
<path d="M39.4546 105.495C39.4546 105.495 39.2103 105.253 38.9661 104.816C38.7218 104.379 38.5263 103.651 38.4775 102.875C38.4286 102.098 38.5752 101.37 38.7706 100.885C38.9661 100.4 39.1615 100.157 39.1615 100.157C39.2592 100.206 38.6241 101.322 38.7218 102.826C38.8195 104.379 39.5523 105.447 39.4546 105.495Z" fill="#263238"/>
<path d="M42.8748 106.029C42.8748 106.029 42.6305 105.787 42.3862 105.35C42.1419 104.865 41.8488 104.185 41.7999 103.36C41.7022 102.535 41.8488 101.807 41.9954 101.273C42.1419 100.739 42.3374 100.497 42.3862 100.497C42.4839 100.497 41.8977 101.759 42.0442 103.312C42.1419 104.913 42.9237 105.981 42.8748 106.029Z" fill="#263238"/>
<path d="M46.2458 105.69C46.1969 105.738 45.5618 104.622 45.2687 103.166C44.9755 101.662 45.0732 100.448 45.171 100.448C45.2687 100.448 45.2198 101.662 45.513 103.117C45.8061 104.525 46.2947 105.641 46.2458 105.69Z" fill="#263238"/>
<path d="M49.8122 104.573C49.7634 104.573 49.8122 104.234 49.7634 103.748C49.7145 103.263 49.5679 102.584 49.2259 101.904C48.8839 101.225 48.3954 100.691 48.0045 100.351C47.6137 100.011 47.3694 99.8659 47.3694 99.8174C47.3694 99.7688 47.7114 99.9144 48.1022 100.206C48.5419 100.497 49.0305 101.031 49.4214 101.759C49.8122 102.487 49.9099 103.215 49.9588 103.748C49.9588 104.234 49.8611 104.573 49.8122 104.573Z" fill="#263238"/>
<path d="M33.8854 106.32C33.5922 106.515 33.6411 107.097 33.9831 107.243C34.3251 107.388 34.7648 107.097 34.7648 106.709C34.7159 106.369 34.2274 106.126 33.8854 106.32Z" fill="#E0E0E0"/>
<path d="M37.5008 126.752C37.2077 126.946 37.2565 127.529 37.5985 127.674C37.9405 127.82 38.3803 127.529 38.3803 127.14C38.3803 126.801 37.8917 126.509 37.5008 126.752Z" fill="#E0E0E0"/>
<path d="M45.8553 111.222C45.5622 111.416 45.611 111.999 45.953 112.144C46.295 112.29 46.7347 111.999 46.7347 111.61C46.6859 111.271 46.1973 111.028 45.8553 111.222Z" fill="#E0E0E0"/>
<path d="M59.2423 112.241C58.9491 112.435 58.998 113.018 59.34 113.163C59.682 113.309 60.1217 113.018 60.1217 112.63C60.0729 112.29 59.5843 111.999 59.2423 112.241Z" fill="#E0E0E0"/>
<path d="M58.4115 104.137C58.1183 104.331 58.1672 104.913 58.5092 105.059C58.8512 105.204 59.2909 104.913 59.2909 104.525C59.242 104.185 58.7535 103.942 58.4115 104.137Z" fill="#E0E0E0"/>
<path d="M66.2286 107.582C65.9355 107.776 65.9843 108.359 66.3263 108.504C66.6683 108.65 67.108 108.359 67.108 107.971C67.0592 107.631 66.5706 107.34 66.2286 107.582Z" fill="#E0E0E0"/>
<path d="M79.4198 117.434C79.1266 117.628 79.1755 118.211 79.5175 118.356C79.8595 118.502 80.2992 118.211 80.2992 117.822C80.2992 117.483 79.8106 117.191 79.4198 117.434Z" fill="#E0E0E0"/>
<path d="M82.1559 110.543C81.8627 110.737 81.9116 111.319 82.2536 111.465C82.5956 111.61 83.0353 111.319 83.0353 110.931C83.0353 110.591 82.5467 110.349 82.1559 110.543Z" fill="#E0E0E0"/>
<path d="M93.7838 109.378C93.4906 109.572 93.5395 110.154 93.8815 110.3C94.2235 110.446 94.6632 110.154 94.6632 109.766C94.6632 109.426 94.1746 109.184 93.7838 109.378Z" fill="#E0E0E0"/>
<path d="M101.259 110.397C100.966 110.591 101.014 111.174 101.356 111.319C101.698 111.465 102.138 111.174 102.138 110.785C102.089 110.446 101.601 110.203 101.259 110.397Z" fill="#E0E0E0"/>
<path d="M88.6048 115.444C88.3117 115.638 88.3606 116.221 88.7025 116.366C89.0445 116.512 89.4843 116.221 89.4843 115.833C89.4354 115.444 88.9468 115.202 88.6048 115.444Z" fill="#E0E0E0"/>
<path d="M72.8241 113.212C72.5309 113.406 72.5798 113.988 72.9218 114.134C73.2638 114.28 73.7035 113.988 73.7035 113.6C73.6546 113.26 73.1661 113.018 72.8241 113.212Z" fill="#E0E0E0"/>
<path d="M65.6913 114.911C65.3981 115.105 65.447 115.687 65.789 115.833C66.131 115.978 66.5707 115.687 66.5707 115.299C66.5218 114.911 66.0333 114.668 65.6913 114.911Z" fill="#E0E0E0"/>
<path d="M59.4864 122.336C59.1933 122.53 59.2421 123.112 59.5841 123.258C59.9261 123.403 60.3659 123.112 60.3659 122.724C60.317 122.384 59.8284 122.093 59.4864 122.336Z" fill="#E0E0E0"/>
<path d="M54.9916 119.133C54.6984 119.327 54.7473 119.909 55.0893 120.055C55.4313 120.2 55.871 119.909 55.871 119.521C55.8221 119.133 55.3335 118.89 54.9916 119.133Z" fill="#E0E0E0"/>
<path d="M53.3302 127.868C53.037 128.062 53.0859 128.645 53.4279 128.79C53.7699 128.936 54.2096 128.645 54.2096 128.257C54.1607 127.917 53.6722 127.626 53.3302 127.868Z" fill="#E0E0E0"/>
<path d="M51.3761 106.369C51.0829 106.563 51.1318 107.146 51.4738 107.291C51.8158 107.437 52.2555 107.146 52.2555 106.757C52.2066 106.418 51.7181 106.126 51.3761 106.369Z" fill="#E0E0E0"/>
<path d="M45.9041 126.218C45.611 126.412 45.6599 126.995 46.0019 127.14C46.3439 127.286 46.7836 126.995 46.7836 126.606C46.7347 126.267 46.2461 125.976 45.9041 126.218Z" fill="#E0E0E0"/>
<path d="M42.3377 120.152C42.0446 120.346 42.0935 120.928 42.4355 121.074C42.7775 121.22 43.2172 120.928 43.2172 120.54C43.1683 120.2 42.6797 119.958 42.3377 120.152Z" fill="#E0E0E0"/>
<path d="M58.5577 137.186C58.5577 137.186 58.5577 137.235 58.6065 137.283C58.6554 137.38 58.6554 137.478 58.7042 137.623C58.8019 137.914 58.8997 138.303 58.9974 138.885C59.0951 139.419 59.2417 140.098 59.2905 140.875C59.3394 141.651 59.3882 142.573 59.1439 143.544C59.0462 144.029 58.8997 144.563 58.6554 145.048C58.4599 145.534 58.118 146.019 57.6782 146.456C57.2385 146.893 56.7011 147.232 56.0171 147.281C55.3331 147.378 54.698 147.135 54.1606 146.698C53.6231 146.31 53.1834 145.728 52.7926 145.145C52.4506 144.563 52.1086 143.884 51.8643 143.253C51.3757 141.894 51.0826 140.438 50.8383 138.933C50.0077 132.916 49.7146 127.432 49.6657 123.452C49.6169 121.462 49.6657 119.861 49.7146 118.745C49.7146 118.211 49.7635 117.774 49.7635 117.483C49.7635 117.337 49.7635 117.24 49.7635 117.143C49.7635 117.046 49.7635 117.046 49.7635 117.046C49.7635 117.046 49.7635 117.094 49.7635 117.143C49.7635 117.24 49.7635 117.337 49.7635 117.483C49.7635 117.774 49.7635 118.211 49.7635 118.745C49.7635 119.861 49.7635 121.462 49.8123 123.452C49.91 127.432 50.252 132.916 51.0826 138.885C51.278 140.389 51.5712 141.845 52.0597 143.156C52.304 143.835 52.5971 144.466 52.9391 145.048C53.2811 145.631 53.7208 146.165 54.2094 146.553C54.698 146.941 55.3331 147.135 55.9194 147.087C56.5057 147.038 57.0431 146.698 57.434 146.31C57.8248 145.922 58.1668 145.437 58.3622 144.951C58.6065 144.466 58.7531 143.981 58.8508 143.495C59.0462 142.525 59.0462 141.651 58.9974 140.875C58.9485 140.098 58.8508 139.419 58.7531 138.885C58.6554 138.351 58.5577 137.914 58.5088 137.623C58.4599 137.478 58.4599 137.38 58.4599 137.283C58.5577 137.235 58.5577 137.186 58.5577 137.186Z" fill="#E0E0E0"/>
<path d="M138.927 189.794L156.711 195.472L167.264 174.846C166.678 174.167 165.652 174.07 164.968 174.701L154.512 184.067L144.204 180.961L138.927 189.794Z" fill="#E0E0E0"/>
<path d="M101.454 153.347L105.167 167.761L127.104 167.178C127.788 167.178 128.276 166.548 128.13 165.868C128.032 165.48 127.788 165.189 127.397 165.043L114.157 160.433L111.958 149.95L101.454 153.347Z" fill="#E0E0E0"/>
<path d="M72.4331 142.234C72.4331 142.234 84.3541 123.646 89.4352 116.803C93.6369 111.125 105.558 111.028 107.317 120.006C108.636 126.704 117.039 156.113 117.039 156.113L100.917 158.006L95.4935 138.982C95.4935 138.982 85.8198 159.219 82.5464 161.549C79.273 163.83 61.9778 146.213 61.9778 146.213L72.4331 142.234Z" fill="#263238"/>
<path d="M148.258 180.476L107.854 162.083L64.3227 145.242L51.0825 149.465C51.0825 149.465 57.5805 165.431 59.4859 167.712C61.3913 169.993 76.4391 171.595 76.4391 171.595L102.724 176.933L143.373 192.948L148.258 180.476Z" fill="#263238"/>
<path d="M112.3 164.072C112.3 164.072 112.154 164.024 111.909 163.927C111.616 163.83 111.274 163.684 110.786 163.49C109.808 163.102 108.392 162.568 106.682 161.889C103.213 160.53 98.4249 158.686 93.1972 156.647C87.9207 154.609 83.1328 152.813 79.6639 151.454C77.9539 150.824 76.5371 150.29 75.56 149.901C75.0714 149.707 74.7294 149.562 74.4363 149.465C74.192 149.368 74.0454 149.319 74.0454 149.319C74.0454 149.319 74.192 149.368 74.4363 149.416C74.7294 149.513 75.0714 149.659 75.56 149.804C76.5371 150.144 77.9539 150.629 79.7128 151.26C83.1816 152.522 87.9696 154.318 93.2461 156.405C98.5226 158.443 103.262 160.336 106.731 161.694C108.441 162.374 109.808 162.956 110.786 163.345C111.225 163.539 111.616 163.684 111.909 163.83C112.154 164.024 112.3 164.072 112.3 164.072Z" fill="#455A64"/>
<path d="M97.2522 145.242C97.2522 145.242 97.1545 144.951 97.0079 144.466C96.8613 143.981 96.6659 143.204 96.4216 142.331C95.9331 140.535 95.3468 138.011 94.6628 135.245C93.9788 132.479 93.3925 129.955 93.0017 128.111C92.8062 127.189 92.6597 126.461 92.5619 125.927C92.4642 125.393 92.4154 125.102 92.4642 125.102C92.4642 125.102 92.5619 125.393 92.6597 125.879C92.8062 126.412 93.0017 127.14 93.1971 128.014C93.6368 129.858 94.2719 132.382 94.9071 135.148C95.5422 137.914 96.1285 140.389 96.5682 142.282C96.7636 143.156 96.9102 143.884 97.0568 144.466C97.2033 144.951 97.301 145.242 97.2522 145.242Z" fill="#455A64"/>
<path d="M94.8583 134.372C94.8583 134.42 94.4674 134.226 93.8812 133.838C93.3437 133.449 92.562 132.867 91.878 132.139C91.1452 131.411 90.6078 130.635 90.2658 130.052C89.9238 129.47 89.7283 129.082 89.7772 129.082C89.8261 129.033 90.6566 130.489 92.0735 131.945C93.4414 133.449 94.9071 134.274 94.8583 134.372Z" fill="#455A64"/>
<path d="M36.4746 87.2964C35.8883 87.3935 35.3509 87.6847 35.0578 88.17C34.7646 88.6553 34.7158 89.3348 34.9112 89.8686C35.0089 90.1598 35.3021 90.4995 35.6441 90.451C35.8395 90.4024 35.986 90.2568 36.0838 90.1113C36.1815 89.9171 36.1815 89.723 36.1815 89.5289C36.1815 89.4318 36.1815 89.2862 36.2792 89.1892C36.328 89.0921 36.4258 89.0436 36.5235 88.995C36.8166 88.8009 37.012 88.4612 37.012 88.1215C37.012 87.7818 36.8166 87.442 36.4746 87.2964Z" fill="#E0E0E0"/>
<path d="M52.4997 97.5365C52.4997 97.5365 52.4997 97.585 52.5485 97.6821C52.5974 97.7791 52.5974 97.9247 52.6462 98.0703C52.7439 98.4586 52.8905 98.9924 53.0371 99.6718C53.2325 100.351 53.4279 101.225 53.6722 102.195C53.9165 103.166 54.2096 104.282 54.4539 105.544C54.6982 106.806 54.8936 108.165 54.8448 109.669C54.7959 111.174 54.4539 112.775 53.5257 114.231C53.0371 114.959 52.402 115.59 51.6691 116.027C50.8874 116.464 50.008 116.755 49.0797 116.9C48.1514 116.997 47.1743 116.949 46.246 116.755C45.3177 116.561 44.3895 116.221 43.51 115.784C41.7512 114.911 40.2855 113.503 39.4061 111.853C38.5267 110.203 38.1358 108.456 37.745 106.854C37.0121 103.554 36.4747 100.594 36.0838 98.1188C35.693 95.5952 35.4487 93.5569 35.3021 92.1495C35.2044 91.4216 35.1555 90.8877 35.1555 90.548C35.1555 90.3539 35.1555 90.2568 35.1067 90.1112C35.1067 90.0142 35.1067 89.9656 35.1067 89.9656C35.1067 89.9656 35.1067 90.0142 35.1555 90.1112C35.1555 90.2083 35.2044 90.3539 35.2044 90.548C35.2533 90.9363 35.3021 91.4701 35.3998 92.1495C35.5953 93.5569 35.8395 95.5952 36.2793 98.0703C36.6701 100.594 37.2564 103.554 37.9892 106.806C38.3801 108.407 38.7709 110.155 39.6504 111.756C40.4809 113.358 41.8978 114.716 43.6078 115.541C44.4872 115.978 45.3666 116.318 46.2949 116.512C47.2231 116.706 48.1514 116.755 49.0308 116.658C49.9103 116.561 50.7897 116.269 51.5225 115.833C52.2554 115.396 52.8905 114.765 53.3302 114.086C54.2585 112.678 54.5516 111.077 54.6494 109.621C54.6982 108.165 54.5516 106.757 54.3074 105.544C54.0631 104.282 53.7699 103.166 53.5745 102.195C53.3302 101.225 53.1348 100.351 52.9882 99.6718C52.8417 98.9924 52.6951 98.4586 52.6462 98.0703C52.5974 97.8762 52.5974 97.7791 52.5485 97.6335C52.4997 97.585 52.4997 97.5365 52.4997 97.5365Z" fill="#E0E0E0"/>
<path d="M62.4665 190.328C62.8573 179.602 63.3459 167.227 60.5122 156.89C58.9488 151.26 56.7014 145.534 52.2554 141.845C46.1972 136.895 36.6213 135.973 28.8042 136.507C28.218 124.617 26.85 113.794 22.6483 102.681C21.0849 98.5071 19.2283 94.3819 16.3946 91.0333C13.5121 87.6847 9.75013 84.6272 5.35303 84.3846L15.6129 179.166L62.4665 190.328Z" fill="#0F4C81"/>
<path d="M70.3329 188.095C70.626 177.37 69.7954 160.869 66.9618 150.532C65.3983 144.903 63.1509 139.176 58.705 135.488C52.6468 130.538 43.0708 129.615 35.2538 130.149C34.6675 118.259 33.2995 107.437 29.0978 96.3232C27.5344 92.1495 25.6779 88.0244 22.8442 84.6758C19.9616 81.3271 9.79944 84.6758 5.40234 84.4331L22.209 172.857L62.4669 190.376L70.3329 188.095Z" fill="#0F4C81"/>
<g opacity="0.4">
<g opacity="0.4">
<path opacity="0.8" d="M62.4665 190.328C62.8573 179.602 63.3459 167.227 60.5122 156.89C58.9488 151.26 56.7014 145.534 52.2554 141.845C46.1972 136.895 36.6213 135.973 28.8042 136.507C28.218 124.617 26.85 113.794 22.6483 102.681C21.0849 98.5071 19.2283 94.3819 16.3946 91.0333C13.5121 87.6847 9.75013 84.6272 5.35303 84.3846L15.6129 179.166L62.4665 190.328Z" fill="black"/>
</g>
</g>
<path d="M29.5368 108.747C29.5368 108.747 17.7134 121.365 15.0752 133.013C14.098 137.38 16.0523 141.894 19.912 144.175C22.4037 145.631 25.3839 146.019 28.1199 145.194L50.3008 138.788L49.8123 130.877L28.3153 132.188L37.7935 119.618L41.6044 115.25L32.3216 106.029L29.5368 108.747Z" fill="#455A64"/>
<path d="M40.2853 141.7C40.2853 141.7 40.3342 141.651 40.4807 141.651C40.6273 141.603 40.7739 141.554 41.0182 141.457C41.5067 141.311 42.1907 141.117 43.0701 140.826C44.829 140.292 47.3695 139.564 50.3498 138.691L50.2521 138.788C50.1055 136.458 49.9101 133.741 49.7147 130.877L49.8124 130.974C48.5909 131.023 47.2718 131.12 46.0015 131.217C39.8456 131.654 34.3248 131.993 30.2697 132.285C28.2666 132.43 26.6543 132.527 25.4817 132.576C24.9443 132.624 24.5046 132.624 24.1626 132.624C24.016 132.624 23.9183 132.624 23.8206 132.624C23.7229 132.624 23.7229 132.624 23.7229 132.624C23.7229 132.624 23.7718 132.624 23.8206 132.624C23.9183 132.624 24.016 132.624 24.1626 132.576C24.4558 132.527 24.8955 132.527 25.4817 132.479C26.6543 132.382 28.2666 132.236 30.2697 132.091C34.2759 131.799 39.8456 131.363 46.0015 130.974C47.3207 130.877 48.591 130.78 49.8612 130.732H49.9589V130.829C50.1544 133.692 50.3009 136.361 50.4475 138.739V138.836H50.3498C47.3207 139.71 44.829 140.389 43.0213 140.923C42.1419 141.166 41.4579 141.36 40.9693 141.506C40.725 141.554 40.5785 141.603 40.4319 141.651C40.383 141.7 40.2853 141.748 40.2853 141.7Z" fill="#263238"/>
<path d="M28.755 132.479C28.7061 132.527 27.6313 131.508 25.9213 130.78C24.2113 130.052 22.6968 130.052 22.6968 129.955C22.6968 129.907 23.0876 129.907 23.6739 129.955C24.2602 130.004 25.1396 130.198 25.9702 130.538C26.8496 130.877 27.5336 131.363 28.0222 131.751C28.5596 132.139 28.8039 132.43 28.755 132.479Z" fill="#263238"/>
<path d="M32.7615 126.461C32.7615 126.461 32.8104 126.364 32.9081 126.218C33.0546 126.073 33.2012 125.879 33.3966 125.636C33.8363 125.102 34.4226 124.374 35.1066 123.403C35.7906 122.433 36.6212 121.268 37.4029 119.909C37.7937 119.23 38.1846 118.502 38.4289 117.677C38.722 116.9 38.8197 115.978 38.722 115.105C38.5266 113.309 37.6472 111.756 36.4746 110.688C35.3021 109.621 33.9341 109.135 32.7615 108.893C31.5889 108.699 30.6118 108.747 29.9767 108.893C29.3415 108.99 28.9507 109.135 28.9507 109.087C28.9507 109.087 29.0484 109.038 29.195 108.99C29.3415 108.941 29.6347 108.844 29.9278 108.796C30.563 108.65 31.5889 108.553 32.7615 108.747C33.9341 108.941 35.3509 109.427 36.5723 110.543C37.7937 111.61 38.722 113.26 38.9174 115.105C39.0152 116.027 38.9174 116.949 38.6243 117.774C38.3312 118.599 37.9403 119.327 37.5495 120.006C36.7678 121.365 35.8883 122.53 35.1555 123.452C34.4226 124.423 33.7875 125.151 33.3478 125.636C33.1035 125.879 32.9569 126.073 32.8104 126.218C32.8104 126.364 32.7615 126.461 32.7615 126.461Z" fill="#263238"/>
<path d="M54.4048 139.467C55.4308 137.623 59.5348 130.392 60.6096 128.499C60.7562 128.257 61.0493 128.16 61.2936 128.354L66.0816 131.508C66.277 131.654 66.3747 131.896 66.2281 132.139L60.5119 142.913C60.3653 143.156 60.0722 143.253 59.8279 143.107L54.5514 140.147C54.356 140.001 54.3071 139.71 54.4048 139.467Z" fill="#263238"/>
<path d="M27.3382 118.162C27.0451 118.356 27.0939 118.939 27.4359 119.084C27.7779 119.23 28.2177 118.939 28.2177 118.55C28.1688 118.162 27.6802 117.92 27.3382 118.162Z" fill="#E0E0E0"/>
<path d="M19.8631 133.449C19.57 133.644 19.6189 134.226 19.9608 134.371C20.3028 134.517 20.7426 134.226 20.7426 133.838C20.6937 133.498 20.2051 133.207 19.8631 133.449Z" fill="#E0E0E0"/>
<path d="M34.2269 140.486C33.9338 140.68 33.9826 141.263 34.3246 141.408C34.6666 141.554 35.1063 141.263 35.1063 140.875C35.1063 140.535 34.6178 140.244 34.2269 140.486Z" fill="#E0E0E0"/>
<path d="M41.2137 134.614C40.9206 134.808 40.9694 135.391 41.3114 135.536C41.6534 135.682 42.0931 135.391 42.0931 135.002C42.0443 134.663 41.5557 134.42 41.2137 134.614Z" fill="#E0E0E0"/>
<path d="M27.1429 127.286C26.8498 127.48 26.8986 128.062 27.2406 128.208C27.5826 128.354 28.0223 128.062 28.0223 127.674C27.9735 127.335 27.4849 127.092 27.1429 127.286Z" fill="#E0E0E0"/>
<path d="M35.5462 115.396C35.2531 115.59 35.302 116.172 35.644 116.318C35.9859 116.464 36.4257 116.172 36.4257 115.784C36.4257 115.444 35.9371 115.153 35.5462 115.396Z" fill="#E0E0E0"/>
<path d="M29.1949 135.148C28.9018 135.342 28.9506 135.924 29.2926 136.07C29.6346 136.216 30.0743 135.924 30.0743 135.536C30.0255 135.196 29.5369 134.954 29.1949 135.148Z" fill="#E0E0E0"/>
<path d="M19.619 125.102C19.3259 125.296 19.3747 125.879 19.7167 126.024C20.0587 126.17 20.4984 125.879 20.4984 125.49C20.4496 125.151 19.961 124.859 19.619 125.102Z" fill="#E0E0E0"/>
<path d="M22.6969 142.573C22.4037 142.767 22.4526 143.35 22.7946 143.495C23.1366 143.641 23.5763 143.35 23.5763 142.961C23.5274 142.622 23.0877 142.331 22.6969 142.573Z" fill="#E0E0E0"/>
<path d="M62.7107 131.217C63.0038 131.168 63.2481 131.411 63.297 131.702C63.3459 131.993 63.1016 132.236 62.8573 132.285C62.5641 132.333 62.271 132.139 62.2221 131.848C62.1733 131.557 62.3687 131.266 62.613 131.217" fill="#E0E0E0"/>
<path d="M50.1057 131.605H58.8511L64.0299 136.313L61.0985 142.573L55.2845 137.963H50.4477L50.1057 131.605Z" fill="#FFBE9D"/>
<path d="M64.0297 136.313L64.3717 138.108C64.4694 138.642 64.2251 139.225 63.7854 139.516L63.2969 139.856L63.3457 140.292C63.4434 140.778 63.1503 141.311 62.7106 141.506L62.222 141.748C62.1243 142.282 61.6357 142.67 61.0495 142.573L60.8052 139.807L64.0297 136.313Z" fill="#FFBE9D"/>
<path d="M63.3947 140.438C63.3458 140.438 63.2481 139.758 63.1015 138.933C62.955 138.108 62.8084 137.429 62.8572 137.38C62.9061 137.38 63.1992 138.011 63.3458 138.885C63.4435 139.758 63.4435 140.438 63.3947 140.438Z" fill="#EB996E"/>
<path d="M62.222 141.845C62.1731 141.845 62.0266 141.409 61.9289 140.923C61.8311 140.389 61.7334 139.953 61.7823 139.953C61.8311 139.953 62.0266 140.341 62.1731 140.875C62.3197 141.409 62.3197 141.845 62.222 141.845Z" fill="#EB996E"/>
</svg>
