<svg width="296" height="229" viewBox="0 0 296 229" fill="none" xmlns="http://www.w3.org/2000/svg">
<g clip-path="url(#clip0)">
<path d="M296 193.381H0V193.529H296V193.381Z" fill="#EBEBEB"/>
<path d="M262.783 199.017H243.176V199.165H262.783V199.017Z" fill="#EBEBEB"/>
<path d="M107.347 201.023H77.8303V201.171H107.347V201.023Z" fill="#EBEBEB"/>
<path d="M242.584 204.516H225.102V204.664H242.584V204.516Z" fill="#EBEBEB"/>
<path d="M43.8436 203.522H31.0564V203.67H43.8436V203.522Z" fill="#EBEBEB"/>
<path d="M71.8274 203.522H49.1123V203.67H71.8274V203.522Z" fill="#EBEBEB"/>
<path d="M196.082 197.412H140.624V197.56H196.082V197.412Z" fill="#EBEBEB"/>
<path d="M140.304 166.978H25.9948C25.0993 166.976 24.241 166.619 23.6083 165.985C22.9757 165.352 22.6204 164.493 22.6204 163.597V2.91072C22.6282 2.02036 22.9869 1.16904 23.6187 0.541663C24.2505 -0.0857152 25.1044 -0.438477 25.9948 -0.440002H140.304C141.201 -0.440002 142.06 -0.0838625 142.694 0.550071C143.328 1.184 143.684 2.0438 143.684 2.94032V163.597C143.684 164.494 143.328 165.354 142.694 165.988C142.06 166.621 141.201 166.978 140.304 166.978ZM25.9948 -0.321602C25.1385 -0.320034 24.3179 0.0212041 23.713 0.627212C23.1081 1.23322 22.7684 2.05448 22.7684 2.91072V163.597C22.7684 164.454 23.1081 165.275 23.713 165.881C24.3179 166.487 25.1385 166.828 25.9948 166.83H140.304C141.161 166.828 141.982 166.487 142.588 165.881C143.194 165.275 143.535 164.454 143.536 163.597V2.91072C143.535 2.05393 143.194 1.23269 142.588 0.62685C141.982 0.0210118 141.161 -0.320037 140.304 -0.321602H25.9948Z" fill="#EBEBEB"/>
<path d="M268.36 166.978H154.044C153.148 166.976 152.289 166.619 151.656 165.986C151.022 165.352 150.666 164.493 150.664 163.597V2.91072C150.673 2.01982 151.033 1.16851 151.666 0.541292C152.299 -0.0859221 153.153 -0.438494 154.044 -0.440002H268.36C269.249 -0.436921 270.101 -0.0834709 270.732 0.543741C271.362 1.17095 271.72 2.02139 271.728 2.91072V163.597C271.728 164.492 271.374 165.35 270.742 165.983C270.111 166.617 269.254 166.974 268.36 166.978ZM154.044 -0.321602C153.188 -0.320037 152.366 0.0210118 151.761 0.62685C151.155 1.23269 150.814 2.05393 150.812 2.91072V163.597C150.814 164.454 151.155 165.275 151.761 165.881C152.366 166.487 153.188 166.828 154.044 166.83H268.36C269.216 166.828 270.038 166.487 270.643 165.881C271.249 165.275 271.59 164.454 271.592 163.597V2.91072C271.59 2.05393 271.249 1.23269 270.643 0.62685C270.038 0.0210118 269.216 -0.320037 268.36 -0.321602H154.044Z" fill="#EBEBEB"/>
<path d="M257.875 14.0285H168.418C164.495 14.0285 161.314 17.209 161.314 21.1325V114.538C161.314 118.462 164.495 121.642 168.418 121.642H257.875C261.799 121.642 264.979 118.462 264.979 114.538V21.1325C264.979 17.209 261.799 14.0285 257.875 14.0285Z" fill="#FAFAFA"/>
<path d="M241.66 44.7474C246.182 44.7474 249.848 41.0818 249.848 36.56C249.848 32.0383 246.182 28.3727 241.66 28.3727C237.139 28.3727 233.473 32.0383 233.473 36.56C233.473 41.0818 237.139 44.7474 241.66 44.7474Z" fill="#F0F0F0"/>
<path d="M220.224 44.7474C224.746 44.7474 228.411 41.0818 228.411 36.56C228.411 32.0383 224.746 28.3727 220.224 28.3727C215.702 28.3727 212.037 32.0383 212.037 36.56C212.037 41.0818 215.702 44.7474 220.224 44.7474Z" fill="white"/>
<path d="M220.922 109.222C215.142 109.223 209.49 107.51 204.683 104.299C199.876 101.089 196.129 96.5243 193.916 91.1838C191.703 85.8434 191.123 79.9666 192.25 74.2968C193.377 68.6269 196.161 63.4186 200.248 59.3305C204.335 55.2424 209.543 52.4582 215.212 51.33C220.882 50.2018 226.759 50.7802 232.1 52.9922C237.441 55.2042 242.006 58.9503 245.217 63.7567C248.429 68.5632 250.144 74.2142 250.144 79.995C250.136 87.7431 247.055 95.1717 241.577 100.651C236.098 106.13 228.67 109.213 220.922 109.222ZM220.922 51.36C215.259 51.3588 209.722 53.0372 205.012 56.183C200.302 59.3287 196.631 63.8005 194.463 69.0328C192.295 74.265 191.727 80.0228 192.831 85.5778C193.935 91.1329 196.662 96.2357 200.666 100.241C204.671 104.246 209.773 106.974 215.328 108.079C220.883 109.185 226.641 108.618 231.873 106.451C237.106 104.284 241.579 100.614 244.725 95.9044C247.872 91.1953 249.552 85.6588 249.552 79.995C249.542 72.4045 246.523 65.1274 241.156 59.7595C235.789 54.3916 228.513 51.371 220.922 51.36Z" fill="white"/>
<path d="M222.184 139.077C217.455 139.077 212.876 140.737 209.245 143.765C205.613 146.794 203.159 151.001 202.31 155.653C201.529 159.986 200.753 164.314 199.705 168.588L193.584 193.529H250.771L244.662 168.576C243.614 164.302 242.844 159.974 242.057 155.641C241.205 150.991 238.75 146.787 235.119 143.761C231.488 140.734 226.911 139.077 222.184 139.077Z" fill="#E0E0E0"/>
<path d="M225.345 139.077C220.616 139.077 216.037 140.737 212.406 143.765C208.775 146.794 206.321 151.001 205.471 155.653C204.684 159.986 203.908 164.314 202.867 168.588L196.751 193.541H253.932L247.817 168.576C246.775 164.302 246 159.974 245.218 155.641C244.366 150.991 241.911 146.787 238.28 143.761C234.649 140.734 230.072 139.077 225.345 139.077Z" fill="#E6E6E6"/>
<path d="M99.9356 43.072C100.574 40.45 102.225 38.1874 104.527 36.7786C106.828 35.3698 109.594 34.9294 112.22 35.5536L203.98 57.6411C206.601 58.2812 208.862 59.932 210.271 62.2333C211.68 64.5347 212.121 67.2998 211.498 69.9251C210.861 72.548 209.211 74.8116 206.908 76.2206C204.606 77.6296 201.84 78.0694 199.214 77.4435L107.454 55.356C104.831 54.7188 102.568 53.0685 101.159 50.7663C99.7495 48.4642 99.3098 45.6976 99.9356 43.072Z" fill="#E0E0E0"/>
<path d="M101.706 41.9886C102.348 39.3699 104 37.1116 106.302 35.7064C108.603 34.3012 111.367 33.8632 113.99 34.488L205.75 56.5755C208.36 57.2183 210.612 58.8653 212.015 61.1588C213.419 63.4522 213.86 66.2068 213.244 68.824C212.606 71.446 210.955 73.7086 208.653 75.1174C206.352 76.5262 203.586 76.9666 200.96 76.3424L109.2 54.2549C106.587 53.6095 104.335 51.9592 102.931 49.6625C101.528 47.3658 101.088 44.6082 101.706 41.9886Z" fill="#EBEBEB"/>
<path d="M114.013 44.9486C114.342 43.6004 115.19 42.437 116.374 41.7126C117.558 40.9882 118.98 40.7618 120.33 41.0829L197.071 59.5592C198.416 59.8891 199.576 60.7364 200.3 61.9169C201.024 63.0974 201.252 64.5158 200.937 65.864C200.608 67.2122 199.759 68.3756 198.576 69.1C197.392 69.8244 195.97 70.0508 194.62 69.7297L117.879 51.2712C116.53 50.9414 115.367 50.0915 114.643 48.9069C113.918 47.7224 113.692 46.2994 114.013 44.9486Z" fill="#E0E0E0"/>
<path d="M101.907 42.8825C99.4787 40.4512 96.4986 38.6431 93.2206 37.6123C89.9427 36.5815 86.464 36.3586 83.0813 36.9626C76.8831 38.04 74.592 45.736 79.0202 50.2056L94.5839 65.7693C99.0298 70.2152 106.749 67.9064 107.839 61.7141C108.442 58.3295 108.218 54.8491 107.185 51.57C106.152 48.2908 104.341 45.3102 101.907 42.8825Z" fill="#F5F5F5"/>
<path d="M66.0493 111.057V105.137C71.2707 105.14 76.3755 103.593 80.7181 100.694C85.0607 97.7952 88.4459 93.6733 90.4457 88.85C92.4455 84.0267 92.9699 78.7188 91.9527 73.5974C90.9355 68.4761 88.4223 63.7714 84.7311 60.0785C81.0398 56.3856 76.3363 53.8703 71.2154 52.8508C66.0945 51.8313 60.7863 52.3534 55.9621 54.351C51.138 56.3486 47.0146 59.732 44.1135 64.0732C41.2124 68.4145 39.6639 73.5186 39.6639 78.74H33.7439C33.7439 72.3482 35.6393 66.1 39.1903 60.7855C42.7414 55.4709 47.7887 51.3287 53.6939 48.8827C59.5991 46.4367 66.097 45.7967 72.366 47.0437C78.6349 48.2907 84.3933 51.3686 88.913 55.8882C93.4326 60.4079 96.5105 66.1663 97.7575 72.4352C99.0045 78.7041 98.3645 85.2021 95.9185 91.1073C93.4724 97.0125 89.3303 102.06 84.0157 105.611C78.7012 109.162 72.4529 111.057 66.0612 111.057H66.0493Z" fill="#EBEBEB"/>
<path d="M83.5963 61.1931C85.692 63.2888 89.2381 63.4546 92.9381 61.9864C96.3954 60.613 98.6154 56.1848 96.7979 54.3614L90.428 47.9974C88.6047 46.1741 84.1765 48.3941 82.809 51.8514C81.3408 55.5573 81.5007 59.0974 83.5963 61.1931Z" fill="#F5F5F5"/>
<path d="M101.907 49.3945C105.503 49.3945 108.419 46.479 108.419 42.8825C108.419 39.2861 105.503 36.3705 101.907 36.3705C98.3105 36.3705 95.395 39.2861 95.395 42.8825C95.395 46.479 98.3105 49.3945 101.907 49.3945Z" fill="#FAFAFA"/>
<path d="M191.086 49.7397L187.294 51.1764C180.402 53.7873 176.932 61.4906 179.543 68.3821L210.736 150.713C213.347 157.605 221.05 161.075 227.941 158.464L231.733 157.027C238.625 154.416 242.095 146.713 239.484 139.822L208.291 57.4903C205.68 50.5988 197.977 47.1287 191.086 49.7397Z" fill="#E0E0E0"/>
<path d="M194.244 49.7406L190.452 51.1774C183.56 53.7883 180.09 61.4916 182.701 68.383L213.894 150.714C216.504 157.606 224.208 161.076 231.099 158.465L234.891 157.028C241.783 154.417 245.253 146.714 242.642 139.823L211.449 57.4912C208.838 50.5997 201.135 47.1297 194.244 49.7406Z" fill="#F0F0F0"/>
<path d="M226.41 146.873C226.222 146.871 226.038 146.814 225.881 146.709C225.725 146.603 225.602 146.455 225.528 146.281L194.33 63.9518C194.251 63.7245 194.261 63.4756 194.359 63.2556C194.457 63.0357 194.635 62.8613 194.857 62.7678L198.651 61.3293C198.744 61.2944 198.842 61.2764 198.942 61.276C199.13 61.2775 199.315 61.3345 199.471 61.4397C199.628 61.5449 199.751 61.6938 199.824 61.868L231.022 144.197C231.103 144.425 231.093 144.674 230.995 144.895C230.897 145.115 230.718 145.289 230.495 145.381L226.7 146.82C226.608 146.857 226.51 146.875 226.41 146.873Z" fill="#E0E0E0"/>
<path d="M231.951 139.077C227.223 139.077 222.644 140.737 219.013 143.765C215.381 146.794 212.927 151.001 212.078 155.653C211.297 159.986 210.521 164.314 209.473 168.588L203.364 193.541H260.539L254.43 168.576C253.382 164.302 252.612 159.974 251.825 155.641C250.973 150.991 248.518 146.787 244.887 143.761C241.256 140.734 236.678 139.077 231.951 139.077Z" fill="#E0E0E0"/>
<path d="M235.113 139.077C230.384 139.077 225.805 140.737 222.174 143.765C218.543 146.794 216.089 151.001 215.239 155.653C214.452 159.986 213.676 164.314 212.634 168.588L206.519 193.541H263.7L257.585 168.576C256.543 164.302 255.768 159.974 254.986 155.641C254.134 150.991 251.679 146.787 248.048 143.761C244.417 140.734 239.84 139.077 235.113 139.077Z" fill="#F5F5F5"/>
<path d="M207.909 75.1374C213.416 69.6305 213.416 60.7019 207.909 55.195C202.402 49.688 193.473 49.688 187.966 55.195C182.459 60.7019 182.459 69.6305 187.966 75.1374C193.473 80.6444 202.402 80.6444 207.909 75.1374Z" fill="#FAFAFA"/>
<path d="M197.935 76.6147C195.669 76.6159 193.454 75.9449 191.569 74.6866C189.684 73.4284 188.215 71.6394 187.347 69.546C186.479 67.4526 186.252 65.1488 186.694 62.9262C187.136 60.7035 188.227 58.6619 189.829 57.0595C191.432 55.4571 193.473 54.366 195.696 53.9241C197.919 53.4823 200.222 53.7097 202.316 54.5774C204.409 55.4452 206.198 56.9143 207.456 58.799C208.715 60.6837 209.386 62.8993 209.385 65.1654C209.38 68.2005 208.172 71.11 206.026 73.2561C203.88 75.4023 200.97 76.61 197.935 76.6147ZM197.935 54.2667C195.78 54.2667 193.673 54.9059 191.88 56.1035C190.088 57.3011 188.691 59.0032 187.866 60.9947C187.041 62.9862 186.825 65.1775 187.246 67.2917C187.666 69.4058 188.704 71.3478 190.229 72.872C191.753 74.3962 193.695 75.4342 195.809 75.8547C197.923 76.2753 200.115 76.0594 202.106 75.2345C204.098 74.4097 205.8 73.0127 206.997 71.2204C208.195 69.4282 208.834 67.321 208.834 65.1654C208.831 62.2759 207.682 59.5056 205.638 57.4623C203.595 55.4191 200.825 54.2699 197.935 54.2667Z" fill="#E0E0E0"/>
<path d="M84.0877 154.664H42.7483V193.381H84.0877V154.664Z" fill="#F5F5F5"/>
<path d="M30.3163 193.381H42.7483L42.7483 154.664H30.3163L30.3163 193.381Z" fill="#E6E6E6"/>
<path d="M44.9211 154.664H80.0918V130.854H44.9211V154.664Z" fill="#F0F0F0"/>
<path d="M90.6706 130.854H80.0916V154.664H90.6706V130.854Z" fill="#E0E0E0"/>
<path d="M103.02 193.381H133.62V157.423H103.02V193.381Z" fill="#E6E6E6"/>
<path d="M130.631 189.811H106.015V160.987H130.631V189.811ZM106.607 189.219H130.039V161.579H106.607V189.219Z" fill="#F5F5F5"/>
<path d="M142.82 157.417H133.62V193.375H142.82V157.417Z" fill="#F5F5F5"/>
<path d="M26.2433 114.704H56.8438L56.8437 78.74H26.2433L26.2433 114.704Z" fill="#E6E6E6"/>
<path d="M66.0434 78.7459H56.8438V114.71H66.0434V78.7459Z" fill="#F5F5F5"/>
<path d="M148 220.116C211.393 220.116 262.783 217.115 262.783 213.414C262.783 209.713 211.393 206.713 148 206.713C84.6071 206.713 33.217 209.713 33.217 213.414C33.217 217.115 84.6071 220.116 148 220.116Z" fill="#F5F5F5"/>
<path d="M93.4591 131.754H148.983V126.195H93.4591C92.7227 126.195 92.0165 126.487 91.4958 127.008C90.9751 127.529 90.6826 128.235 90.6826 128.971C90.6818 129.336 90.7531 129.698 90.8923 130.035C91.0315 130.373 91.2358 130.68 91.4937 130.938C91.7516 131.197 92.058 131.402 92.3952 131.542C92.7325 131.682 93.094 131.754 93.4591 131.754Z" fill="#263238"/>
<path d="M114.913 212.621H118.453L118.453 131.748H114.913L114.913 212.621Z" fill="#27DEBF"/>
<path opacity="0.7" d="M114.913 212.621H118.453L118.453 131.748H114.913L114.913 212.621Z" fill="white"/>
<path d="M97.3426 212.621H100.883L100.883 131.748H97.3426L97.3426 212.621Z" fill="#27DEBF"/>
<path opacity="0.7" d="M97.3426 212.621H100.883L100.883 131.748H97.3426L97.3426 212.621Z" fill="white"/>
<path d="M93.4592 130.777C94.4564 130.777 95.2647 129.968 95.2647 128.971C95.2647 127.974 94.4564 127.166 93.4592 127.166C92.4619 127.166 91.6536 127.974 91.6536 128.971C91.6536 129.968 92.4619 130.777 93.4592 130.777Z" fill="#27DEBF"/>
<path d="M99.5864 128.971C99.5865 129.321 99.6899 129.663 99.8838 129.955C100.078 130.246 100.353 130.474 100.676 130.609C100.999 130.744 101.354 130.781 101.698 130.715C102.042 130.649 102.358 130.482 102.608 130.237C102.857 129.992 103.029 129.678 103.101 129.335C103.172 128.993 103.141 128.637 103.012 128.312C102.882 127.987 102.659 127.707 102.371 127.509C102.082 127.31 101.742 127.201 101.392 127.195C101.156 127.191 100.922 127.234 100.703 127.322C100.484 127.409 100.285 127.539 100.117 127.705C99.949 127.87 99.8155 128.067 99.7244 128.285C99.6333 128.502 99.5864 128.735 99.5864 128.971Z" fill="#27DEBF"/>
<path d="M109.325 130.777C110.322 130.777 111.13 129.968 111.13 128.971C111.13 127.974 110.322 127.166 109.325 127.166C108.327 127.166 107.519 127.974 107.519 128.971C107.519 129.968 108.327 130.777 109.325 130.777Z" fill="#27DEBF"/>
<path d="M117.258 130.777C118.255 130.777 119.063 129.968 119.063 128.971C119.063 127.974 118.255 127.166 117.258 127.166C116.26 127.166 115.452 127.974 115.452 128.971C115.452 129.968 116.26 130.777 117.258 130.777Z" fill="#27DEBF"/>
<path d="M125.185 130.777C126.182 130.777 126.99 129.968 126.99 128.971C126.99 127.974 126.182 127.166 125.185 127.166C124.187 127.166 123.379 127.974 123.379 128.971C123.379 129.968 124.187 130.777 125.185 130.777Z" fill="#27DEBF"/>
<path d="M133.117 130.777C134.114 130.777 134.923 129.968 134.923 128.971C134.923 127.974 134.114 127.166 133.117 127.166C132.12 127.166 131.312 127.974 131.312 128.971C131.312 129.968 132.12 130.777 133.117 130.777Z" fill="#27DEBF"/>
<path d="M141.05 130.777C142.047 130.777 142.856 129.968 142.856 128.971C142.856 127.974 142.047 127.166 141.05 127.166C140.053 127.166 139.244 127.974 139.244 128.971C139.244 129.968 140.053 130.777 141.05 130.777Z" fill="#27DEBF"/>
<path d="M148.983 127.172V130.777C148.505 130.777 148.046 130.587 147.708 130.249C147.37 129.911 147.18 129.452 147.18 128.974C147.18 128.496 147.37 128.038 147.708 127.699C148.046 127.361 148.505 127.172 148.983 127.172Z" fill="#27DEBF"/>
<path d="M176.209 64.4254H172.532V65.0174H176.209V64.4254Z" fill="#27DEBF"/>
<path d="M169.117 64.4254H157.277V65.0174H169.117V64.4254Z" fill="#27DEBF"/>
<path d="M134.52 66.4974H191.476C192.765 66.4974 194.002 67.0095 194.913 67.921C195.825 68.8325 196.337 70.0687 196.337 71.3577V212.621H129.648V71.3577C129.648 70.7185 129.774 70.0855 130.019 69.495C130.264 68.9046 130.623 68.3683 131.076 67.9168C131.528 67.4653 132.065 67.1075 132.657 66.864C133.248 66.6204 133.881 66.4959 134.52 66.4974Z" fill="#27DEBF"/>
<path opacity="0.2" d="M148.107 109.376H129.66V108.825H147.562V66.4974H148.107V109.376Z" fill="white"/>
<path opacity="0.4" d="M181.069 66.4974H191.477C192.766 66.4974 194.002 67.0095 194.913 67.921C195.825 68.8324 196.337 70.0687 196.337 71.3577V212.621H176.209V71.3577C176.209 70.0687 176.721 68.8324 177.633 67.921C178.544 67.0095 179.78 66.4974 181.069 66.4974Z" fill="#263238"/>
<path d="M182.62 90.728H189.931C190.559 90.728 191.162 90.9774 191.606 91.4215C192.05 91.8656 192.299 92.4679 192.299 93.096V137.591H180.258V93.096C180.258 92.469 180.507 91.8675 180.95 91.4236C181.392 90.9797 181.993 90.7295 182.62 90.728Z" fill="#27DEBF"/>
<path d="M182.62 90.728H188.955C189.583 90.728 190.185 90.9774 190.629 91.4215C191.073 91.8656 191.323 92.4679 191.323 93.096V137.591H180.258V93.096C180.258 92.4679 180.508 91.8656 180.952 91.4215C181.396 90.9774 181.998 90.728 182.626 90.728H182.62Z" fill="black"/>
<path opacity="0.2" d="M176.209 204.658H155.572V137.934H176.209V138.479H156.116V204.114H176.209V204.658Z" fill="white"/>
<path opacity="0.2" d="M147.669 204.658C146.986 204.657 146.32 204.454 145.753 204.074C145.186 203.694 144.744 203.154 144.484 202.524C144.224 201.893 144.156 201.199 144.29 200.53C144.424 199.861 144.753 199.246 145.236 198.764C145.719 198.282 146.334 197.954 147.003 197.822C147.673 197.689 148.366 197.757 148.997 198.019C149.627 198.28 150.166 198.723 150.545 199.29C150.924 199.858 151.126 200.525 151.126 201.207C151.126 201.661 151.036 202.11 150.863 202.529C150.689 202.948 150.434 203.329 150.113 203.65C149.792 203.97 149.411 204.224 148.991 204.397C148.572 204.57 148.122 204.659 147.669 204.658ZM147.669 198.3C147.094 198.3 146.532 198.471 146.054 198.79C145.576 199.11 145.203 199.563 144.983 200.095C144.763 200.626 144.706 201.21 144.818 201.774C144.93 202.338 145.207 202.856 145.613 203.262C146.02 203.669 146.538 203.946 147.102 204.058C147.665 204.17 148.25 204.112 148.781 203.892C149.312 203.672 149.766 203.3 150.085 202.822C150.405 202.344 150.575 201.782 150.575 201.207C150.574 200.437 150.267 199.698 149.722 199.153C149.177 198.609 148.439 198.302 147.669 198.3Z" fill="white"/>
<path opacity="0.2" d="M138.439 204.658C137.757 204.658 137.089 204.456 136.522 204.077C135.954 203.697 135.512 203.158 135.251 202.528C134.989 201.897 134.921 201.203 135.054 200.534C135.187 199.864 135.516 199.249 135.999 198.766C136.481 198.284 137.096 197.955 137.766 197.822C138.435 197.689 139.129 197.757 139.76 198.018C140.391 198.28 140.93 198.722 141.309 199.29C141.688 199.857 141.891 200.524 141.891 201.207C141.891 202.122 141.527 203 140.88 203.647C140.232 204.295 139.355 204.658 138.439 204.658ZM138.439 198.3C137.864 198.3 137.302 198.471 136.824 198.79C136.346 199.11 135.974 199.563 135.754 200.095C135.534 200.626 135.476 201.21 135.588 201.774C135.7 202.338 135.977 202.856 136.384 203.262C136.79 203.669 137.308 203.946 137.872 204.058C138.436 204.17 139.02 204.112 139.552 203.892C140.083 203.672 140.537 203.3 140.856 202.822C141.175 202.344 141.346 201.782 141.346 201.207C141.344 200.437 141.038 199.698 140.493 199.153C139.948 198.609 139.21 198.302 138.439 198.3Z" fill="white"/>
<path d="M253.323 131.754H197.799V126.195H253.323C254.059 126.195 254.765 126.487 255.286 127.008C255.807 127.529 256.099 128.235 256.099 128.971C256.1 129.336 256.029 129.698 255.89 130.035C255.75 130.373 255.546 130.68 255.288 130.938C255.03 131.197 254.724 131.402 254.387 131.542C254.049 131.682 253.688 131.754 253.323 131.754Z" fill="#27DEBF"/>
<path d="M235.788 131.754H180.258V126.195H235.788C236.153 126.193 236.516 126.264 236.854 126.403C237.192 126.541 237.5 126.746 237.759 127.004C238.018 127.262 238.223 127.568 238.363 127.906C238.504 128.244 238.576 128.606 238.576 128.971C238.577 129.337 238.505 129.7 238.365 130.038C238.225 130.377 238.02 130.684 237.761 130.942C237.502 131.201 237.194 131.406 236.855 131.545C236.517 131.684 236.154 131.755 235.788 131.754Z" fill="#263238"/>
<path d="M231.869 131.754H228.329V212.627H231.869V131.754Z" fill="#27DEBF"/>
<path opacity="0.7" d="M231.869 131.754H228.329V212.627H231.869V131.754Z" fill="white"/>
<path d="M249.439 131.754H245.899V212.627H249.439V131.754Z" fill="#27DEBF"/>
<path opacity="0.7" d="M249.439 131.754H245.899V212.627H249.439V131.754Z" fill="white"/>
<path d="M235.788 130.777C236.785 130.777 237.593 129.968 237.593 128.971C237.593 127.974 236.785 127.166 235.788 127.166C234.791 127.166 233.982 127.974 233.982 128.971C233.982 129.968 234.791 130.777 235.788 130.777Z" fill="#27DEBF"/>
<path d="M227.855 130.777C228.852 130.777 229.661 129.968 229.661 128.971C229.661 127.974 228.852 127.166 227.855 127.166C226.858 127.166 226.049 127.974 226.049 128.971C226.049 129.968 226.858 130.777 227.855 130.777Z" fill="#27DEBF"/>
<path d="M219.922 130.777C220.919 130.777 221.728 129.968 221.728 128.971C221.728 127.974 220.919 127.166 219.922 127.166C218.925 127.166 218.116 127.974 218.116 128.971C218.116 129.968 218.925 130.777 219.922 130.777Z" fill="#27DEBF"/>
<path d="M211.989 130.777C212.987 130.777 213.795 129.968 213.795 128.971C213.795 127.974 212.987 127.166 211.989 127.166C210.992 127.166 210.184 127.974 210.184 128.971C210.184 129.968 210.992 130.777 211.989 130.777Z" fill="#27DEBF"/>
<path d="M204.057 130.777C205.054 130.777 205.862 129.968 205.862 128.971C205.862 127.974 205.054 127.166 204.057 127.166C203.059 127.166 202.251 127.974 202.251 128.971C202.251 129.968 203.059 130.777 204.057 130.777Z" fill="#27DEBF"/>
<path d="M196.124 130.777C197.121 130.777 197.929 129.968 197.929 128.971C197.929 127.974 197.121 127.166 196.124 127.166C195.127 127.166 194.318 127.974 194.318 128.971C194.318 129.968 195.127 130.777 196.124 130.777Z" fill="#27DEBF"/>
<path d="M188.191 130.777C189.188 130.777 189.997 129.968 189.997 128.971C189.997 127.974 189.188 127.166 188.191 127.166C187.194 127.166 186.385 127.974 186.385 128.971C186.385 129.968 187.194 130.777 188.191 130.777Z" fill="#27DEBF"/>
<path d="M180.258 127.172V130.777C180.736 130.777 181.195 130.587 181.533 130.249C181.871 129.911 182.061 129.452 182.061 128.974C182.061 128.496 181.871 128.038 181.533 127.699C181.195 127.361 180.736 127.172 180.258 127.172Z" fill="#27DEBF"/>
<path d="M168.537 81.0902H137.332C136.188 81.0902 135.26 82.0179 135.26 83.1622V144.878C135.26 146.023 136.188 146.95 137.332 146.95H168.537C169.681 146.95 170.609 146.023 170.609 144.878V83.1622C170.609 82.0179 169.681 81.0902 168.537 81.0902Z" fill="white"/>
<path opacity="0.3" d="M164.624 88.1232H141.246C140.026 88.1232 139.037 89.1118 139.037 90.3313V105.552C139.037 106.771 140.026 107.76 141.246 107.76H164.624C165.843 107.76 166.832 106.771 166.832 105.552V90.3313C166.832 89.1118 165.843 88.1232 164.624 88.1232Z" fill="#27DEBF"/>
<path opacity="0.3" d="M164.736 110.572H141.133C139.976 110.572 139.037 111.51 139.037 112.667V121.997C139.037 123.155 139.976 124.093 141.133 124.093H164.736C165.893 124.093 166.832 123.155 166.832 121.997V112.667C166.832 111.51 165.893 110.572 164.736 110.572Z" fill="#27DEBF"/>
<path d="M147.408 117.368L142.767 115.681C143.139 114.66 143.838 113.79 144.754 113.206C145.671 112.622 146.755 112.357 147.838 112.453C148.921 112.548 149.942 112.997 150.743 113.732C151.544 114.467 152.08 115.445 152.268 116.515L147.408 117.368Z" fill="#27DEBF"/>
<path d="M147.408 117.368L152.268 116.515C152.318 116.797 152.343 117.082 152.345 117.368C152.368 118.031 152.258 118.692 152.02 119.312C151.782 119.931 151.421 120.496 150.96 120.973C150.499 121.451 149.947 121.83 149.336 122.089C148.725 122.349 148.069 122.482 147.405 122.482C146.742 122.482 146.085 122.349 145.474 122.089C144.863 121.83 144.311 121.451 143.85 120.973C143.389 120.496 143.029 119.931 142.791 119.312C142.553 118.692 142.442 118.031 142.465 117.368C142.465 116.792 142.567 116.221 142.767 115.681L147.408 117.368Z" fill="white"/>
<path d="M160.9 116.693H159.029V122.27H160.9V116.693Z" fill="white"/>
<path d="M157.715 119.659H155.844V122.27H157.715V119.659Z" fill="white"/>
<path d="M157.715 118.067H155.844V119.659H157.715V118.067Z" fill="#27DEBF"/>
<path d="M160.9 113.295H159.029V116.693H160.9V113.295Z" fill="#27DEBF"/>
<path d="M164.079 117.705H162.208V122.264H164.079V117.705Z" fill="white"/>
<path d="M164.079 115.616H162.208V117.705H164.079V115.616Z" fill="#27DEBF"/>
<path d="M143.081 102.183H162.723C162.857 102.185 162.989 102.152 163.107 102.088C163.225 102.024 163.324 101.93 163.396 101.817C163.468 101.704 163.509 101.574 163.517 101.44C163.525 101.307 163.498 101.173 163.44 101.052C162.672 99.3899 162.206 97.6037 162.066 95.7777C161.699 91.6337 158.893 90.6273 157.697 95.7777C156.501 100.928 151.724 98.276 149.776 95.8251C147.965 93.5518 145.005 96.0678 142.376 101.017C142.313 101.138 142.283 101.274 142.287 101.41C142.292 101.547 142.331 101.68 142.402 101.797C142.473 101.914 142.572 102.011 142.691 102.079C142.81 102.146 142.944 102.182 143.081 102.183Z" fill="#27DEBF"/>
<path d="M142.323 128.675C142.865 128.675 143.395 128.836 143.846 129.137C144.296 129.438 144.648 129.866 144.855 130.367C145.063 130.868 145.117 131.419 145.011 131.951C144.905 132.483 144.644 132.971 144.261 133.354C143.878 133.738 143.389 133.999 142.857 134.104C142.326 134.21 141.775 134.156 141.274 133.948C140.773 133.741 140.345 133.39 140.044 132.939C139.743 132.488 139.582 131.958 139.582 131.416C139.583 130.69 139.873 129.993 140.386 129.48C140.9 128.966 141.596 128.677 142.323 128.675ZM142.323 128.131C141.672 128.131 141.035 128.324 140.493 128.686C139.952 129.048 139.53 129.562 139.281 130.164C139.032 130.766 138.967 131.428 139.095 132.066C139.222 132.705 139.536 133.292 139.997 133.752C140.458 134.212 141.045 134.525 141.684 134.651C142.323 134.777 142.985 134.711 143.586 134.461C144.188 134.211 144.701 133.788 145.062 133.246C145.423 132.704 145.615 132.067 145.614 131.416C145.615 130.984 145.53 130.556 145.365 130.157C145.2 129.757 144.957 129.394 144.652 129.089C144.346 128.784 143.982 128.542 143.583 128.377C143.183 128.213 142.755 128.129 142.323 128.131Z" fill="#263238"/>
<path d="M151.256 128.675C151.798 128.675 152.328 128.836 152.779 129.137C153.23 129.438 153.581 129.866 153.788 130.367C153.996 130.868 154.05 131.419 153.944 131.951C153.839 132.483 153.578 132.971 153.194 133.354C152.811 133.738 152.323 133.999 151.791 134.104C151.259 134.21 150.708 134.156 150.207 133.948C149.706 133.741 149.278 133.39 148.977 132.939C148.676 132.488 148.515 131.958 148.515 131.416C148.517 130.69 148.806 129.993 149.32 129.48C149.833 128.966 150.53 128.677 151.256 128.675ZM151.256 128.131C150.605 128.129 149.967 128.322 149.425 128.683C148.883 129.044 148.46 129.558 148.21 130.16C147.961 130.761 147.895 131.424 148.022 132.063C148.149 132.702 148.462 133.289 148.923 133.75C149.383 134.21 149.971 134.524 150.61 134.651C151.249 134.777 151.911 134.712 152.513 134.462C153.114 134.212 153.628 133.789 153.99 133.247C154.351 132.705 154.543 132.068 154.542 131.416C154.543 130.984 154.458 130.557 154.293 130.158C154.128 129.759 153.886 129.396 153.581 129.091C153.276 128.786 152.913 128.544 152.514 128.379C152.115 128.214 151.688 128.13 151.256 128.131Z" fill="#27DEBF"/>
<path d="M166.832 140.154C166.832 140.435 166.748 140.71 166.592 140.944C166.435 141.178 166.213 141.36 165.953 141.467C165.693 141.575 165.407 141.602 165.131 141.547C164.856 141.492 164.603 141.356 164.404 141.157C164.206 140.957 164.071 140.704 164.017 140.428C163.962 140.152 163.991 139.866 164.1 139.606C164.208 139.347 164.391 139.125 164.626 138.97C164.86 138.814 165.135 138.732 165.417 138.733C165.793 138.735 166.152 138.885 166.418 139.151C166.683 139.418 166.832 139.778 166.832 140.154Z" fill="#27DEBF"/>
<path opacity="0.3" d="M160.592 140.154C160.592 140.435 160.508 140.71 160.352 140.944C160.196 141.178 159.973 141.36 159.713 141.467C159.453 141.575 159.167 141.602 158.892 141.547C158.616 141.492 158.363 141.356 158.164 141.157C157.966 140.957 157.831 140.704 157.777 140.428C157.723 140.152 157.752 139.866 157.86 139.606C157.969 139.347 158.152 139.125 158.386 138.97C158.62 138.814 158.896 138.732 159.177 138.733C159.553 138.735 159.913 138.885 160.178 139.151C160.443 139.418 160.592 139.778 160.592 140.154Z" fill="#27DEBF"/>
<path d="M154.352 140.154C154.352 140.435 154.269 140.71 154.113 140.943C153.957 141.177 153.735 141.359 153.475 141.467C153.216 141.574 152.93 141.602 152.654 141.548C152.379 141.493 152.126 141.357 151.927 141.159C151.728 140.96 151.593 140.707 151.538 140.431C151.483 140.156 151.511 139.87 151.619 139.61C151.726 139.351 151.909 139.129 152.142 138.973C152.376 138.817 152.651 138.733 152.932 138.733C153.308 138.733 153.67 138.883 153.936 139.149C154.203 139.416 154.352 139.777 154.352 140.154Z" fill="#27DEBF"/>
<path d="M148.113 140.154C148.113 140.435 148.029 140.71 147.873 140.943C147.717 141.177 147.495 141.359 147.236 141.467C146.976 141.574 146.69 141.602 146.415 141.548C146.139 141.493 145.886 141.357 145.687 141.159C145.488 140.96 145.353 140.707 145.298 140.431C145.243 140.156 145.272 139.87 145.379 139.61C145.487 139.351 145.669 139.129 145.902 138.973C146.136 138.817 146.411 138.733 146.692 138.733C147.069 138.733 147.43 138.883 147.696 139.149C147.963 139.416 148.113 139.777 148.113 140.154Z" fill="#27DEBF"/>
<path d="M141.873 140.154C141.873 140.435 141.79 140.71 141.633 140.943C141.477 141.177 141.255 141.359 140.996 141.467C140.736 141.574 140.45 141.602 140.175 141.548C139.899 141.493 139.646 141.357 139.447 141.159C139.249 140.96 139.113 140.707 139.059 140.431C139.004 140.156 139.032 139.87 139.139 139.61C139.247 139.351 139.429 139.129 139.663 138.973C139.896 138.817 140.171 138.733 140.452 138.733C140.829 138.733 141.19 138.883 141.457 139.149C141.723 139.416 141.873 139.777 141.873 140.154Z" fill="#27DEBF"/>
<path d="M235.782 104.658H204.554V126.201H235.782V104.658Z" fill="#27DEBF"/>
<path opacity="0.7" d="M218.116 104.658H212.534V112.573H218.116V104.658Z" fill="white"/>
<path opacity="0.2" d="M235.788 104.658H226.049V126.201H235.788V104.658Z" fill="black"/>
<path opacity="0.7" d="M232.473 104.658H229.359V112.573H232.473V104.658Z" fill="#27DEBF"/>
<path d="M210.563 120.192V123.708H207.046V120.192H210.563ZM211.107 119.641H206.496V124.253H211.107V119.641Z" fill="white"/>
<path opacity="0.4" d="M217.661 119.641H213.049V124.253H217.661V119.641Z" fill="#263238"/>
<path d="M120.034 108.216H110.87C110.615 108.216 110.408 108.422 110.408 108.677V125.733C110.408 125.988 110.615 126.195 110.87 126.195H120.034C120.289 126.195 120.496 125.988 120.496 125.733V108.677C120.496 108.422 120.289 108.216 120.034 108.216Z" fill="#263238"/>
<path d="M110.331 108.216H119.489C119.612 108.216 119.729 108.264 119.816 108.351C119.902 108.438 119.951 108.555 119.951 108.677V125.727C119.951 125.85 119.902 125.967 119.816 126.054C119.729 126.14 119.612 126.189 119.489 126.189H110.331C110.207 126.189 110.088 126.14 110 126.052C109.913 125.964 109.863 125.845 109.863 125.721V108.672C109.864 108.611 109.877 108.551 109.901 108.495C109.925 108.44 109.959 108.389 110.003 108.347C110.046 108.304 110.097 108.271 110.154 108.249C110.21 108.226 110.27 108.215 110.331 108.216Z" fill="#27DEBF"/>
<path d="M119.412 125.224V109.192C119.412 108.957 119.222 108.766 118.986 108.766H110.846C110.611 108.766 110.42 108.957 110.42 109.192V125.224C110.42 125.459 110.611 125.65 110.846 125.65H118.986C119.222 125.65 119.412 125.459 119.412 125.224Z" fill="white"/>
<path opacity="0.2" d="M114.735 108.766H112.877L111.479 125.65H113.344L114.735 108.766Z" fill="#27DEBF"/>
<path opacity="0.2" d="M116.6 108.766H115.393L114.001 125.65H115.203L116.6 108.766Z" fill="#27DEBF"/>
<path d="M111.148 91.2312H96.1763C96.1025 91.2352 96.0288 91.2214 95.9614 91.191C95.894 91.1605 95.835 91.1144 95.7891 91.0564C95.7433 90.9984 95.7121 90.9302 95.6981 90.8576C95.6841 90.785 95.6877 90.7101 95.7086 90.6392L99.5922 69.9192C99.6228 69.7574 99.7074 69.6108 99.8321 69.5033C99.9569 69.3958 100.114 69.3337 100.279 69.3272H115.245C115.319 69.3236 115.392 69.3376 115.46 69.368C115.527 69.3984 115.587 69.4444 115.633 69.5022C115.679 69.56 115.711 69.6279 115.726 69.7004C115.741 69.7729 115.738 69.8479 115.718 69.9192L111.835 90.6392C111.804 90.801 111.719 90.9476 111.595 91.0551C111.47 91.1627 111.313 91.2247 111.148 91.2312Z" fill="#27DEBF"/>
<path d="M110.615 90.361H96.5256C96.4574 90.364 96.3895 90.351 96.3272 90.323C96.2649 90.2951 96.21 90.253 96.1669 90.2001C96.1238 90.1472 96.0936 90.085 96.0788 90.0183C96.064 89.9517 96.065 89.8825 96.0816 89.8163L99.7343 70.2803C99.767 70.1302 99.8487 69.9951 99.9666 69.8965C100.085 69.7979 100.232 69.7413 100.385 69.7357H114.475C114.543 69.7327 114.611 69.7457 114.673 69.7736C114.736 69.8015 114.791 69.8436 114.834 69.8965C114.877 69.9494 114.907 70.0117 114.922 70.0783C114.937 70.145 114.936 70.2141 114.919 70.2803L111.261 89.8163C111.23 89.9665 111.15 90.1019 111.032 90.2008C110.915 90.2996 110.768 90.3561 110.615 90.361Z" fill="white"/>
<path d="M77.8658 70.7776L77.7355 71.0559L77.5757 71.417L77.2619 72.1629C77.0607 72.6779 76.8712 73.2048 76.6995 73.7435C76.3503 74.8151 76.0247 75.9103 75.7701 77.0351C75.2371 79.2895 74.8769 81.5812 74.6927 83.8904L74.6275 84.7192C74.6275 84.8317 74.6275 84.8672 74.5743 84.7725C74.4865 84.6128 74.3551 84.4814 74.1954 84.3936C74.0415 84.3107 73.9941 84.3403 74.0592 84.3936C74.4134 84.4588 74.7765 84.4588 75.1307 84.3936C75.6494 84.316 76.1618 84.2012 76.664 84.0503C78.9058 83.3402 81.0972 82.4798 83.2234 81.4751L84.656 83.7069C82.6491 85.3538 80.4458 86.7457 78.0967 87.8509C77.4493 88.1443 76.7827 88.3936 76.1016 88.5968C75.2634 88.8568 74.3842 88.9591 73.5087 88.8987C72.8471 88.8518 72.2061 88.6489 71.6379 88.3067C70.9666 87.8844 70.4432 87.2637 70.1402 86.5307C69.9193 85.9646 69.805 85.3625 69.8027 84.7547V83.6832C69.8098 81.0792 70.0695 78.4819 70.5783 75.928C70.8309 74.6296 71.1651 73.3483 71.5787 72.0919C71.78 71.4584 72.0168 70.825 72.2655 70.1915C72.3957 69.8778 72.52 69.564 72.668 69.2443L72.8989 68.7589C72.9877 68.5872 73.0528 68.457 73.1831 68.2143L77.8658 70.7776Z" fill="#B55B52"/>
<path d="M81.3941 49.6847C81.9861 52.7927 83.3714 59.5651 81.1987 61.6312C81.1987 61.6312 82.0453 64.7807 87.8114 64.7807C94.1576 64.7807 90.8424 61.6312 90.8424 61.6312C87.3851 60.8083 87.4739 58.2391 88.0778 55.8296L81.3941 49.6847Z" fill="#B55B52"/>
<path d="M79.9201 62.7146C79.9201 62.7146 79.3636 60.9386 79.1564 59.9026C78.9492 58.8666 86.7281 59.1981 89.3033 59.8611C91.8785 60.5242 92.7014 63.5375 92.7014 63.5375L79.9201 62.7146Z" fill="#263238"/>
<path d="M95.2645 48.9683C95.4381 49.9927 95.7508 50.9886 96.1939 51.9283C95.9517 52.0354 95.6889 52.0883 95.424 52.0831C95.1592 52.078 94.8986 52.0151 94.6606 51.8987L95.2645 48.9683Z" fill="#A02724"/>
<path d="M94.3471 45.7893C94.3106 45.7789 94.2777 45.7584 94.2524 45.7301C94.2289 45.7075 94.2103 45.6803 94.1975 45.6503C94.1848 45.6203 94.1782 45.5881 94.1782 45.5555C94.1782 45.5229 94.1848 45.4906 94.1975 45.4606C94.2103 45.4306 94.2289 45.4035 94.2524 45.3808C94.525 45.0968 94.8623 44.8828 95.2354 44.757C95.6085 44.6313 96.0065 44.5975 96.3954 44.6586C96.4271 44.6649 96.4571 44.6775 96.4838 44.6956C96.5105 44.7136 96.5334 44.7369 96.551 44.7639C96.5687 44.7909 96.5807 44.8211 96.5866 44.8529C96.5924 44.8846 96.5918 44.9172 96.5849 44.9487C96.5707 45.013 96.5316 45.0691 96.4761 45.1046C96.4206 45.1402 96.3532 45.1522 96.2889 45.1381C95.9808 45.0959 95.6672 45.1275 95.3738 45.2304C95.0804 45.3334 94.8158 45.5047 94.6017 45.7301C94.5693 45.7632 94.5281 45.7864 94.483 45.7969C94.4379 45.8074 94.3908 45.8047 94.3471 45.7893Z" fill="#263238"/>
<path d="M95.0455 48.181C94.9567 48.5954 95.1047 48.9742 95.3771 49.0275C95.6494 49.0808 95.9335 48.7966 96.0223 48.3822C96.1111 47.9678 95.9572 47.589 95.6849 47.5357C95.4126 47.4824 95.1284 47.7666 95.0455 48.181Z" fill="#263238"/>
<path d="M95.5605 47.512L96.6143 47.4351C96.6143 47.4351 95.9453 48.104 95.5605 47.512Z" fill="#263238"/>
<path d="M54.76 212.319H59.9874L61.6568 200.207H56.4235L54.76 212.319Z" fill="#B55B52"/>
<path d="M60.8812 208.731H55.0026C54.9016 208.73 54.8035 208.765 54.7263 208.831C54.6491 208.896 54.598 208.987 54.5823 209.087L53.9134 213.734C53.9009 213.852 53.9134 213.971 53.95 214.084C53.9865 214.196 54.0464 214.3 54.1256 214.388C54.2049 214.477 54.3017 214.547 54.41 214.596C54.5182 214.644 54.6354 214.669 54.754 214.669C56.8023 214.634 57.791 214.509 60.378 214.509C61.9646 214.509 64.2852 214.675 66.4815 214.675C68.6778 214.675 68.7962 212.502 67.8846 212.307C63.782 211.425 63.1486 210.211 61.7514 209.051C61.5077 208.846 61.1997 208.733 60.8812 208.731Z" fill="#263238"/>
<path opacity="0.2" d="M56.4234 200.207H61.6567L60.7924 206.452H55.5591L56.4234 200.207Z" fill="black"/>
<path d="M74.6215 62.8685C72.5021 63.5434 70.9097 71.5472 70.9097 71.5472L77.6289 77.4672C77.6289 77.4672 82.0274 69.6824 80.7487 67.0895C79.4108 64.4077 77.1257 62.0752 74.6215 62.8685Z" fill="#263238"/>
<path d="M100.308 67.048C100.308 70.4047 100.433 76.6443 98.2423 87.768C97.8457 89.7867 98.6331 90.6807 98.2779 92.7467C98.047 94.0906 97.2951 93.8952 97.1886 94.5227H75.9417C75.9417 93.8893 75.0123 93.5519 74.7991 92.1903C74.3019 89.0586 76.1134 88.7981 76.0542 86.8267C75.9062 81.8539 75.1839 76.2655 73.0054 66.4501C72.8947 65.9707 72.8848 65.4736 72.9763 64.9901C73.0678 64.5067 73.2588 64.0476 73.5371 63.6418C73.8154 63.2361 74.1749 62.8926 74.5929 62.6331C75.0109 62.3736 75.4783 62.2038 75.9654 62.1344C77.4927 61.9154 79.3339 61.7023 81.1927 61.6075C84.4032 61.3794 87.6259 61.3794 90.8364 61.6075C92.719 61.7792 94.7199 62.0752 96.3361 62.3416C97.4506 62.5237 98.4634 63.098 99.1917 63.961C99.9201 64.8239 100.316 65.9188 100.308 67.048Z" fill="#263238"/>
<path opacity="0.4" d="M99.4975 76.7272C99.3614 78.2191 99.4561 79.9004 99.2193 81.8007C95.7087 80.0247 95.2233 75.4781 96.3007 73.1752C97.5464 74.1838 98.6253 75.3825 99.4975 76.7272Z" fill="black"/>
<path d="M101.102 68.4984C101.694 70.7954 102.333 73.1634 103.008 75.4663C103.683 77.7691 104.405 80.072 105.252 82.2506C105.652 83.3129 106.107 84.3542 106.613 85.3704C106.468 85.2192 106.292 85.1002 106.098 85.0211C105.749 84.8968 105.506 84.9797 105.548 85.0211C105.86 84.9737 106.156 84.8519 106.412 84.6659C107.338 84.0688 108.21 83.3913 109.017 82.6413C109.893 81.8658 110.793 81.0192 111.622 80.2023L113.782 81.7415C113.179 82.8951 112.499 84.0066 111.746 85.0685C110.956 86.2 110.036 87.2351 109.005 88.1528C108.694 88.4183 108.364 88.6597 108.016 88.875C107.581 89.1513 107.108 89.3645 106.613 89.5085C105.833 89.7331 105.001 89.6935 104.245 89.396C103.474 89.0674 102.832 88.4957 102.416 87.768C101.735 86.6219 101.124 85.4357 100.587 84.216C99.5523 81.8758 98.653 79.4782 97.8931 77.035C97.5083 75.851 97.1471 74.6256 96.8215 73.4061C96.4959 72.1866 96.1703 70.9848 95.8921 69.7179L101.102 68.4984Z" fill="#B55B52"/>
<path d="M99.4561 64.1235C102.203 67.2138 103.357 72.8437 103.357 72.8437L95.4305 78C95.4305 78 91.5114 69.12 92.4705 66.3968C93.7314 62.756 96.7802 61.128 99.4561 64.1235Z" fill="#263238"/>
<path d="M114.143 80.445C114.487 79.3853 113.439 79.3971 113.794 77.2304C113.918 76.4667 113.255 76.1411 113.202 76.5437C112.859 78.5861 108.839 81.6763 110.988 82.6591C112.273 83.257 114.143 80.445 114.143 80.445Z" fill="#B55B52"/>
<path d="M115.73 79.4327C115.689 78.2487 114.771 76.7391 113.865 78.6157L113.392 78.9827C113.392 78.9827 112.113 79.1722 110.509 81.3507L112.225 82.8899L112.817 82.8011C113.753 82.6482 114.635 82.2613 115.381 81.6763L115.499 81.5757C115.633 81.4567 115.736 81.3078 115.801 81.1411C115.866 80.9743 115.89 80.7946 115.872 80.6167L115.73 79.4327Z" fill="#B55B52"/>
<path d="M81.4414 43.889C80.7073 49.0275 80.2574 51.1883 82.3057 54.32C85.3545 59.056 91.825 58.8192 94.0865 54.0063C96.117 49.6728 96.9814 41.9946 92.4348 38.9458C91.4332 38.2746 90.2771 37.8695 89.0757 37.7684C87.8742 37.6674 86.6667 37.8738 85.5671 38.3683C84.4674 38.8628 83.5117 39.629 82.7899 40.5948C82.0681 41.5606 81.604 42.6943 81.4414 43.889Z" fill="#B55B52"/>
<path d="M91.7068 47.7725C93.7848 46.4287 95.9811 44.5047 95.7916 41.888C95.6022 39.2714 92.3048 36.8087 87.7641 36.8087C81.6961 36.8087 81.9448 40.7514 81.9448 40.7514C80.7608 40.8994 68.9681 51.3304 83.5728 55.3797C98.1774 59.429 91.7068 47.7725 91.7068 47.7725Z" fill="#263238"/>
<path d="M79.5885 41.1125C79.5885 41.1125 78.9965 42.4149 79.1919 43.0069C81.1692 43.516 88.0719 43.812 91.5469 43.1726C91.9535 42.4751 92.4623 41.8426 93.0565 41.296L79.5885 41.1125Z" fill="white"/>
<path d="M79.032 41.74C79.3457 42.7997 91.3396 42.2373 95.1995 41.74C96.1234 41.613 97.0332 41.3989 97.9167 41.1007V40.6981H96.2651C96.2651 40.6981 95.1995 33.4816 87.8705 33.4935C81.5776 33.5349 77.8894 37.8683 79.032 41.74Z" fill="#27DEBF"/>
<path d="M89.5281 33.156C88.3459 33.0632 87.1583 33.0632 85.9761 33.156C84.8276 33.5231 83.7916 33.6888 82.3767 35.8792L85.5439 35.9858C85.5439 35.9858 87.6041 33.6947 89.6583 33.677C89.6491 33.4965 89.6049 33.3196 89.5281 33.156Z" fill="#27DEBF"/>
<path opacity="0.2" d="M84.579 40.8283H84.5494C84.5205 40.8247 84.4926 40.8153 84.4674 40.8008C84.4422 40.7863 84.4201 40.7669 84.4025 40.7437C84.3848 40.7206 84.372 40.6942 84.3647 40.666C84.3574 40.6378 84.3558 40.6085 84.3599 40.5797C85.1828 35.2872 89.013 33.4757 89.1788 33.4283C89.2052 33.4165 89.2337 33.4101 89.2626 33.4094C89.2915 33.4086 89.3203 33.4137 89.3473 33.4241C89.3743 33.4346 89.3989 33.4503 89.4198 33.4703C89.4406 33.4903 89.4573 33.5143 89.4689 33.5408C89.4817 33.5667 89.4891 33.595 89.4906 33.6238C89.4922 33.6527 89.4878 33.6816 89.4779 33.7087C89.4679 33.7359 89.4525 33.7607 89.4327 33.7817C89.4128 33.8027 89.3889 33.8194 89.3623 33.8309C89.3209 33.8309 85.5854 35.6069 84.798 40.6448C84.7907 40.6971 84.7643 40.7448 84.7238 40.7787C84.6833 40.8126 84.6317 40.8303 84.579 40.8283Z" fill="black"/>
<path d="M93.6959 47.2042C94.0102 48.2649 93.9431 49.4022 93.5065 50.4187C92.9145 51.7507 91.6713 51.4547 91.0378 50.2707C90.4458 49.2111 90.0788 47.2397 91.0378 46.2925C91.9969 45.3453 93.3052 45.9255 93.6959 47.2042Z" fill="#B55B52"/>
<path d="M91.5764 94.5464C91.5764 94.5464 82.3649 130.451 75.7345 150.686C70.3769 167.031 61.7988 205.233 61.7988 205.233H54.6948C54.6948 205.233 58.531 168.173 62.6039 152.006C72.9107 111.099 66.1974 107.772 75.9713 94.5464H91.5764Z" fill="#27DEBF"/>
<path opacity="0.4" d="M81.9683 105.794C78.884 117.042 79.1208 129.315 80.441 135.329C82.3472 128.782 84.2535 121.944 85.9347 115.793C85.3546 112.454 83.5845 108.577 81.9683 105.794Z" fill="black"/>
<path d="M62.8467 205.375H53.7595L54.0022 202.184L63.6874 201.858L62.8467 205.375Z" fill="#263238"/>
<path d="M89.9544 212.307H95.1877L94.7792 200.195H89.5459L89.9544 212.307Z" fill="#B55B52"/>
<path d="M95.602 208.731H89.7235C89.6228 208.729 89.5247 208.764 89.4482 208.83C89.3718 208.895 89.3222 208.987 89.3091 209.087L88.6401 213.734C88.6268 213.851 88.6384 213.97 88.6743 214.083C88.7101 214.196 88.7694 214.3 88.8482 214.388C88.927 214.477 89.0235 214.547 89.1315 214.596C89.2395 214.644 89.3565 214.669 89.4748 214.669C91.5232 214.634 92.5118 214.509 95.0988 214.509C96.6854 214.509 99.012 214.675 101.208 214.675C103.405 214.675 103.517 212.502 102.605 212.307C98.5028 211.425 97.8694 210.211 96.4782 209.051C96.2321 208.846 95.9223 208.733 95.602 208.731Z" fill="#263238"/>
<path opacity="0.2" d="M89.5459 200.195H94.7792L94.9864 206.44H89.7531L89.5459 200.195Z" fill="black"/>
<path d="M97.1887 94.5464C97.1887 94.5464 97.1887 130.451 95.7738 150.686C94.6194 167.031 95.8626 205.233 95.8626 205.233H88.7291C88.7291 205.233 83.0399 168.173 82.9571 152.006C82.7499 111.099 75.1782 107.772 81.554 94.5464H97.1887Z" fill="#27DEBF"/>
<path d="M96.8392 205.375H87.752L87.2725 202.184L96.8866 201.858L96.8392 205.375Z" fill="#263238"/>
<path d="M75.6222 93.2973L74.6631 95.2036C74.5921 95.3516 74.7638 95.4996 75.0124 95.4996H97.2894C97.4847 95.4996 97.6446 95.4048 97.6564 95.2864L97.8459 93.3861C97.8459 93.25 97.6919 93.1375 97.4847 93.1375H75.9714C75.9044 93.1318 75.837 93.1435 75.7758 93.1715C75.7146 93.1995 75.6617 93.2428 75.6222 93.2973Z" fill="white"/>
<path d="M78.511 95.7067H77.919C77.8065 95.7067 77.7177 95.6475 77.7237 95.5765L77.996 93.1019C77.996 93.0309 78.1025 92.9717 78.215 92.9717H78.807C78.9195 92.9717 79.0083 93.0309 79.0024 93.1019L78.7301 95.5765C78.736 95.6475 78.6294 95.7067 78.511 95.7067Z" fill="#263238"/>
<path d="M92.4822 95.7067H91.8902C91.7777 95.7067 91.6889 95.6475 91.6949 95.5765L91.9672 93.1019C91.9672 93.0309 92.0737 92.9717 92.1921 92.9717H92.7841C92.8966 92.9717 92.9854 93.0309 92.9795 93.1019L92.7072 95.5765C92.6953 95.6475 92.5947 95.7067 92.4822 95.7067Z" fill="#263238"/>
</g>
<defs>
<clipPath id="clip0">
<rect width="296" height="229" fill="white"/>
</clipPath>
</defs>
</svg>
