<svg width="231" height="229" viewBox="0 0 231 229" fill="none" xmlns="http://www.w3.org/2000/svg">
<path d="M34.5583 211.308C79.3073 234.897 151.862 234.897 196.611 211.308C241.36 187.718 241.36 149.451 196.611 125.856C151.862 102.261 79.3073 102.266 34.5583 125.856C-10.1907 149.446 -10.1958 187.713 34.5583 211.308Z" fill="#F0F0F0"/>
<path d="M72.7434 170.384L74.087 168.784L33.3842 145.281L30.6252 146.871L45.0817 155.22L31.1995 163.235L16.62 154.815L13.8661 156.41L55.5279 180.461L55.9638 179.938L56.1843 180.061L72.1639 170.856L72.2921 170.928L72.5229 170.646L72.8665 170.451L72.7434 170.384Z" fill="#E0E0E0"/>
<path d="M172.18 193.836C184.704 193.836 194.857 188.998 194.857 183.031C194.857 177.063 184.704 172.225 172.18 172.225C159.656 172.225 149.503 177.063 149.503 183.031C149.503 188.998 159.656 193.836 172.18 193.836Z" fill="#E0E0E0"/>
<path d="M103.677 216.108C116.201 216.108 126.354 211.27 126.354 205.302C126.354 199.335 116.201 194.497 103.677 194.497C91.1526 194.497 80.9998 199.335 80.9998 205.302C80.9998 211.27 91.1526 216.108 103.677 216.108Z" fill="#E0E0E0"/>
<path d="M190.262 196.528C194.662 199.092 201.795 199.092 206.195 196.528C210.596 193.964 210.596 189.861 206.195 187.328C201.795 184.795 194.662 184.79 190.262 187.328C185.862 189.866 185.862 193.99 190.262 196.528Z" fill="#E0E0E0"/>
<path d="M34.9635 201.128C41.186 201.128 46.2302 198.217 46.2302 194.625C46.2302 191.034 41.186 188.123 34.9635 188.123C28.7411 188.123 23.6968 191.034 23.6968 194.625C23.6968 198.217 28.7411 201.128 34.9635 201.128Z" fill="#E0E0E0"/>
<path d="M56.0714 84.3222L33.2405 146.512C33.1654 146.701 33.0228 146.854 32.8405 146.943C32.5181 147.107 32.1614 147.193 31.7995 147.193C31.4376 147.193 31.0809 147.107 30.7585 146.943C30.6542 146.894 30.562 146.823 30.4885 146.734C30.4149 146.645 30.3618 146.542 30.3328 146.43C30.3225 146.374 30.3225 146.317 30.3328 146.261C30.3382 146.116 30.3659 145.972 30.4149 145.835L53.3227 83.3068C53.3868 83.1207 53.4874 82.9493 53.6187 82.8026C53.75 82.656 53.9092 82.5371 54.0871 82.4528C54.265 82.3686 54.4579 82.3208 54.6545 82.3122C54.8512 82.3036 55.0475 82.3343 55.2321 82.4027C55.4167 82.4711 55.5857 82.5756 55.7293 82.7102C55.8729 82.8448 55.9881 83.0068 56.0682 83.1866C56.1483 83.3663 56.1917 83.5603 56.1957 83.7571C56.1998 83.9539 56.1645 84.1495 56.0919 84.3324L56.0714 84.3222Z" fill="#37474F"/>
<path d="M25.548 127.112L48.4609 140.343" stroke="#37474F" stroke-width="6" stroke-miterlimit="10"/>
<path d="M42.2096 117.492L65.1277 130.722" stroke="#37474F" stroke-width="6" stroke-miterlimit="10"/>
<path d="M37.4456 80.0503L49.6661 72.9939C50.1165 72.7021 50.6326 72.5273 51.1676 72.4853C51.7026 72.4434 52.2396 72.5355 52.73 72.7535C53.2204 72.9714 53.6486 73.3083 53.976 73.7335C54.3033 74.1588 54.5194 74.6589 54.6046 75.1888L74.8919 170.102C74.908 170.166 74.9166 170.231 74.9176 170.297C74.9252 170.365 74.9252 170.434 74.9176 170.502C74.8883 170.614 74.835 170.717 74.7615 170.806C74.688 170.894 74.596 170.966 74.4919 171.015C74.1695 171.179 73.8128 171.265 73.4509 171.265C73.089 171.265 72.7323 171.179 72.4099 171.015C72.2275 170.92 72.0842 170.764 72.0047 170.574C72.0029 170.545 72.0029 170.516 72.0047 170.487L51.7226 75.8042C51.7086 75.6643 51.6405 75.5355 51.5328 75.4452C51.4643 75.4351 51.3944 75.4389 51.3274 75.4566C51.2605 75.4742 51.1977 75.5052 51.1431 75.5477L38.9174 82.6042" fill="#455A64"/>
<path d="M57.3892 170.743L49.9481 166.446C49.8183 166.362 49.7102 166.248 49.6327 166.115C49.5552 165.981 49.5104 165.831 49.502 165.676V165.502C49.5095 165.348 49.554 165.197 49.6316 165.063C49.7092 164.93 49.8177 164.816 49.9481 164.733L67.8046 154.42C67.9427 154.349 68.0956 154.312 68.2508 154.312C68.4059 154.312 68.5588 154.349 68.6969 154.42L76.138 158.717C76.2675 158.802 76.3754 158.915 76.4529 159.049C76.5304 159.182 76.5754 159.332 76.5842 159.487V159.666C76.5754 159.82 76.5304 159.97 76.4529 160.104C76.3754 160.238 76.2675 160.351 76.138 160.435L58.2815 170.743C58.1434 170.814 57.9905 170.851 57.8353 170.851C57.6802 170.851 57.5273 170.814 57.3892 170.743Z" fill="#E8505B"/>
<path opacity="0.1" d="M49.6353 165.071C49.5532 165.204 49.5073 165.356 49.502 165.512V165.687C49.5104 165.841 49.5552 165.991 49.6327 166.125C49.7102 166.259 49.8183 166.372 49.9481 166.456L57.3892 170.743C57.5263 170.817 57.6799 170.854 57.8353 170.851V169.8L49.6353 165.071Z" fill="black"/>
<path opacity="0.15" d="M57.8354 169.81V170.861C57.9909 170.864 58.1445 170.827 58.2816 170.753L67.2099 165.625L76.1381 160.471C76.2676 160.387 76.3755 160.274 76.453 160.14C76.5305 160.006 76.5755 159.856 76.5843 159.702V159.523C76.5788 159.368 76.5328 159.218 76.451 159.087L57.8354 169.81Z" fill="black"/>
<path d="M54.1636 155.661L46.7174 151.364C46.5894 151.278 46.483 151.164 46.4064 151.031C46.3299 150.897 46.2854 150.748 46.2764 150.594V150.415C46.2854 150.261 46.3299 150.112 46.4064 149.978C46.483 149.845 46.5894 149.731 46.7174 149.646L64.579 139.338C64.7162 139.267 64.8683 139.23 65.0226 139.23C65.1769 139.23 65.329 139.267 65.4662 139.338L72.9124 143.635C73.0413 143.72 73.1483 143.834 73.225 143.967C73.3016 144.101 73.3456 144.251 73.3535 144.405V144.589C73.3469 144.743 73.3034 144.894 73.2266 145.028C73.1499 145.161 73.0421 145.275 72.9124 145.358L55.0457 155.661C54.9091 155.731 54.758 155.767 54.6046 155.767C54.4513 155.767 54.3001 155.731 54.1636 155.661Z" fill="#E8505B"/>
<path opacity="0.1" d="M46.4046 149.979C46.3247 150.111 46.2805 150.261 46.2764 150.415V150.594C46.2854 150.748 46.3299 150.897 46.4064 151.031C46.483 151.164 46.5894 151.278 46.7174 151.364L54.1636 155.661C54.3005 155.735 54.4542 155.772 54.6097 155.769V154.717L46.4046 149.979Z" fill="black"/>
<path opacity="0.15" d="M54.6097 154.717V155.769C54.7636 155.771 54.9155 155.734 55.0508 155.661L63.9842 150.533L72.9124 145.374C73.0421 145.29 73.1499 145.177 73.2266 145.043C73.3034 144.909 73.3469 144.759 73.3534 144.605V144.43C73.35 144.276 73.3058 144.126 73.2252 143.994L54.6097 154.717Z" fill="black"/>
<path d="M50.9429 140.569L43.4967 136.271C43.3672 136.187 43.2593 136.073 43.1818 135.94C43.1043 135.806 43.0593 135.656 43.0505 135.502V135.323C43.0593 135.168 43.1043 135.018 43.1818 134.885C43.2593 134.751 43.3672 134.638 43.4967 134.553L61.3583 124.246C61.4955 124.175 61.6476 124.138 61.8019 124.138C61.9562 124.138 62.1083 124.175 62.2455 124.246L69.6866 128.543C69.8164 128.627 69.9245 128.74 70.002 128.874C70.0795 129.008 70.1243 129.158 70.1328 129.312V129.487C70.1252 129.641 70.0807 129.792 70.0031 129.925C69.9255 130.059 69.817 130.173 69.6866 130.256L51.8301 140.569C51.6929 140.639 51.5408 140.676 51.3865 140.676C51.2322 140.676 51.0801 140.639 50.9429 140.569Z" fill="#E8505B"/>
<path opacity="0.1" d="M43.179 134.887C43.0978 135.018 43.0518 135.168 43.0457 135.323V135.502C43.0545 135.656 43.0994 135.806 43.1769 135.94C43.2545 136.074 43.3623 136.187 43.4918 136.271L47.2149 138.42L50.938 140.569C51.073 140.643 51.2251 140.68 51.379 140.676V139.62L43.179 134.887Z" fill="black"/>
<path opacity="0.15" d="M51.3792 139.62V140.676C51.5347 140.68 51.6884 140.643 51.8253 140.569L60.7536 135.415L69.6818 130.256C69.8122 130.172 69.9207 130.059 69.9983 129.925C70.076 129.792 70.1204 129.641 70.128 129.487V129.312C70.1214 129.157 70.0774 129.006 69.9998 128.871L51.3792 139.62Z" fill="black"/>
<path d="M47.7072 125.476L40.2661 121.179C40.1366 121.095 40.0287 120.981 39.9512 120.847C39.8737 120.714 39.8288 120.564 39.8199 120.41V120.23C39.8288 120.076 39.8737 119.926 39.9512 119.792C40.0287 119.659 40.1366 119.545 40.2661 119.461L58.1226 109.153C58.2598 109.082 58.4119 109.046 58.5662 109.046C58.7205 109.046 58.8726 109.082 59.0098 109.153L66.456 113.451C66.5864 113.534 66.6949 113.647 66.7725 113.781C66.8501 113.915 66.8946 114.065 66.9022 114.22V114.394C66.8938 114.549 66.849 114.699 66.7714 114.832C66.6939 114.966 66.5858 115.079 66.456 115.163L48.5944 125.476C48.4568 125.546 48.3049 125.582 48.1508 125.582C47.9967 125.582 47.8447 125.546 47.7072 125.476Z" fill="#E8505B"/>
<path opacity="0.15" d="M48.1533 124.528V125.584C48.3072 125.587 48.4591 125.55 48.5943 125.476L57.5277 120.322L66.456 115.163C66.5858 115.079 66.6939 114.966 66.7714 114.832C66.8489 114.699 66.8937 114.548 66.9022 114.394V114.22C66.8968 114.064 66.8509 113.912 66.7688 113.779L48.1533 124.528Z" fill="black"/>
<path opacity="0.1" d="M39.9482 119.794C39.8705 119.927 39.8265 120.077 39.8199 120.23V120.41C39.8288 120.564 39.8737 120.714 39.9512 120.847C40.0287 120.981 40.1366 121.095 40.2661 121.179L47.7072 125.476C47.844 125.55 47.9978 125.587 48.1533 125.584V124.528L39.9482 119.794Z" fill="black"/>
<path d="M44.4815 110.384L32.107 103.24C31.9782 103.156 31.8711 103.042 31.7945 102.908C31.7179 102.775 31.6738 102.625 31.666 102.471V102.297C31.6743 102.143 31.7184 101.993 31.795 101.86C31.8716 101.726 31.9785 101.612 32.107 101.527L49.9687 91.2146C50.1059 91.144 50.258 91.1071 50.4123 91.1071C50.5666 91.1071 50.7187 91.144 50.8559 91.2146L63.2508 98.3582C63.3797 98.4427 63.4867 98.5564 63.5634 98.6901C63.64 98.8237 63.684 98.9736 63.6919 99.1275V99.3018C63.6828 99.4554 63.6383 99.6048 63.5618 99.7383C63.4853 99.8718 63.3788 99.9857 63.2508 100.071L45.3687 110.384C45.2302 110.45 45.0786 110.485 44.9251 110.485C44.7715 110.485 44.6199 110.45 44.4815 110.384Z" fill="#E8505B"/>
<path opacity="0.15" d="M44.9225 109.435V110.486C45.0776 110.491 45.2313 110.456 45.3686 110.384L54.2969 105.225L63.2508 100.071C63.3788 99.9856 63.4852 99.8717 63.5618 99.7383C63.6383 99.6048 63.6828 99.4554 63.6918 99.3018V99.1223C63.6877 98.9683 63.6435 98.8181 63.5636 98.6864L44.9225 109.435Z" fill="black"/>
<path opacity="0.1" d="M31.7942 101.856C31.7166 101.99 31.6726 102.141 31.666 102.297V102.471C31.6738 102.625 31.7179 102.775 31.7945 102.908C31.8711 103.042 31.9782 103.156 32.107 103.24L44.4815 110.384C44.6171 110.456 44.7691 110.491 44.9225 110.486V109.435L31.7942 101.856Z" fill="black"/>
<path d="M39.4301 93.9428L16.5838 156.061L16.5325 156.2C16.4447 156.351 16.3169 156.475 16.1633 156.559C15.8393 156.721 15.482 156.805 15.1197 156.805C14.7574 156.805 14.4001 156.721 14.0761 156.559C13.9728 156.508 13.8815 156.436 13.8081 156.348C13.7347 156.259 13.681 156.156 13.6504 156.046C13.6453 155.989 13.6453 155.933 13.6504 155.876C13.6566 155.729 13.6861 155.584 13.7376 155.446L36.6609 92.9274C36.7249 92.7413 36.8256 92.5699 36.9568 92.4232C37.0881 92.2766 37.2474 92.1577 37.4253 92.0734C37.6031 91.9892 37.7961 91.9414 37.9927 91.9328C38.1893 91.9242 38.3857 91.955 38.5702 92.0233C38.7548 92.0917 38.9239 92.1962 39.0674 92.3308C39.211 92.4654 39.3263 92.6274 39.4064 92.8072C39.4865 92.987 39.5298 93.1809 39.5339 93.3777C39.538 93.5745 39.5027 93.7701 39.4301 93.953V93.9428Z" fill="#37474F"/>
<path d="M38.9173 82.6042C38.5648 82.844 38.2862 83.1775 38.1131 83.5671C37.9401 83.9568 37.8793 84.387 37.9378 84.8094L58.2303 179.718C58.2506 179.793 58.2609 179.87 58.261 179.948C58.2662 180.003 58.2662 180.058 58.261 180.113C58.2311 180.224 58.1776 180.327 58.1042 180.415C58.0307 180.504 57.939 180.575 57.8354 180.625C57.513 180.79 57.1562 180.875 56.7944 180.875C56.4325 180.875 56.0757 180.79 55.7533 180.625C55.5748 180.532 55.4323 180.383 55.3482 180.2L55.3226 180.077L35.0455 85.4299C34.8623 84.3971 34.9919 83.3332 35.4177 82.3747C35.8435 81.4161 36.5461 80.6067 37.4353 80.0504" fill="#455A64"/>
<path d="M44.5791 178.466L25.7585 178.21L25.5944 193.595C25.5944 194.99 26.4867 196.39 28.3123 197.472C31.9636 199.631 37.9226 199.697 41.6201 197.615C43.4868 196.564 44.4201 195.169 44.4201 193.764L44.5791 178.466Z" fill="#37474F"/>
<path d="M28.5583 174.4C24.8609 176.482 24.825 179.923 28.4763 182.092C32.1276 184.261 38.0866 184.318 41.8097 182.236C45.5328 180.154 45.5431 176.713 41.8918 174.543C38.2405 172.374 32.2558 172.318 28.5583 174.4Z" fill="#455A64"/>
<path d="M43.7637 178.405C43.7598 178.655 43.7147 178.903 43.6304 179.138C43.3432 180.02 42.574 180.841 41.374 181.518C39.4378 182.51 37.2818 182.995 35.1073 182.928C32.935 182.953 30.7923 182.423 28.8816 181.389C27.8914 180.888 27.1169 180.044 26.7021 179.015C26.6123 178.762 26.5672 178.494 26.5688 178.225C26.5688 177.077 27.4303 175.969 28.9534 175.123C30.8815 174.118 33.0371 173.631 35.2098 173.707C37.3862 173.675 39.5341 174.205 41.4458 175.246C42.9637 176.138 43.7637 177.256 43.7637 178.405Z" fill="#263238"/>
<path d="M43.6403 179.138C43.3532 180.02 42.5839 180.841 41.3839 181.518C39.4478 182.51 37.2917 182.995 35.1172 182.928C32.945 182.953 30.8023 182.423 28.8915 181.389C27.9013 180.888 27.1268 180.044 26.712 179.015C27.1388 177.971 27.9423 177.125 28.9633 176.646C30.8928 175.644 33.0471 175.155 35.2198 175.225C37.3956 175.198 39.5422 175.728 41.4557 176.764C42.4459 177.267 43.2215 178.11 43.6403 179.138Z" fill="#E8505B"/>
<path d="M39.1842 184.225C39.5945 183.989 39.9278 184.189 39.9227 184.661C39.9034 184.92 39.8232 185.171 39.6886 185.393C39.5541 185.615 39.3689 185.801 39.1483 185.938C38.7329 186.174 38.4047 185.974 38.4098 185.502C38.4283 185.243 38.5082 184.992 38.6428 184.77C38.7775 184.548 38.9631 184.361 39.1842 184.225Z" fill="#263238"/>
<path d="M25.7276 180.912C24.7019 182.964 22.6507 187.805 25.3071 189.779C25.4199 189.861 25.5225 189.933 25.6353 190.005V190.989C25.3686 190.825 25.0917 190.641 24.825 190.446C20.8301 187.487 25.3378 179.887 25.5327 179.569C25.5824 179.484 25.6633 179.421 25.7584 179.395L25.7276 180.912Z" fill="#E0E0E0"/>
<path d="M39.5329 185.277C39.4201 185.513 36.5124 191.072 31.7277 192.19C31.1888 192.32 30.6361 192.385 30.0816 192.384C28.4933 192.355 26.9468 191.871 25.6251 190.99V190.005C27.5995 191.379 29.5893 191.851 31.5329 191.4C35.9483 190.374 38.7739 184.948 38.7944 184.897C38.8193 184.849 38.8534 184.807 38.8947 184.772C38.936 184.738 38.9838 184.711 39.0352 184.695C39.0866 184.679 39.1408 184.673 39.1945 184.678C39.2482 184.683 39.3005 184.698 39.3483 184.723C39.398 184.746 39.4425 184.778 39.479 184.819C39.5155 184.86 39.5433 184.908 39.5606 184.96C39.5779 185.012 39.5844 185.067 39.5796 185.121C39.5749 185.176 39.559 185.229 39.5329 185.277Z" fill="#E0E0E0"/>
<path d="M78.6004 131.282L76.6516 130.159C76.3293 129.947 76.0612 129.663 75.8688 129.329C75.6764 128.995 75.5651 128.621 75.5439 128.236V39.3994C75.5643 39.0143 75.6752 38.6394 75.8677 38.3053C76.0602 37.9711 76.3288 37.6871 76.6516 37.4763L141.093 0.270905C141.437 0.0965388 141.818 0.00567627 142.203 0.00567627C142.589 0.00567627 142.969 0.0965388 143.314 0.270905L145.257 1.39399C145.581 1.60424 145.851 1.88802 146.044 2.22221C146.237 2.5564 146.349 2.93154 146.37 3.31708V92.1587C146.349 92.5442 146.237 92.9193 146.044 93.2535C145.851 93.5877 145.581 93.8715 145.257 94.0817L80.8209 131.282C80.4768 131.456 80.0964 131.547 79.7106 131.547C79.3249 131.547 78.9445 131.456 78.6004 131.282Z" fill="#E8505B"/>
<path opacity="0.4" d="M146.354 3.13191C146.277 2.55755 145.81 2.34729 145.257 2.67037L80.8151 39.8757C80.4883 40.0828 80.2186 40.3684 80.0305 40.7065L75.8663 38.3014C76.0528 37.9621 76.3229 37.6761 76.651 37.4706L141.087 0.265229C141.431 0.0908625 141.812 0 142.198 0C142.583 0 142.964 0.0908625 143.308 0.265229L145.257 1.38831C145.553 1.58367 145.805 1.84037 145.994 2.14114C146.184 2.44191 146.306 2.77975 146.354 3.13191Z" fill="white"/>
<path opacity="0.1" d="M80.5589 131.394C80.2413 131.511 79.903 131.562 79.5651 131.543C79.2271 131.523 78.8968 131.434 78.5948 131.281L76.6512 130.158C76.3273 129.948 76.0577 129.664 75.8643 129.33C75.671 128.996 75.5593 128.621 75.5383 128.235V39.3936C75.5535 39.0076 75.6664 38.6318 75.8665 38.3013L80.0307 40.7065C79.832 41.0372 79.7208 41.4132 79.7076 41.7988V130.64C79.7076 131.256 80.0717 131.543 80.5589 131.394Z" fill="black"/>
<path d="M151.4 73.0606C151.318 73.0231 151.227 73.0081 151.137 73.0171C151.047 73.0261 150.961 73.0588 150.887 73.1118L148.272 74.8452C148.104 74.9487 147.903 74.982 147.711 74.9378C147.519 74.8937 147.352 74.7756 147.246 74.6093C147.089 74.3913 146.918 74.184 146.734 73.9888C146.58 73.8277 146.472 73.6294 146.419 73.4136C146.366 73.1977 146.37 72.9717 146.431 72.758L150.534 70.1426L147.457 68.3682C147.394 68.3326 147.326 68.305 147.257 68.2862L145.298 67.8503C145.083 67.8121 144.861 67.8409 144.663 67.9326C144.465 68.0243 144.3 68.1745 144.19 68.3631L142.354 71.8657C142.102 72.2745 141.704 72.573 141.241 72.7016L141.128 72.7375C141.207 72.4711 141.262 72.1982 141.292 71.9221L138.216 70.1375C138.118 70.0857 138.007 70.0668 137.898 70.0834C137.789 70.1 137.688 70.1514 137.61 70.2298L134.682 72.5323C134.506 72.6872 134.364 72.8781 134.268 73.0922C134.172 73.3063 134.122 73.5386 134.123 73.7734L134.298 76.5631C134.297 77.0505 134.137 77.5242 133.841 77.9119C133.364 78.4862 132.908 79.0862 132.482 79.7119C132.342 79.8956 132.162 80.0454 131.956 80.1502C131.75 80.2549 131.523 80.312 131.292 80.317L129.405 80.2247C129.182 80.2252 128.962 80.2872 128.772 80.4039C128.581 80.5206 128.426 80.6874 128.323 80.8862L126.554 84.8555C126.478 85.0238 126.467 85.2143 126.522 85.3904C126.578 85.5665 126.697 85.7157 126.856 85.8093L128.944 87.0145C129.013 87.1853 129.029 87.3729 128.99 87.5529C128.849 88.1793 128.741 88.8126 128.667 89.4504C128.59 89.934 128.368 90.3829 128.031 90.7376L125.436 93.1222C125.273 93.2894 125.15 93.4908 125.074 93.7116C124.999 93.9325 124.974 94.1673 125 94.3991L125.487 97.2299C125.495 97.3078 125.52 97.3829 125.561 97.4496C125.602 97.5162 125.657 97.5727 125.723 97.6145L128.8 99.3992L128.841 95.8556C129.009 95.752 129.21 95.7187 129.402 95.7629C129.594 95.8071 129.761 95.9251 129.867 96.0915C130.022 96.3107 130.193 96.5181 130.38 96.712C130.532 96.8734 130.641 97.0714 130.695 97.287C130.749 97.5026 130.746 97.7285 130.687 97.9427L129.405 101.512C129.347 101.653 129.341 101.811 129.388 101.956C129.435 102.102 129.532 102.226 129.662 102.307L132.739 104.092L133.58 101.784L134.774 98.8197C135.025 98.4112 135.421 98.1126 135.882 97.9838C136.292 97.876 136.694 97.7424 137.087 97.5838C137.175 97.543 137.271 97.5219 137.367 97.5217C137.464 97.5216 137.56 97.5425 137.647 97.583C137.735 97.6235 137.813 97.6826 137.876 97.7562C137.939 97.8299 137.984 97.9163 138.01 98.0094L138.672 100.199C138.71 100.341 138.799 100.464 138.923 100.543L142.026 102.327L141.482 98.9017L142.431 98.153C142.607 97.9984 142.748 97.8074 142.844 97.5931C142.939 97.3789 142.987 97.1465 142.985 96.912L142.81 94.1222C142.81 93.6347 142.97 93.1606 143.267 92.7735C143.749 92.1991 144.472 91.8914 144.898 91.2709C145.139 90.9171 145.41 90.3478 145.821 90.3683L147.703 90.4607C147.927 90.4607 148.146 90.3989 148.337 90.2822C148.528 90.1655 148.683 89.9983 148.785 89.7991L150.559 85.8247C150.6 85.7333 150.622 85.6346 150.624 85.5346C150.626 85.4345 150.608 85.335 150.571 85.242C150.535 85.1489 150.48 85.064 150.41 84.9924C150.34 84.9208 150.256 84.8638 150.164 84.8247L148.626 84.1734C148.44 84.0825 148.288 83.9328 148.196 83.7474C148.103 83.5621 148.074 83.3513 148.113 83.1478C148.256 82.5216 148.365 81.8882 148.441 81.2503C148.514 80.7664 148.734 80.3168 149.072 79.9632L151.672 77.5785C151.907 77.3374 152.057 77.0257 152.098 76.6913L154.457 74.8554L151.4 73.0606ZM139.605 91.3735C136.426 93.8658 133.39 93.1889 132.815 89.835C132.241 86.4811 134.836 82.2606 138.01 79.7632C141.185 77.2657 143.739 77.4554 144.313 80.7888C144.887 84.1222 142.79 88.876 139.616 91.3735H139.605Z" fill="#263238"/>
<path d="M128.021 90.7428L125.457 93.1018C125.256 93.3045 125.119 93.561 125.062 93.8402L128.872 96.0454V95.8402C129.04 95.7367 129.241 95.7034 129.433 95.7476C129.625 95.7917 129.792 95.9098 129.898 96.0761L133.575 93.953L128.021 90.7428Z" fill="#455A64"/>
<path d="M134.564 83.5939C134.856 83.1434 135.171 82.7086 135.508 82.2913L131.846 80.1785C131.684 80.2489 131.51 80.2872 131.333 80.2913L129.446 80.199C129.161 80.1942 128.883 80.2946 128.667 80.481L134.308 83.7323L134.564 83.5939Z" fill="#455A64"/>
<path d="M154.477 74.8451C154.394 74.8091 154.302 74.7958 154.212 74.8066C154.122 74.8174 154.037 74.852 153.964 74.9067L151.369 76.6144C151.201 76.7166 151 76.7491 150.809 76.705C150.617 76.661 150.45 76.5438 150.344 76.3785C150.19 76.1583 150.018 75.9508 149.831 75.758C149.677 75.5961 149.568 75.397 149.515 75.1802C149.462 74.9634 149.467 74.7366 149.528 74.5221L149.774 73.8605L150.887 73.1272C150.963 73.0693 151.054 73.0338 151.149 73.0248C151.244 73.0157 151.34 73.0334 151.426 73.0759L154.477 74.8451Z" fill="#455A64"/>
<path d="M146.81 74.0759C146.78 74.0451 146.754 74.0041 146.723 73.9682C146.57 73.8071 146.461 73.6089 146.408 73.393C146.355 73.1772 146.359 72.9512 146.421 72.7374L150.523 70.122L147.446 68.3477C147.383 68.312 147.316 68.2845 147.246 68.2656L145.287 67.8297C145.072 67.7916 144.851 67.8203 144.653 67.912C144.455 68.0037 144.289 68.154 144.18 68.3425L142.344 71.8451C142.237 72.0293 142.094 72.1898 141.923 72.3169L146.077 74.7169L146.81 74.0759Z" fill="#455A64"/>
<path d="M134.221 73.2759L138.031 75.4759L141.169 72.6041C141.228 72.3731 141.271 72.1383 141.298 71.9015L138.221 70.1169C138.121 70.0664 138.007 70.0501 137.896 70.0705C137.786 70.0909 137.686 70.1468 137.61 70.2297L134.682 72.5323C134.46 72.7302 134.299 72.9886 134.221 73.2759Z" fill="#455A64"/>
<path d="M155.21 78.0657L154.723 75.2349C154.721 75.1463 154.693 75.0601 154.644 74.9866C154.594 74.913 154.525 74.8551 154.444 74.8196C154.362 74.7841 154.273 74.7724 154.185 74.786C154.097 74.7997 154.016 74.838 153.949 74.8965L151.354 76.6042C151.186 76.7077 150.985 76.741 150.793 76.6968C150.601 76.6526 150.434 76.5346 150.328 76.3683C150.174 76.1496 150.003 75.9438 149.816 75.7529C149.663 75.5904 149.554 75.3915 149.5 75.1751C149.446 74.9587 149.449 74.7321 149.508 74.517L150.831 70.9272C150.868 70.8374 150.884 70.7406 150.879 70.6438C150.873 70.547 150.847 70.4525 150.801 70.3672C150.755 70.2818 150.69 70.2078 150.612 70.1503C150.534 70.0929 150.444 70.0534 150.349 70.0349L148.395 69.599C148.18 69.5601 147.958 69.5885 147.76 69.6803C147.562 69.772 147.397 69.9227 147.287 70.1118L145.446 73.6144C145.196 74.0229 144.8 74.3215 144.339 74.4503C143.929 74.5581 143.526 74.6917 143.133 74.8503C143.046 74.892 142.95 74.9139 142.853 74.9145C142.756 74.915 142.66 74.8943 142.572 74.8537C142.484 74.8131 142.406 74.7536 142.344 74.6794C142.281 74.6053 142.236 74.5183 142.21 74.4246L141.549 72.2349C141.527 72.1505 141.484 72.0729 141.424 72.0097C141.364 71.9464 141.289 71.8995 141.206 71.8733C141.123 71.8471 141.035 71.8426 140.949 71.8601C140.864 71.8776 140.784 71.9166 140.718 71.9734L137.79 74.2759C137.613 74.4306 137.473 74.6216 137.377 74.8358C137.281 75.05 137.233 75.2824 137.236 75.517L137.41 78.3067C137.41 78.7941 137.249 79.2678 136.954 79.6555C136.472 80.2298 136.021 80.8298 135.59 81.4555C135.451 81.6409 135.272 81.7919 135.066 81.8969C134.859 82.0018 134.632 82.0578 134.4 82.0606L132.518 81.9683C132.297 81.973 132.081 82.038 131.894 82.1564C131.707 82.2748 131.555 82.442 131.456 82.6401L129.656 86.6401C129.612 86.7329 129.586 86.8338 129.582 86.9367C129.578 87.0396 129.595 87.1423 129.632 87.2384C129.669 87.3345 129.725 87.422 129.797 87.4955C129.87 87.569 129.956 87.6269 130.051 87.6658L131.59 88.317C131.776 88.408 131.927 88.5577 132.02 88.743C132.113 88.9284 132.142 89.1391 132.103 89.3427C131.96 89.9689 131.85 90.6023 131.774 91.2401C131.703 91.7243 131.483 92.1743 131.144 92.5273L128.544 94.912C128.381 95.0792 128.257 95.2805 128.182 95.5014C128.107 95.7222 128.081 95.957 128.108 96.1889L128.621 99.0248C128.624 99.113 128.652 99.1985 128.702 99.2713C128.752 99.3441 128.821 99.4013 128.902 99.4362C128.983 99.4711 129.073 99.4823 129.16 99.4685C129.247 99.4547 129.329 99.4164 129.395 99.3581L131.99 97.6504C132.158 97.5483 132.359 97.5157 132.551 97.5598C132.742 97.6039 132.909 97.721 133.015 97.8863C133.172 98.1043 133.344 98.3116 133.528 98.5069C133.682 98.6687 133.791 98.8679 133.844 99.0846C133.897 99.3014 133.892 99.5282 133.831 99.7428L132.508 103.333C132.471 103.422 132.455 103.519 132.46 103.616C132.465 103.713 132.492 103.807 132.538 103.893C132.584 103.978 132.648 104.052 132.727 104.109C132.805 104.167 132.895 104.206 132.99 104.225L134.949 104.661C135.164 104.699 135.385 104.67 135.583 104.578C135.781 104.487 135.947 104.336 136.056 104.148L137.892 100.645C138.146 100.238 138.543 99.9393 139.005 99.8094C139.416 99.7039 139.818 99.5703 140.21 99.4094C140.298 99.3687 140.394 99.3475 140.49 99.3474C140.587 99.3472 140.683 99.3681 140.77 99.4086C140.858 99.4491 140.936 99.5082 140.999 99.5819C141.062 99.6555 141.107 99.7419 141.133 99.8351L141.795 102.025C141.817 102.108 141.86 102.185 141.92 102.247C141.979 102.31 142.054 102.357 142.136 102.383C142.218 102.409 142.306 102.414 142.391 102.397C142.475 102.38 142.554 102.342 142.621 102.286L145.549 99.9838C145.725 99.8287 145.866 99.6378 145.963 99.4237C146.059 99.2097 146.109 98.9775 146.108 98.7428L145.933 95.953C145.932 95.4652 146.092 94.9906 146.39 94.6043C146.867 94.0299 147.323 93.4299 147.749 92.8043C147.889 92.6205 148.069 92.4707 148.275 92.3659C148.481 92.2612 148.708 92.2042 148.939 92.1991L150.826 92.2914C151.049 92.2909 151.269 92.2289 151.46 92.1122C151.65 91.9956 151.805 91.8287 151.908 91.6299L153.677 87.6606C153.722 87.5679 153.747 87.4669 153.751 87.364C153.756 87.2611 153.739 87.1585 153.702 87.0624C153.665 86.9663 153.608 86.8788 153.536 86.8053C153.464 86.7318 153.378 86.6738 153.282 86.635L151.744 85.9837C151.556 85.8942 151.404 85.7447 151.311 85.5589C151.218 85.3731 151.19 85.1617 151.231 84.9581C151.372 84.3317 151.48 83.6984 151.554 83.0606C151.629 82.5781 151.851 82.1305 152.19 81.7785L154.785 79.3888C154.952 79.2155 155.078 79.0061 155.152 78.7768C155.225 78.5474 155.246 78.3041 155.21 78.0657ZM142.698 93.153C139.523 95.6504 136.482 94.9684 135.908 91.6145C135.333 88.2606 137.446 83.5478 140.615 81.0503C143.785 78.5529 146.831 79.2349 147.405 82.5888C147.98 85.9427 145.872 90.6555 142.698 93.153Z" fill="#37474F"/>
<path d="M136.739 45.6501L133.703 43.9014C133.63 43.8636 133.549 43.8439 133.467 43.8439C133.385 43.8439 133.304 43.8636 133.231 43.9014L127.744 46.3732C127.657 46.4149 127.561 46.4368 127.465 46.4373C127.368 46.4379 127.272 46.4171 127.185 46.3764C127.097 46.3358 127.019 46.2762 126.957 46.2021C126.895 46.128 126.85 46.041 126.826 45.9475C126.53 44.9955 126.121 44.0828 125.605 43.2296C125.493 43.0284 125.427 42.8047 125.413 42.5748C125.399 42.3449 125.437 42.1148 125.523 41.9014L129.18 34.527C129.269 34.3388 129.285 34.1241 129.224 33.925C129.163 33.7258 129.03 33.5564 128.851 33.45L124.887 31.1628C124.707 31.0596 124.494 31.0282 124.292 31.0747C124.09 31.1213 123.912 31.2425 123.795 31.4141L119.231 38.2808C119.089 38.4634 118.908 38.6116 118.701 38.7146C118.494 38.8176 118.267 38.8726 118.036 38.8757C117.505 38.8618 116.974 38.8858 116.446 38.9475V33.9372L113.4 32.1782C113.318 32.14 113.227 32.1242 113.137 32.1323C113.047 32.1404 112.961 32.1722 112.887 32.2244L106.733 35.7834C106.536 35.9129 106.368 36.0826 106.241 36.2815C106.114 36.4803 106.03 36.7038 105.995 36.9372L105.379 43.7937C105.31 44.279 105.085 44.7288 104.738 45.0757C103.517 46.2063 102.372 47.4176 101.313 48.7014C101.163 48.8661 100.971 48.9855 100.757 49.0463C100.543 49.107 100.316 49.1066 100.103 49.045L96.1435 47.6604C95.939 47.5967 95.7191 47.603 95.5185 47.6782C95.3179 47.7534 95.1481 47.8933 95.0358 48.0758L90.5025 55.922C90.4016 56.1115 90.3665 56.3291 90.4027 56.5408C90.4389 56.7524 90.5443 56.946 90.7025 57.0912L93.8768 59.8297C94.0387 59.983 94.1535 60.1791 94.208 60.3952C94.2625 60.6114 94.2544 60.8385 94.1845 61.0502C93.6009 62.6072 93.1245 64.2024 92.7589 65.8246C92.632 66.2979 92.3549 66.7173 91.9691 67.0195L86.3281 70.9836C86.1429 71.13 85.9909 71.314 85.8821 71.5235C85.7734 71.733 85.7104 71.9633 85.6973 72.199V79.317C85.6914 79.4056 85.7086 79.4943 85.7472 79.5743C85.7859 79.6544 85.8447 79.7229 85.9178 79.7734L88.9537 81.5273L93.4615 79.3888C93.6308 79.7406 93.8191 80.083 94.0256 80.4144C94.1378 80.6156 94.2034 80.8393 94.2176 81.0692C94.2318 81.2991 94.1942 81.5292 94.1076 81.7426L90.4512 89.117C90.3606 89.3036 90.3435 89.5175 90.4033 89.7161C90.4632 89.9146 90.5956 90.0834 90.7743 90.1888L94.7435 92.4812C94.9244 92.5839 95.1374 92.6145 95.3399 92.567C95.5424 92.5195 95.7195 92.3972 95.8358 92.2248L100.395 85.3734C100.534 85.1899 100.714 85.0408 100.921 84.9377C101.127 84.8346 101.354 84.7801 101.585 84.7785C102.583 84.7999 103.58 84.7001 104.554 84.4811C104.646 84.4549 104.744 84.4498 104.839 84.466C104.934 84.4823 105.024 84.5196 105.102 84.5751C105.181 84.6307 105.246 84.7031 105.293 84.7871C105.34 84.8711 105.368 84.9645 105.374 85.0606L105.979 91.0453C105.981 91.1293 106.004 91.2116 106.045 91.285C106.086 91.3583 106.145 91.4204 106.215 91.4658L109.246 93.2094L112.887 87.8658C113.084 87.736 113.251 87.5661 113.377 87.3672C113.504 87.1684 113.587 86.945 113.621 86.7119L114.236 79.8554C114.274 79.6332 114.367 79.4238 114.504 79.2451C114.642 79.0664 114.821 78.9239 115.026 78.8298C116.834 78.0481 118.464 76.9051 119.815 75.4708C119.972 75.3118 120.168 75.1975 120.384 75.1398C120.599 75.0821 120.826 75.0831 121.041 75.1426L123.472 75.999C123.677 76.0644 123.897 76.0596 124.099 75.9852C124.3 75.9109 124.471 75.7714 124.585 75.5888L129.113 67.7425C129.214 67.5536 129.25 67.3363 129.215 67.1247C129.18 66.9131 129.075 66.7192 128.918 66.5733L126.841 64.7887C126.681 64.6319 126.565 64.4353 126.506 64.2191C126.446 64.0028 126.445 63.7747 126.503 63.5579C126.953 61.6974 127.143 59.7834 127.067 57.8707C127.071 57.6375 127.126 57.408 127.228 57.1982C127.33 56.9883 127.476 56.8031 127.657 56.6553L133.298 52.6912C133.481 52.5451 133.632 52.3617 133.74 52.1531C133.848 51.9445 133.91 51.7154 133.923 51.4809L136.616 48.2553L136.739 45.6501ZM109.821 73.8554C104.067 77.1734 100.492 74.8195 100.492 68.1785C100.492 61.5374 105.246 53.3989 110.995 50.0809C116.744 46.7629 120.226 49.1732 120.226 55.8143C120.226 62.4553 115.559 70.5426 109.821 73.8657V73.8554Z" fill="#263238"/>
<path d="M127.964 36.9732L129.174 34.5372C129.264 34.3491 129.28 34.1344 129.219 33.9352C129.158 33.736 129.025 33.5667 128.846 33.4603L124.882 31.1731C124.702 31.0699 124.489 31.0384 124.287 31.085C124.084 31.1316 123.907 31.2528 123.79 31.4244L119.231 38.2809C119.147 38.3945 119.045 38.4933 118.928 38.5732L124.031 41.5168L127.964 36.9732Z" fill="#455A64"/>
<path d="M92.4101 66.5579C92.2904 66.734 92.1432 66.8899 91.9742 67.0194L86.3331 70.9835C86.183 71.101 86.0561 71.2453 85.9587 71.4092L89.3998 73.3938L96.8716 69.1425L92.4101 66.5579Z" fill="#455A64"/>
<path d="M95.8305 47.6143C95.6711 47.6203 95.5156 47.6655 95.3778 47.746C95.24 47.8265 95.1243 47.9398 95.0408 48.0758L90.5074 55.922C90.4124 56.0975 90.3764 56.2989 90.4049 56.4964L94.3126 58.7528L100.518 50.3579L95.8305 47.6143Z" fill="#455A64"/>
<path d="M106.123 36.527L110.954 39.3167L116.446 36.1475V33.9372L113.4 32.1782C113.318 32.14 113.227 32.1242 113.137 32.1323C113.047 32.1404 112.961 32.1722 112.887 32.2244L106.733 35.7834C106.46 35.965 106.248 36.2239 106.123 36.527Z" fill="#455A64"/>
<path d="M136.954 53.2297V46.1271C136.968 46.04 136.957 45.9508 136.921 45.8702C136.885 45.7895 136.827 45.7209 136.753 45.6727C136.68 45.6244 136.593 45.5985 136.505 45.5982C136.417 45.5978 136.331 45.623 136.257 45.6707L130.769 48.1476C130.683 48.1893 130.588 48.2112 130.491 48.2117C130.395 48.2123 130.3 48.1915 130.212 48.1507C130.125 48.11 130.048 48.0504 129.986 47.9763C129.925 47.9021 129.881 47.8153 129.857 47.7219C129.557 46.7705 129.146 45.8581 128.631 45.004C128.519 44.8029 128.453 44.5791 128.439 44.3492C128.425 44.1193 128.462 43.8892 128.549 43.6758L132.205 36.3014C132.295 36.1138 132.312 35.8996 132.252 35.7005C132.192 35.5013 132.06 35.3316 131.882 35.2244L127.913 32.9321C127.732 32.8306 127.519 32.8006 127.317 32.8481C127.115 32.8955 126.938 33.017 126.821 33.1885L122.262 40.045C122.121 40.2286 121.94 40.3773 121.733 40.4795C121.526 40.5818 121.298 40.6349 121.067 40.6347C120.07 40.6177 119.075 40.7193 118.103 40.9373C118.01 40.9634 117.912 40.9685 117.817 40.9523C117.722 40.936 117.631 40.8988 117.552 40.8434C117.473 40.7879 117.408 40.7156 117.36 40.6316C117.312 40.5476 117.284 40.4541 117.277 40.3578L116.677 34.3321C116.68 34.2447 116.658 34.1582 116.613 34.0829C116.569 34.0076 116.503 33.9465 116.426 33.9067C116.348 33.8669 116.26 33.8501 116.173 33.8583C116.086 33.8664 116.003 33.8991 115.933 33.9526L109.78 37.5116C109.582 37.6401 109.415 37.8089 109.287 38.0069C109.16 38.2049 109.076 38.4276 109.041 38.6604L108.426 45.5219C108.355 46.0069 108.13 46.4564 107.785 46.804C106.563 47.9346 105.419 49.1459 104.359 50.4297C104.21 50.5944 104.017 50.7136 103.803 50.7735C103.589 50.8334 103.362 50.8315 103.149 50.7681L99.1898 49.3886C98.9858 49.3245 98.7663 49.33 98.5657 49.4042C98.3652 49.4785 98.1951 49.6173 98.0821 49.7989L93.5487 57.6502C93.4478 57.8397 93.4128 58.0574 93.4489 58.269C93.4851 58.4806 93.5906 58.6742 93.7487 58.8195L96.9231 61.5528C97.0848 61.7072 97.1996 61.9043 97.254 62.1212C97.3085 62.3381 97.3004 62.5659 97.2308 62.7785C96.6471 64.3355 96.1708 65.9307 95.8051 67.5528C95.6783 68.0262 95.4011 68.4455 95.0154 68.7477L89.3743 72.7118C89.1891 72.8582 89.0371 73.0422 88.9284 73.2518C88.8196 73.4613 88.7566 73.6915 88.7436 73.9272V81.0452C88.7322 81.132 88.7457 81.2203 88.7825 81.2997C88.8194 81.3791 88.8781 81.4464 88.9517 81.4937C89.0254 81.541 89.111 81.5664 89.1985 81.5669C89.2861 81.5674 89.3719 81.543 89.4461 81.4965L94.9333 79.0247C95.0198 78.983 95.1145 78.9609 95.2106 78.96C95.3066 78.9591 95.4017 78.9795 95.4889 79.0197C95.5761 79.0599 95.6534 79.1189 95.7152 79.1925C95.7769 79.266 95.8217 79.3523 95.8462 79.4452C96.1422 80.3995 96.5538 81.314 97.0718 82.1683C97.184 82.3694 97.2497 82.5932 97.2639 82.8231C97.2781 83.053 97.2405 83.2831 97.1539 83.4965L93.5077 90.8914C93.4171 91.078 93.4 91.2919 93.4599 91.4905C93.5197 91.689 93.6521 91.8578 93.8308 91.9632L97.8 94.2556C97.9809 94.3583 98.1939 94.3889 98.3964 94.3414C98.5989 94.2939 98.776 94.1716 98.8923 93.9992L103.441 87.153C103.582 86.9711 103.762 86.8232 103.968 86.7203C104.174 86.6173 104.401 86.5619 104.631 86.5581C105.629 86.5802 106.627 86.4786 107.6 86.2555C107.693 86.2304 107.79 86.226 107.885 86.2426C107.98 86.2593 108.07 86.2966 108.149 86.3519C108.227 86.4072 108.293 86.4791 108.341 86.5626C108.389 86.6461 108.418 86.7391 108.426 86.835L109.026 92.8248C109.022 92.9127 109.043 92.9998 109.088 93.0759C109.132 93.152 109.197 93.2139 109.275 93.2543C109.353 93.2948 109.441 93.312 109.529 93.304C109.616 93.2961 109.7 93.2632 109.769 93.2094L115.923 89.6196C116.121 89.4921 116.289 89.3235 116.415 89.1253C116.542 88.927 116.624 88.7039 116.657 88.4709L117.277 81.6093C117.348 81.1258 117.573 80.678 117.918 80.3324C119.138 79.2018 120.281 77.9905 121.339 76.7067C121.487 76.5411 121.68 76.4209 121.894 76.3601C122.108 76.2993 122.335 76.3004 122.549 76.3632L126.508 77.7426C126.713 77.808 126.933 77.8032 127.135 77.7289C127.336 77.6546 127.507 77.515 127.621 77.3324L132.154 69.4811C132.255 69.2923 132.289 69.0755 132.253 68.8648C132.217 68.6541 132.112 68.4613 131.954 68.3169L128.79 65.6144C128.628 65.4611 128.513 65.2649 128.459 65.0488C128.404 64.8327 128.412 64.6055 128.482 64.3938C129.062 62.8337 129.538 61.2371 129.908 59.6143C130.036 59.1416 130.313 58.7227 130.698 58.4195L136.339 54.4553C136.523 54.3066 136.673 54.1203 136.779 53.909C136.885 53.6976 136.945 53.466 136.954 53.2297ZM112.851 75.6144C107.098 78.9324 102.436 76.2401 102.436 69.599C102.436 62.9579 107.098 54.881 112.851 51.563C118.605 48.245 123.251 50.9322 123.251 57.5733C123.251 64.2144 118.6 72.2811 112.851 75.6144Z" fill="#37474F"/>
<path d="M136.739 45.6501C136.664 45.6097 136.58 45.5886 136.495 45.5886C136.41 45.5886 136.326 45.6097 136.251 45.6501L130.764 48.1219C130.678 48.1637 130.583 48.1858 130.487 48.1866C130.391 48.1875 130.296 48.1671 130.209 48.1269C130.121 48.0867 130.044 48.0277 129.982 47.9542C129.921 47.8806 129.876 47.7943 129.851 47.7014C129.647 47.0369 129.384 46.3917 129.067 45.7732L133.221 43.9014C133.294 43.8628 133.376 43.8426 133.459 43.8426C133.542 43.8426 133.624 43.8628 133.698 43.9014L136.739 45.6501Z" fill="#455A64"/>
<path d="M179.939 179.292V178.707C179.708 179.394 178.641 182.338 177.021 183.836C175.734 185.01 173.98 186.369 173.529 187.677C173.077 188.984 175.975 189.492 177.175 189.282C178.575 189.036 180.38 188.256 181.365 187.03C182.057 186.184 182.498 185.174 182.99 184.507C183.483 183.841 184.626 183.092 184.893 182.318C185.042 181.892 184.867 180.964 184.657 180.174C184.447 179.384 184.267 178.636 184.016 178.728V179.174C183.432 179.633 182.707 179.876 181.965 179.861C181.38 179.866 179.934 179.748 179.939 179.292Z" fill="#263238"/>
<path d="M175.857 184.851C176.257 184.492 176.657 184.143 177.021 183.825C178.155 182.8 179.016 181.046 179.508 179.851C179.791 179.17 179.937 178.44 179.939 177.702V175.359H184.016V179.143V179.246C183.821 180.092 181.965 182.348 180.888 183.82C180.17 184.805 178.837 186.061 177.196 186.277C175.642 186.497 174.857 186.015 175.857 184.851Z" fill="#FFA8A7"/>
<path d="M164.021 175.271V174.687C163.79 175.369 162.723 178.318 161.103 179.815C159.816 180.989 158.062 182.343 157.616 183.651C157.17 184.959 160.057 185.471 161.262 185.261C162.657 185.01 164.467 184.236 165.447 183.01C166.139 182.159 166.58 181.153 167.077 180.482C167.575 179.81 168.708 179.071 168.975 178.297C169.124 177.871 168.949 176.938 168.744 176.153C168.539 175.369 168.349 174.641 168.103 174.707V175.153C167.518 175.611 166.794 175.853 166.052 175.841C165.462 175.841 164.016 175.723 164.021 175.271Z" fill="#263238"/>
<path d="M159.939 180.825C160.339 180.471 160.739 180.123 161.103 179.8C162.236 178.774 163.098 177.02 163.59 175.825C163.876 175.145 164.022 174.414 164.021 173.677V171.353H168.123V175.138V175.241C167.923 176.087 166.072 178.343 164.99 179.815C164.277 180.8 162.939 182.051 161.303 182.271C159.667 182.492 158.939 181.989 159.939 180.825Z" fill="#FFA8A7"/>
<path d="M183.206 115.871C186.37 122.784 183.093 147.123 183.093 147.123C183.185 148.246 184.467 150.451 184.949 155.384C185.513 161.215 184.062 175.856 184.062 175.856C183.443 176.214 182.746 176.415 182.031 176.444C181.316 176.473 180.605 176.327 179.959 176.02C179.959 176.02 176.067 153.969 175.344 148.174C174.703 143.112 173.477 131.989 173.477 131.989L170 148.148C170.509 149.777 170.877 151.446 171.103 153.138C171.431 156.548 168.129 172.425 168.129 172.425C168.129 172.425 166.718 172.938 164.026 172.548C164.026 172.548 162.857 151.482 162.549 147.374C162.036 140.471 163.862 118.948 165.113 114.861L183.206 115.871Z" fill="#37474F"/>
<path d="M173.452 131.989L172.426 125.569C172.426 125.569 168.082 124.671 166.113 122.82C167.471 124.412 169.248 125.593 171.241 126.23L172.39 131.174L170.385 146.128L173.452 131.989Z" fill="#263238"/>
<path d="M166.765 111.517C169.159 103.548 172.211 91.6812 171.062 91.6812C169.913 91.6812 168.139 91.5735 166.841 92.876C164.277 95.4402 163.821 100.199 163.282 102.917C162.744 105.635 162.364 107.774 161.508 111.799C160.862 114.876 160.067 118.553 158.913 120.912C158.698 121.334 158.332 121.66 157.888 121.825C156.729 122.297 156.195 122.897 155.267 123.584C154.539 124.097 153.985 124.189 154.031 124.41C154.111 124.655 154.28 124.862 154.505 124.989C154.73 125.115 154.995 125.152 155.246 125.092C155.807 124.977 156.351 124.794 156.867 124.548C156.343 125.43 155.679 126.221 154.903 126.892C153.129 128.43 152.852 129.522 155.821 130.061C157.672 130.399 159.349 129.512 161.462 125.671C162.264 124.271 162.965 122.817 163.559 121.317C164.975 117.41 166.041 113.927 166.765 111.517Z" fill="#FFA8A7"/>
<path d="M177.611 91.8708C181.667 92.1478 181.949 94.1068 182.965 96.2504C183.71 97.8999 183.78 99.7756 183.16 101.476L180.329 109.65C180.329 109.65 181.657 112.85 183.19 115.871C176.098 119.83 167.242 117.753 165.108 114.845C165.021 114.235 165.565 109.445 165.903 106.317C164.657 103.179 164.324 101.189 164.852 99.1375C165.831 95.2914 169.631 91.5478 171.308 91.6862L177.611 91.8708Z" fill="#E8505B"/>
<path d="M173.729 88.5067H175.303C177.5 88.5054 179.608 87.6318 181.161 86.0779C182.715 84.5241 183.589 82.417 183.59 80.2195C183.59 78.0089 182.712 75.8887 181.15 74.3251C179.587 72.7615 177.467 71.8823 175.257 71.881H173.77C171.559 71.8823 169.439 72.7615 167.877 74.3251C166.314 75.8887 165.436 78.0089 165.436 80.2195C165.438 82.4179 166.312 84.5258 167.867 86.0798C169.422 87.6338 171.53 88.5067 173.729 88.5067Z" fill="#263238"/>
<path d="M188.031 92.876C186.732 92.876 185.487 92.36 184.568 91.4416C183.65 90.5231 183.134 89.2774 183.134 87.9785V77.4913C184.433 77.4913 185.678 78.0073 186.597 78.9257C187.515 79.8442 188.031 81.0899 188.031 82.3888V92.876Z" fill="#263238"/>
<path d="M184.031 75.6297L182.801 77.6041C182.926 77.6912 183.068 77.7519 183.217 77.7826C183.367 77.8133 183.521 77.8133 183.671 77.7826C183.82 77.7519 183.962 77.6912 184.088 77.6041C184.213 77.517 184.32 77.4053 184.401 77.2759C184.563 77.0067 184.615 76.6854 184.546 76.3787C184.477 76.0721 184.293 75.8038 184.031 75.6297Z" fill="#263238"/>
<path d="M168.421 75.5529C167.462 76.1221 166.277 78.5324 166.37 83.5888C166.472 87.8709 167.857 88.9273 168.554 89.2299C169.252 89.5324 170.606 89.3478 171.908 89.1324V91.6965C171.908 91.6965 170.098 93.794 170.211 94.9735C170.324 96.153 172.821 96.435 174.513 95.2812C175.61 94.4917 176.551 93.5058 177.288 92.3735V86.1683C177.425 86.3371 177.595 86.4769 177.787 86.5795C177.979 86.6821 178.189 86.7455 178.406 86.766C178.622 86.7866 178.841 86.7638 179.049 86.699C179.256 86.6342 179.449 86.5288 179.616 86.3888C181.057 85.4298 181.113 83.0606 180.272 82.2093C179.431 81.358 177.626 81.6247 177.288 82.8042C177.288 82.8042 175.201 82.876 172.426 81.3529C171.351 80.7677 170.428 79.9379 169.732 78.9304C169.036 77.9229 168.587 76.7659 168.421 75.5529Z" fill="#FFA8A7"/>
<path d="M171.657 82.5374C171.652 82.6095 171.661 82.6819 171.685 82.7503C171.708 82.8187 171.744 82.8819 171.792 82.9363C171.84 82.9906 171.897 83.035 171.962 83.0668C172.027 83.0987 172.098 83.1175 172.17 83.122C172.312 83.1251 172.45 83.0738 172.556 82.9785C172.662 82.8832 172.727 82.7511 172.739 82.6092C172.746 82.4664 172.696 82.3267 172.599 82.221C172.503 82.1152 172.369 82.0519 172.226 82.0451C172.083 82.0383 171.944 82.0885 171.838 82.1847C171.732 82.2809 171.669 82.4151 171.662 82.5579L171.657 82.5374Z" fill="#263238"/>
<path d="M171.031 86.1273L169.78 86.5273C169.802 86.6113 169.841 86.69 169.895 86.7584C169.949 86.8268 170.016 86.8837 170.092 86.9254C170.168 86.9671 170.252 86.9929 170.339 87.0012C170.425 87.0094 170.513 87 170.595 86.9734C170.763 86.9159 170.902 86.7958 170.983 86.6381C171.065 86.4803 171.082 86.2973 171.031 86.1273Z" fill="#F28F8F"/>
<path d="M167.236 80.8554L168.329 80.1016C168.283 80.0278 168.223 79.9642 168.151 79.9146C168.08 79.865 168 79.8304 167.915 79.8131C167.83 79.7958 167.742 79.7961 167.657 79.814C167.572 79.8319 167.492 79.8669 167.421 79.917C167.275 80.0196 167.175 80.1744 167.14 80.3492C167.106 80.524 167.14 80.7053 167.236 80.8554Z" fill="#263238"/>
<path d="M167.488 82.1221C167.481 82.2649 167.531 82.4046 167.627 82.5104C167.723 82.6162 167.858 82.6794 168 82.6862C168.143 82.693 168.283 82.6428 168.389 82.5466C168.494 82.4504 168.558 82.3162 168.564 82.1734C168.57 82.1011 168.561 82.0285 168.538 81.9598C168.515 81.891 168.479 81.8276 168.431 81.7731C168.383 81.7186 168.325 81.6743 168.26 81.6426C168.195 81.611 168.124 81.5926 168.052 81.5888C167.906 81.586 167.766 81.6403 167.661 81.7401C167.555 81.8398 167.493 81.977 167.488 82.1221Z" fill="#263238"/>
<path d="M170.119 81.8144L170.036 85.0554L168.329 84.5272L170.119 81.8144Z" fill="#F28F8F"/>
<path d="M171.929 89.1376C173.303 88.953 176.139 88.1427 176.58 87.0196C176.406 87.5885 176.058 88.0887 175.585 88.4504C174.739 89.1786 171.929 89.9889 171.929 89.9889V89.1376Z" fill="#F28F8F"/>
<path opacity="0.1" d="M175.811 116.64C176.366 116.513 176.891 116.276 177.354 115.943C177.817 115.61 178.208 115.188 178.506 114.702C178.804 114.215 179.001 113.675 179.087 113.111C179.173 112.548 179.145 111.972 179.006 111.42C178.98 111.333 178.954 111.256 178.934 111.194C178.837 110.897 178.642 110.642 178.381 110.47C178.121 110.297 177.809 110.218 177.498 110.245C177.953 109.942 178.343 109.553 178.646 109.099C178.95 108.645 179.161 108.135 179.267 107.599L180.129 103.276C180.129 103.276 178.529 98.1991 178.693 96.4555L182.765 96.6914L183.277 97.0606C183.71 98.5071 183.67 100.054 183.165 101.476L180.334 109.65C180.334 109.65 181.662 112.85 183.195 115.871C180.89 117.115 178.344 117.85 175.73 118.027C173.116 118.204 170.494 117.818 168.042 116.897C170.624 117.304 173.261 117.217 175.811 116.64Z" fill="black"/>
<path d="M181.672 112.681C180.175 113.081 175.616 113.62 175.277 110.42C175.103 107.871 175.103 105.312 175.277 102.763C175.485 98.9823 176.847 95.3559 179.18 92.3734L179.365 92.1478C179.365 92.1478 178.703 91.6093 177.313 91.8606C175.356 93.8503 173.971 96.3303 173.303 99.0401C171.252 98.7427 168.688 98.5273 166.975 98.394C167.773 95.6478 169.533 93.281 171.934 91.7273C171.353 91.5027 170.712 91.4918 170.124 91.6965C167.686 93.1785 165.898 95.5267 165.118 98.2709C163.488 102.789 163.549 119.625 163.58 125.604L166.395 121.122H184.344C184.119 114.671 181.672 112.681 181.672 112.681Z" fill="#37474F"/>
<path d="M190.431 108.307C190.431 108.307 188.519 104.204 185.857 98.1581C183.934 93.7786 183.508 92.7889 180.447 92.3171L179.37 92.1478C177.918 96.912 178.918 99.0658 180.826 102.327L184.601 109.64C186.113 109.343 190.483 108.763 190.431 108.307Z" fill="#FFA8A7"/>
<path d="M184.616 109.64C185.734 111.891 186.667 113.286 188.052 113.65C189.436 114.015 200.642 113.886 200.642 113.886V109.64L189.954 108.015L184.616 109.64Z" fill="#FFA8A7"/>
<path d="M207.062 156.261H189.406V190.666C189.324 192.03 190.175 193.41 191.97 194.451C195.421 196.446 201.016 196.446 204.467 194.451C206.196 193.456 207.057 192.148 207.057 190.861L207.062 156.261Z" fill="#E8505B"/>
<path d="M205.206 153.133C203.252 151.856 204.467 148.748 204.467 148.748H191.97C191.97 148.748 193.149 151.825 191.231 153.133C188.534 155.138 188.775 158.025 191.96 159.866C195.411 161.861 201.006 161.861 204.457 159.866C207.657 158.025 207.898 155.138 205.206 153.133Z" fill="#E8505B"/>
<path opacity="0.05" d="M205.206 153.133C203.252 151.856 204.467 148.748 204.467 148.748H191.97C191.97 148.748 193.149 151.825 191.231 153.133C188.534 155.138 188.775 158.025 191.96 159.866C195.411 161.861 201.006 161.861 204.457 159.866C207.657 158.025 207.898 155.138 205.206 153.133Z" fill="black"/>
<path opacity="0.05" d="M204.129 150.281C204.181 149.757 204.296 149.24 204.472 148.743H191.97C192.143 149.24 192.255 149.757 192.303 150.281C195.662 152.025 200.77 152.025 204.129 150.281Z" fill="black"/>
<path d="M207.062 142.738H206.037C205.586 142.262 205.068 141.856 204.498 141.533C201.047 139.543 195.452 139.543 192.001 141.533C191.431 141.856 190.912 142.262 190.462 142.738H189.436V145.143C189.436 146.451 190.298 147.753 192.026 148.733C195.477 150.728 201.072 150.728 204.524 148.733C206.252 147.738 207.113 146.435 207.113 145.143L207.062 142.738Z" fill="#E8505B"/>
<path d="M191.97 146.343C195.421 148.338 201.016 148.338 204.467 146.343C207.919 144.348 207.919 141.122 204.467 139.128C201.016 137.133 195.421 137.138 191.97 139.128C188.518 141.117 188.524 144.353 191.97 146.343Z" fill="#E8505B"/>
<path opacity="0.4" d="M191.97 146.343C195.421 148.338 201.016 148.338 204.467 146.343C207.919 144.348 207.919 141.122 204.467 139.128C201.016 137.133 195.421 137.138 191.97 139.128C188.518 141.117 188.524 144.353 191.97 146.343Z" fill="white"/>
<path opacity="0.2" d="M198.231 192.195C197.774 192.195 197.336 192.013 197.013 191.69C196.69 191.367 196.508 190.928 196.508 190.471V165.892C196.508 165.435 196.69 164.997 197.013 164.673C197.336 164.35 197.774 164.169 198.231 164.169C198.687 164.17 199.124 164.352 199.446 164.675C199.769 164.998 199.949 165.436 199.949 165.892V190.471C199.949 190.928 199.769 191.365 199.446 191.688C199.124 192.011 198.687 192.193 198.231 192.195Z" fill="black"/>
<path opacity="0.2" d="M204.113 191.154C203.288 191.456 202.621 191.03 202.621 190.205V165.169C202.649 164.72 202.804 164.289 203.068 163.925C203.332 163.562 203.695 163.282 204.113 163.117C204.939 162.82 205.606 163.241 205.606 164.066V189.107C205.578 189.555 205.423 189.986 205.158 190.348C204.894 190.711 204.531 190.99 204.113 191.154Z" fill="black"/>
<path opacity="0.2" d="M192.344 191.154C193.17 191.456 193.836 191.03 193.836 190.205V165.169C193.809 164.72 193.654 164.289 193.389 163.925C193.125 163.562 192.762 163.282 192.344 163.117C191.518 162.82 190.852 163.241 190.852 164.066V189.107C190.88 189.555 191.035 189.986 191.299 190.348C191.564 190.711 191.926 190.99 192.344 191.154Z" fill="black"/>
<path d="M200.642 80.8503L197.052 78.7682L194.775 89.4811C194.775 89.4811 197.052 93.1991 197.052 95.6042V141.307L199.437 144.097L200.662 143.389V97.6914C200.662 95.2863 202.934 94.194 202.934 94.194L200.642 80.8503Z" fill="#E0E0E0"/>
<path d="M199.416 81.558L195.826 79.4708L193.549 90.1837C193.549 90.1837 195.826 93.9068 195.826 96.3376V142.025L199.416 144.112V98.394C199.416 95.9889 201.693 94.8966 201.693 94.8966L199.416 81.558Z" fill="#EBEBEB"/>
<path d="M195.811 79.4708L197.031 78.7682L200.642 80.8503L199.416 81.558L195.811 79.4708Z" fill="#FAFAFA"/>
<path d="M200.642 80.8503L199.416 81.558L201.693 94.8965L202.913 94.1939L200.642 80.8503Z" fill="#F5F5F5"/>
<path d="M200.642 106.271C200.826 105.466 202.098 105.015 201.97 106.358C201.842 107.702 202.483 108.64 202.673 109.266C203.057 110.584 202.97 113.071 202.452 113.563C202.185 113.876 201.852 114.127 201.477 114.296C201.102 114.465 200.694 114.55 200.283 114.543C199.284 114.49 198.333 114.104 197.58 113.445C196.749 112.799 195.862 109.086 197.79 109.609C200.657 110.394 200.642 108.333 200.642 108.333V106.271Z" fill="#FFA8A7"/>
<path d="M106.359 118.435C108.374 118.84 109.569 120.322 112 124.076C114.431 127.83 118.195 134.333 118.195 134.333L127.621 137.922L127.215 142.163C127.215 142.163 116.933 140.338 115.523 139.292C114.113 138.246 108.672 130.358 108.672 130.358L106.359 118.435Z" fill="#FFA8A7"/>
<path d="M104.672 117.671C106.764 118.04 108.836 118.548 110.123 120.543C111.41 122.538 116.097 130.158 116.097 130.158C116.097 130.158 114.39 134.169 111.272 134.774L106.79 128.317L104.672 117.671Z" fill="#E6E6E6"/>
<path d="M96.9999 117.84C96.2819 118.015 95.5589 118.061 94.923 118.189C91.8101 118.815 91.2358 120.43 91.1588 124.194C91.0357 130.487 91.1588 145.051 91.1588 145.051C93.9332 147.066 104.179 148.302 110.015 144.025C110.015 144.025 109.718 127.271 109.718 124.302C109.718 121.333 108.072 117.768 103.518 117.502L96.9999 117.84Z" fill="#F5F5F5"/>
<path d="M90.4203 203.282H94.4459V196.39H90.4203V203.282Z" fill="#FFA8A7"/>
<path d="M106.892 198.061L110.913 198.2L111.118 190.907L106.892 190.769V198.061Z" fill="#FFA8A7"/>
<path d="M110.585 144.04L109.861 127.666L97.1947 129.717C97.2264 132.306 97.0756 134.894 96.7434 137.461C96.5075 139.481 94.569 142.235 91.1331 143.143C90.9856 145.789 90.9753 148.44 91.1023 151.087C91.1639 152.994 90.2664 174.087 90.2664 174.087C90.1741 175.194 89.1075 177.164 89.0254 181.143C88.9075 186.923 90.251 199.825 90.251 199.825C90.9461 200.167 91.7079 200.352 92.4824 200.368C93.2569 200.383 94.0253 200.227 94.7331 199.913C94.7331 199.913 97.4408 181.369 98.1639 175.651C98.7896 170.661 101.42 156.62 101.42 156.62L104.497 173.497C104.025 175.595 103.852 177.75 103.984 179.897C104.169 182.538 106.62 195.795 106.62 195.795C107.323 196.19 108.103 196.427 108.907 196.488C109.71 196.549 110.518 196.433 111.272 196.148C111.272 196.148 111.508 175.348 111.559 172.918C111.626 170.164 110.585 144.04 110.585 144.04Z" fill="#37474F"/>
<path d="M109.861 127.666C109.728 124.43 109.277 121.44 106.487 118.64C105.724 117.886 104.693 117.465 103.62 117.471H103.02C103.02 117.471 105.82 119.692 106.918 122.917C107.521 124.958 107.82 127.077 107.805 129.204L109.861 127.666Z" fill="#37474F"/>
<path d="M94.4513 201.292V200.718C94.6667 200.718 94.8 200.928 94.8821 201.446C94.9436 201.815 94.9949 202.097 95.118 202.584C95.2951 203.286 95.53 203.973 95.8205 204.636C96.3898 206.041 96.8462 206.559 98.1693 208.2C98.6178 208.652 99.0358 209.133 99.4206 209.641C99.6667 210.072 99.7488 211.277 99.3385 211.554C97.8 212.579 95.5077 212.579 93.8769 212.118C93.2679 211.948 92.7204 211.607 92.2996 211.135C91.8787 210.663 91.602 210.081 91.5026 209.456C91.4461 209.082 91.4667 208.702 91.4256 208.328C91.2774 207.477 90.9255 206.675 90.4 205.99C90.0994 205.593 89.8399 205.167 89.6256 204.718C89.2872 203.892 89.559 202.959 89.7743 202.154C89.9641 201.441 90.1641 200.656 90.4102 200.723V201.164C90.9821 201.615 91.6924 201.854 92.4205 201.841C93.0256 201.861 94.4564 201.743 94.4513 201.292Z" fill="#263238"/>
<path d="M110.944 196.959C111.154 196.959 111.323 197.261 111.785 197.759C112.471 198.457 113.271 199.034 114.149 199.466C115.657 200.22 118.59 201.379 119.918 201.979C120.744 202.348 120.708 203.354 119.851 203.923C118.995 204.492 116.923 204.902 114.441 204.348C113.087 204.046 111.328 202.81 110.21 202.861C109.092 202.913 107.01 202.913 106.19 202.348C105.369 201.784 105.677 200.574 105.928 199.533C106.185 198.395 106.498 196.625 106.877 196.702V197.092C107.359 197.825 109.857 198.118 110.923 197.605L110.944 196.959Z" fill="#263238"/>
<path d="M101.42 156.63C103.501 155.984 105.415 154.888 107.026 153.42C107.026 153.42 105.944 155.44 102.728 157.328L104.267 172.338L101.42 156.63Z" fill="#263238"/>
<path d="M104.133 109.994C107.189 109.994 109.667 107.517 109.667 104.461C109.667 101.405 107.189 98.9274 104.133 98.9274C101.077 98.9274 98.5999 101.405 98.5999 104.461C98.5999 107.517 101.077 109.994 104.133 109.994Z" fill="#263238"/>
<path d="M94.5691 108.394C94.5691 108.394 95.4665 112.604 95.8255 113.297C96.0649 113.723 96.4599 114.041 96.9281 114.184L96.8614 111.225L94.5691 108.394Z" fill="#263238"/>
<path d="M95.6922 102.358C95.3787 102.322 95.0612 102.358 94.7635 102.463C94.4659 102.568 94.196 102.739 93.9742 102.963C93.2358 103.717 93.646 106.081 94.5691 108.394L96.2563 108.589L95.6922 102.358Z" fill="#263238"/>
<path d="M96.764 108.589C96.4255 108.789 95.9435 108.138 95.5229 107.702C95.1024 107.266 93.7434 106.676 93.0614 108.102C92.3793 109.527 93.6614 111.492 94.7383 111.83C96.5845 112.409 96.8614 111.225 96.8614 111.225L96.9999 118.102C99.3025 121.051 105.682 120.799 103.026 117.717V115.666C103.849 115.799 104.685 115.842 105.518 115.794C106.877 115.584 107.733 114.512 108.144 113.04C108.81 110.676 109.061 108.763 108.497 104.112C107.882 99.0145 101.954 98.9838 98.7537 100.979C95.5537 102.974 96.764 108.589 96.764 108.589Z" fill="#FFA8A7"/>
<path d="M97.1897 130.743C97.282 126.558 96.3281 120.353 94.923 118.21C95.5724 117.912 96.289 117.792 96.9999 117.861C96.9999 117.861 99.6358 121.963 99.523 130.743H97.1897Z" fill="#37474F"/>
<path d="M96.7639 109.158C96.5947 109.158 95.9434 108.086 95.5229 107.702C94.9382 107.189 95.6921 102.358 95.6921 102.358C95.4902 101.934 95.4209 101.459 95.4932 100.996C95.5655 100.532 95.776 100.1 96.0972 99.7581C96.8972 98.8812 98.0101 97.8043 101.641 98.2196C104.205 98.5222 107.046 99.3325 109.333 98.2196C109.542 98.9601 109.525 99.7459 109.285 100.477C109.045 101.208 108.592 101.85 107.984 102.322C107.984 102.322 107.159 102.835 104.995 103.117C102.994 103.268 100.983 103.23 98.9896 103.004C98.3639 102.917 98.2306 103.517 97.8921 105.189C97.6101 106.671 97.3331 109.148 96.7639 109.158Z" fill="#263238"/>
<path d="M95.6973 102.732L93.646 101.635C93.7114 101.499 93.8036 101.377 93.9171 101.277C94.0305 101.177 94.163 101.1 94.3065 101.052C94.4501 101.005 94.6018 100.986 94.7526 100.998C94.9034 101.01 95.0503 101.052 95.1845 101.122C95.4603 101.274 95.6673 101.525 95.7628 101.825C95.8582 102.125 95.8348 102.45 95.6973 102.732Z" fill="#263238"/>
<path d="M103.021 115.686C103.021 115.686 99.9795 115.076 98.918 114.512C98.2956 114.185 97.7849 113.68 97.4513 113.061C97.6121 113.682 97.8964 114.265 98.2872 114.774C99.0616 115.763 103.021 116.497 103.021 116.497V115.686Z" fill="#F28F8F"/>
<path d="M102.902 108.215C102.897 108.334 102.857 108.45 102.787 108.547C102.717 108.644 102.619 108.718 102.507 108.76C102.395 108.802 102.273 108.811 102.156 108.784C102.039 108.757 101.933 108.696 101.851 108.61C101.768 108.523 101.713 108.414 101.692 108.296C101.671 108.178 101.685 108.056 101.733 107.946C101.78 107.836 101.859 107.743 101.96 107.678C102.06 107.612 102.177 107.578 102.297 107.579C102.379 107.581 102.459 107.599 102.534 107.632C102.608 107.665 102.675 107.712 102.732 107.771C102.788 107.83 102.832 107.9 102.861 107.976C102.89 108.052 102.904 108.133 102.902 108.215Z" fill="#263238"/>
<path d="M102.262 105.917L100.959 106.635C100.868 106.458 100.848 106.253 100.905 106.062C100.961 105.871 101.089 105.709 101.262 105.609C101.347 105.562 101.441 105.533 101.538 105.523C101.635 105.513 101.733 105.523 101.827 105.551C101.92 105.58 102.007 105.627 102.081 105.69C102.156 105.753 102.217 105.83 102.262 105.917Z" fill="#263238"/>
<path d="M102.738 112.035L104.128 112.548C104.098 112.641 104.049 112.728 103.985 112.802C103.921 112.876 103.843 112.937 103.754 112.98C103.666 113.023 103.57 113.048 103.472 113.053C103.374 113.058 103.276 113.043 103.184 113.009C102.999 112.936 102.849 112.793 102.765 112.612C102.682 112.43 102.673 112.224 102.738 112.035Z" fill="#F28F8F"/>
<path d="M108.333 106.425L107.143 105.507C107.199 105.427 107.27 105.36 107.352 105.309C107.435 105.257 107.526 105.223 107.622 105.208C107.718 105.193 107.816 105.198 107.91 105.222C108.004 105.246 108.092 105.289 108.169 105.348C108.328 105.473 108.434 105.654 108.465 105.854C108.495 106.054 108.448 106.258 108.333 106.425Z" fill="#263238"/>
<path d="M107.964 108.04C107.959 108.16 107.919 108.276 107.849 108.373C107.778 108.47 107.681 108.544 107.569 108.586C107.457 108.628 107.335 108.636 107.218 108.609C107.101 108.583 106.995 108.522 106.912 108.435C106.83 108.348 106.774 108.239 106.753 108.121C106.732 108.003 106.747 107.882 106.794 107.772C106.842 107.662 106.921 107.569 107.021 107.503C107.122 107.438 107.239 107.403 107.359 107.404C107.523 107.41 107.678 107.479 107.792 107.598C107.905 107.717 107.967 107.876 107.964 108.04Z" fill="#263238"/>
<path d="M104.708 107.579L104.902 111.24L106.815 110.589L104.708 107.579Z" fill="#F28F8F"/>
<path d="M133.744 114.379C133.744 113.25 134.687 111.676 134.4 110.84L132.318 109.635L128.144 120.122L123.887 122.543L121.785 119.466L128.077 110.076L125.995 108.876C125.733 108.999 125.482 109.132 125.195 109.286C120.441 111.989 116.559 118.645 116.523 124.158C116.523 126.938 117.472 128.886 119.041 129.799L121.092 130.994L121.333 130.369H121.487V179.164C118.564 182.42 116.528 186.994 116.502 190.959C116.502 193.01 117.015 194.63 117.933 195.697L120.015 196.902L122.102 185.21L126.359 182.789L128.461 185.866L124.277 196.477L126.359 197.677C126.359 197.677 133.713 186.702 133.749 181.194C133.803 179.817 133.494 178.45 132.851 177.23L133.364 176.794L131.313 175.6C130.539 175.141 129.646 174.925 128.749 174.979V126.189C131.682 122.933 133.718 118.363 133.744 114.379Z" fill="#455A64"/>
<path d="M121.508 179.169L123.59 180.374V131.579L121.508 130.374V179.169Z" fill="#263238"/>
<path d="M130.841 176.189V127.394C133.764 124.138 135.8 119.563 135.826 115.599C135.826 113.548 135.313 111.927 134.4 110.861L130.226 121.348L125.969 123.769L123.867 120.692L128.077 110.097C127.814 110.22 127.547 110.358 127.277 110.512C122.523 113.215 118.641 119.871 118.605 125.384C118.579 129.425 120.626 131.712 123.59 131.594V180.389C120.667 183.641 118.631 188.215 118.605 192.184C118.605 194.236 119.118 195.856 120.036 196.928L124.205 186.436L128.462 184.02L130.564 187.097L126.354 197.687C126.621 197.564 126.867 197.431 127.154 197.277C131.908 194.574 135.79 187.918 135.826 182.405C135.851 178.359 133.805 176.071 130.841 176.189Z" fill="#37474F"/>
<path d="M127.554 184.533L128.462 184.02L130.564 187.087L126.354 197.677L124.272 196.477L128.482 185.882L127.554 184.533Z" fill="#263238"/>
<path d="M130.841 136.076C130.841 136.861 129.651 137.733 128.79 138.281C127.928 138.83 126.81 139.594 127.251 141.179C127.329 141.488 127.47 141.777 127.667 142.027C127.864 142.277 128.111 142.483 128.393 142.631C128.674 142.779 128.984 142.866 129.302 142.886C129.619 142.907 129.938 142.859 130.236 142.748C130.758 142.521 131.211 142.161 131.55 141.703C131.889 141.246 132.103 140.708 132.169 140.143C132.385 138.681 132.877 135.184 130.877 134.774L130.841 136.076Z" fill="#FFA8A7"/>
<path d="M83.0613 140.271C86.5279 124.707 88.7023 121.297 93.5229 119.517L92.8664 128.871C92.8664 128.871 88.3433 138.948 87.6613 142.538C87.0613 145.671 86.3895 149.61 86.4972 152.281C86.5178 152.755 86.7133 153.205 87.0459 153.543C87.9331 154.466 88.1844 155.24 88.769 156.266C89.2203 157.071 89.7074 157.364 89.5741 157.548C89.4011 157.749 89.1571 157.875 88.8933 157.9C88.6294 157.925 88.3662 157.846 88.1587 157.682C87.6833 157.342 87.251 156.946 86.8715 156.502C86.9984 157.542 87.291 158.555 87.7382 159.502C88.7639 161.671 88.5433 162.794 85.569 162.066C83.7023 161.615 82.492 160.097 82.1382 155.651C81.9705 154.014 81.9208 152.367 81.9894 150.723C82.2971 146.492 82.5023 142.774 83.0613 140.271Z" fill="#FFA8A7"/>
<path d="M93.9434 118.435C92.7081 118.477 91.5061 118.847 90.4613 119.507C89.2511 120.322 87.2357 123.61 85.9587 127.676C84.6818 131.743 84.01 133.999 84.01 133.999C84.01 133.999 86.1023 137.184 90.6152 135.928C90.6152 135.928 93.1537 129.569 93.0101 129.974C92.9947 129.984 96.3742 123.712 93.9434 118.435Z" fill="#E6E6E6"/>
</svg>
